Busra-ExtraLight.ufo
<glyph name="exclam" format="2">
  <advance width="848"/>
  <unicode hex="0021"/>
  <outline>
    <component base="period" xOffset="111"/>
    <contour>
      <point x="367" y="428" type="curve"/>
      <point x="477" y="428" type="line"/>
      <point x="477" y="756"/>
      <point x="546" y="1151"/>
      <point x="546" y="1650" type="curve"/>
      <point x="470" y="1680"/>
      <point x="374" y="1680"/>
      <point x="298" y="1650" type="curve"/>
      <point x="298" y="1151"/>
      <point x="367" y="756"/>
    </contour>
  </outline>
</glyph>
<glyph name="numbersign" format="2">
  <advance width="1323"/>
  <unicode hex="0023"/>
  <outline>
    <contour>
      <point x="201" y="0" type="line"/>
      <point x="340" y="0" type="line"/>
      <point x="718" y="1520" type="line"/>
      <point x="579" y="1520" type="line"/>
    </contour>
    <contour>
      <point x="100" y="466" type="line"/>
      <point x="1223" y="466" type="line"/>
      <point x="1223" y="556" type="line"/>
      <point x="100" y="556" type="line"/>
    </contour>
    <contour>
      <point x="100" y="964" type="line"/>
      <point x="1223" y="964" type="line"/>
      <point x="1223" y="1054" type="line"/>
      <point x="100" y="1054" type="line"/>
    </contour>
    <contour>
      <point x="605" y="0" type="line"/>
      <point x="744" y="0" type="line"/>
      <point x="1122" y="1520" type="line"/>
      <point x="983" y="1520" type="line"/>
    </contour>
  </outline>
</glyph>
<glyph name="dollar" format="2">
  <advance width="1048"/>
  <unicode hex="0024"/>
  <outline>
    <contour>
      <point x="472" y="48" type="line"/>
      <point x="258" y="48"/>
      <point x="161" y="135"/>
      <point x="135" y="356" type="curve"/>
      <point x="86" y="356" type="line"/>
      <point x="86" y="64" type="line"/>
      <point x="202" y="-4"/>
      <point x="318" y="-30"/>
      <point x="472" y="-33" type="curve"/>
      <point x="472" y="-131" type="line"/>
      <point x="557" y="-131" type="line"/>
      <point x="557" y="-33" type="line"/>
      <point x="813" y="-19"/>
      <point x="981" y="158"/>
      <point x="981" y="363" type="curve" smooth="yes"/>
      <point x="981" y="588"/>
      <point x="763" y="734"/>
      <point x="557" y="842" type="curve"/>
      <point x="557" y="1389" type="line"/>
      <point x="738" y="1362"/>
      <point x="853" y="1314"/>
      <point x="887" y="1052" type="curve"/>
      <point x="928" y="1052" type="line"/>
      <point x="928" y="1370" type="line"/>
      <point x="819" y="1418"/>
      <point x="711" y="1464"/>
      <point x="557" y="1471" type="curve"/>
      <point x="557" y="1572" type="line"/>
      <point x="472" y="1572" type="line"/>
      <point x="472" y="1471" type="line"/>
      <point x="254" y="1456"/>
      <point x="86" y="1302"/>
      <point x="86" y="1119" type="curve" smooth="yes"/>
      <point x="86" y="890"/>
      <point x="270" y="759"/>
      <point x="472" y="647" type="curve"/>
    </contour>
    <contour>
      <point x="557" y="595" type="line"/>
      <point x="692" y="524"/>
      <point x="794" y="430"/>
      <point x="794" y="307" type="curve" smooth="yes"/>
      <point x="794" y="187"/>
      <point x="692" y="71"/>
      <point x="557" y="48" type="curve"/>
    </contour>
    <contour>
      <point x="472" y="898" type="line"/>
      <point x="356" y="965"/>
      <point x="270" y="1059"/>
      <point x="270" y="1168" type="curve" smooth="yes"/>
      <point x="270" y="1273"/>
      <point x="356" y="1370"/>
      <point x="472" y="1389" type="curve"/>
    </contour>
  </outline>
</glyph>
<glyph name="percent" format="2">
  <advance width="1481"/>
  <unicode hex="0025"/>
  <outline>
    <contour>
      <point x="310" y="0" type="line"/>
      <point x="413" y="0" type="line"/>
      <point x="1171" y="1649" type="line"/>
      <point x="1068" y="1649" type="line"/>
    </contour>
    <contour>
      <point x="369" y="941" type="curve" smooth="yes"/>
      <point x="511" y="941"/>
      <point x="608" y="1022"/>
      <point x="608" y="1280" type="curve" smooth="yes"/>
      <point x="608" y="1538"/>
      <point x="541" y="1619"/>
      <point x="369" y="1619" type="curve" smooth="yes"/>
      <point x="227" y="1619"/>
      <point x="130" y="1538"/>
      <point x="130" y="1280" type="curve" smooth="yes"/>
      <point x="130" y="1022"/>
      <point x="227" y="941"/>
    </contour>
    <contour>
      <point x="369" y="1001" type="curve" smooth="yes"/>
      <point x="296" y="1001"/>
      <point x="239" y="1100"/>
      <point x="239" y="1280" type="curve" smooth="yes"/>
      <point x="239" y="1461"/>
      <point x="296" y="1549"/>
      <point x="369" y="1549" type="curve" smooth="yes"/>
      <point x="442" y="1549"/>
      <point x="499" y="1460"/>
      <point x="499" y="1280" type="curve" smooth="yes"/>
      <point x="499" y="1100"/>
      <point x="442" y="1001"/>
    </contour>
    <contour>
      <point x="1112" y="25" type="curve" smooth="yes"/>
      <point x="1254" y="25"/>
      <point x="1351" y="106"/>
      <point x="1351" y="364" type="curve" smooth="yes"/>
      <point x="1351" y="622"/>
      <point x="1284" y="703"/>
      <point x="1112" y="703" type="curve" smooth="yes"/>
      <point x="970" y="703"/>
      <point x="873" y="622"/>
      <point x="873" y="364" type="curve" smooth="yes"/>
      <point x="873" y="106"/>
      <point x="970" y="25"/>
    </contour>
    <contour>
      <point x="1112" y="85" type="curve" smooth="yes"/>
      <point x="1039" y="85"/>
      <point x="982" y="184"/>
      <point x="982" y="364" type="curve" smooth="yes"/>
      <point x="982" y="545"/>
      <point x="1039" y="633"/>
      <point x="1112" y="633" type="curve" smooth="yes"/>
      <point x="1185" y="633"/>
      <point x="1242" y="544"/>
      <point x="1242" y="364" type="curve" smooth="yes"/>
      <point x="1242" y="184"/>
      <point x="1185" y="85"/>
    </contour>
  </outline>
</glyph>
<glyph name="ampersand" format="2">
  <advance width="1413"/>
  <unicode hex="0026"/>
  <outline>
    <contour>
      <point x="1114" y="-1" type="line"/>
      <point x="885" y="132"/>
      <point x="362" y="803"/>
      <point x="362" y="1281" type="curve" smooth="yes"/>
      <point x="362" y="1540"/>
      <point x="468" y="1660"/>
      <point x="652" y="1660" type="curve" smooth="yes"/>
      <point x="779" y="1660"/>
      <point x="877" y="1573"/>
      <point x="877" y="1417" type="curve" smooth="yes"/>
      <point x="877" y="1172"/>
      <point x="706" y="1005"/>
      <point x="544" y="854" type="curve" smooth="yes"/>
      <point x="532" y="842"/>
      <point x="509" y="854"/>
      <point x="497" y="842" type="curve" smooth="yes"/>
      <point x="388" y="734"/>
      <point x="289" y="626"/>
      <point x="289" y="430" type="curve" smooth="yes"/>
      <point x="289" y="231"/>
      <point x="429" y="101"/>
      <point x="636" y="101" type="curve" smooth="yes"/>
      <point x="884" y="101"/>
      <point x="1103" y="425"/>
      <point x="1103" y="752" type="curve"/>
      <point x="933" y="787" type="line"/>
      <point x="933" y="862" type="line"/>
      <point x="1359" y="862" type="line"/>
      <point x="1359" y="787" type="line"/>
      <point x="1219" y="752" type="line"/>
      <point x="1219" y="518"/>
      <point x="1043" y="-5"/>
      <point x="613" y="-5" type="curve" smooth="yes"/>
      <point x="303" y="-5"/>
      <point x="120" y="174"/>
      <point x="120" y="443" type="curve" smooth="yes"/>
      <point x="120" y="699"/>
      <point x="286" y="833"/>
      <point x="456" y="970" type="curve" smooth="yes"/>
      <point x="472" y="983"/>
      <point x="499" y="972"/>
      <point x="515" y="985" type="curve" smooth="yes"/>
      <point x="654" y="1097"/>
      <point x="781" y="1247"/>
      <point x="781" y="1396" type="curve" smooth="yes"/>
      <point x="781" y="1504"/>
      <point x="733" y="1560"/>
      <point x="658" y="1560" type="curve" smooth="yes"/>
      <point x="551" y="1560"/>
      <point x="506" y="1484"/>
      <point x="506" y="1326" type="curve" smooth="yes"/>
      <point x="506" y="822"/>
      <point x="1029" y="247"/>
      <point x="1223" y="111" type="curve"/>
      <point x="1413" y="66" type="line"/>
      <point x="1413" y="-1" type="line"/>
    </contour>
  </outline>
</glyph>
<glyph name="quotesingle" format="2">
  <advance width="442"/>
  <unicode hex="0027"/>
  <outline>
    <contour>
      <point x="242" y="1183" type="line"/>
      <point x="250" y="1397"/>
      <point x="303" y="1617"/>
      <point x="303" y="1792" type="curve"/>
      <point x="229" y="1819"/>
      <point x="213" y="1819"/>
      <point x="139" y="1792" type="curve"/>
      <point x="139" y="1617"/>
      <point x="186" y="1397"/>
      <point x="194" y="1183" type="curve"/>
    </contour>
  </outline>
</glyph>
<glyph name="asterisk" format="2">
  <advance width="1447"/>
  <unicode hex="002A"/>
  <outline>
    <contour>
      <point x="274" y="1027" type="curve"/>
      <point x="266" y="1012"/>
      <point x="262" y="997"/>
      <point x="262" y="979" type="curve" smooth="yes"/>
      <point x="262" y="945"/>
      <point x="277" y="919"/>
      <point x="307" y="900" type="curve" smooth="yes"/>
      <point x="398" y="844"/>
      <point x="502" y="849"/>
      <point x="702" y="745" type="curve"/>
      <point x="502" y="642"/>
      <point x="398" y="648"/>
      <point x="307" y="592" type="curve" smooth="yes"/>
      <point x="277" y="574"/>
      <point x="262" y="547"/>
      <point x="262" y="514" type="curve" smooth="yes"/>
      <point x="262" y="495"/>
      <point x="266" y="480"/>
      <point x="274" y="465" type="curve"/>
      <point x="292" y="435"/>
      <point x="319" y="420"/>
      <point x="352" y="420" type="curve" smooth="yes"/>
      <point x="371" y="420"/>
      <point x="386" y="424"/>
      <point x="401" y="431" type="curve"/>
      <point x="493" y="487"/>
      <point x="538" y="579"/>
      <point x="734" y="701" type="curve"/>
      <point x="727" y="475"/>
      <point x="667" y="379"/>
      <point x="667" y="277" type="curve" smooth="yes"/>
      <point x="667" y="221"/>
      <point x="705" y="184"/>
      <point x="761" y="184" type="curve" smooth="yes"/>
      <point x="817" y="184"/>
      <point x="855" y="221"/>
      <point x="855" y="277" type="curve" smooth="yes"/>
      <point x="855" y="379"/>
      <point x="795" y="474"/>
      <point x="788" y="698" type="curve"/>
      <point x="985" y="579"/>
      <point x="1030" y="487"/>
      <point x="1121" y="431" type="curve"/>
      <point x="1136" y="424"/>
      <point x="1151" y="420"/>
      <point x="1170" y="420" type="curve" smooth="yes"/>
      <point x="1204" y="420"/>
      <point x="1230" y="435"/>
      <point x="1249" y="465" type="curve"/>
      <point x="1256" y="480"/>
      <point x="1260" y="495"/>
      <point x="1260" y="514" type="curve" smooth="yes"/>
      <point x="1260" y="547"/>
      <point x="1245" y="574"/>
      <point x="1215" y="592" type="curve" smooth="yes"/>
      <point x="1122" y="648"/>
      <point x="1011" y="640"/>
      <point x="812" y="747" type="curve"/>
      <point x="1010" y="853"/>
      <point x="1122" y="843"/>
      <point x="1215" y="900" type="curve" smooth="yes"/>
      <point x="1245" y="919"/>
      <point x="1260" y="945"/>
      <point x="1260" y="979" type="curve" smooth="yes"/>
      <point x="1260" y="997"/>
      <point x="1256" y="1012"/>
      <point x="1249" y="1027" type="curve"/>
      <point x="1230" y="1057"/>
      <point x="1204" y="1072"/>
      <point x="1170" y="1072" type="curve" smooth="yes"/>
      <point x="1151" y="1072"/>
      <point x="1136" y="1069"/>
      <point x="1121" y="1061" type="curve"/>
      <point x="1030" y="1005"/>
      <point x="985" y="912"/>
      <point x="788" y="793" type="curve"/>
      <point x="795" y="1017"/>
      <point x="855" y="1113"/>
      <point x="855" y="1215" type="curve" smooth="yes"/>
      <point x="855" y="1271"/>
      <point x="817" y="1309"/>
      <point x="761" y="1309" type="curve" smooth="yes"/>
      <point x="705" y="1309"/>
      <point x="667" y="1271"/>
      <point x="667" y="1215" type="curve" smooth="yes"/>
      <point x="667" y="1112"/>
      <point x="727" y="1017"/>
      <point x="734" y="792" type="curve"/>
      <point x="539" y="914"/>
      <point x="493" y="1004"/>
      <point x="401" y="1061" type="curve"/>
      <point x="386" y="1069"/>
      <point x="371" y="1072"/>
      <point x="352" y="1072" type="curve" smooth="yes"/>
      <point x="319" y="1072"/>
      <point x="292" y="1057"/>
    </contour>
  </outline>
</glyph>
<glyph name="plus" format="2">
  <advance width="1200"/>
  <unicode hex="002B"/>
  <outline>
    <contour>
      <point x="225" y="720" type="line"/>
      <point x="225" y="570" type="line"/>
      <point x="525" y="570" type="line"/>
      <point x="525" y="270" type="line"/>
      <point x="675" y="270" type="line"/>
      <point x="675" y="570" type="line"/>
      <point x="975" y="570" type="line"/>
      <point x="975" y="720" type="line"/>
      <point x="675" y="720" type="line"/>
      <point x="675" y="1020" type="line"/>
      <point x="525" y="1020" type="line"/>
      <point x="525" y="720" type="line"/>
    </contour>
  </outline>
</glyph>
<glyph name="comma" format="2">
  <advance width="690"/>
  <unicode hex="002C"/>
  <outline>
    <contour>
      <point x="170" y="-323" type="line"/>
      <point x="343" y="-305"/>
      <point x="497" y="-179"/>
      <point x="497" y="15" type="curve" smooth="yes"/>
      <point x="497" y="167"/>
      <point x="400" y="235"/>
      <point x="313" y="235" type="curve" smooth="yes"/>
      <point x="243" y="235"/>
      <point x="180" y="191"/>
      <point x="180" y="112" type="curve" smooth="yes"/>
      <point x="180" y="55"/>
      <point x="219" y="0"/>
      <point x="294" y="0" type="curve" smooth="yes"/>
      <point x="331" y="0"/>
      <point x="378" y="34"/>
      <point x="378" y="44" type="curve"/>
      <point x="347" y="39" type="line"/>
      <point x="390" y="39"/>
      <point x="405" y="-4"/>
      <point x="405" y="-37" type="curve" smooth="yes"/>
      <point x="405" y="-149"/>
      <point x="301" y="-250"/>
      <point x="170" y="-283" type="curve"/>
    </contour>
  </outline>
</glyph>
<glyph name="hyphen" format="2">
  <advance width="974"/>
  <unicode hex="002D"/>
  <outline>
    <contour>
      <point x="150" y="873" type="line"/>
      <point x="150" y="765" type="line"/>
      <point x="824" y="765" type="line"/>
      <point x="824" y="873" type="line"/>
    </contour>
  </outline>
</glyph>
<glyph name="period" format="2">
  <advance width="651"/>
  <unicode hex="002E"/>
  <outline>
    <contour>
      <point x="159" y="100" type="curve" smooth="yes"/>
      <point x="159" y="28"/>
      <point x="217" y="-30"/>
      <point x="289" y="-30" type="curve" smooth="yes"/>
      <point x="361" y="-30"/>
      <point x="419" y="28"/>
      <point x="419" y="100" type="curve" smooth="yes"/>
      <point x="419" y="172"/>
      <point x="361" y="230"/>
      <point x="289" y="230" type="curve" smooth="yes"/>
      <point x="217" y="230"/>
      <point x="159" y="172"/>
    </contour>
  </outline>
</glyph>
<glyph name="slash" format="2">
  <advance width="1059"/>
  <unicode hex="002F"/>
  <outline>
    <contour>
      <point x="65" y="-150" type="line"/>
      <point x="184" y="-150" type="line"/>
      <point x="995" y="1870" type="line"/>
      <point x="876" y="1870" type="line"/>
    </contour>
  </outline>
</glyph>
<glyph name="zero" format="2">
  <advance width="1250"/>
  <unicode hex="0030"/>
  <anchor x="625" y="-110" name="LL"/>
  <anchor x="625" y="1745" name="LU"/>
  <outline>
    <contour>
      <point x="625" y="-20" type="curve" smooth="yes"/>
      <point x="900" y="-20"/>
      <point x="1134" y="130"/>
      <point x="1134" y="710" type="curve" smooth="yes"/>
      <point x="1134" y="1280"/>
      <point x="900" y="1440"/>
      <point x="625" y="1440" type="curve" smooth="yes"/>
      <point x="350" y="1440"/>
      <point x="116" y="1280"/>
      <point x="116" y="710" type="curve" smooth="yes"/>
      <point x="116" y="130"/>
      <point x="350" y="-20"/>
    </contour>
    <contour>
      <point x="625" y="80" type="curve" smooth="yes"/>
      <point x="429" y="80"/>
      <point x="287" y="270"/>
      <point x="287" y="710" type="curve" smooth="yes"/>
      <point x="287" y="1140"/>
      <point x="429" y="1340"/>
      <point x="625" y="1340" type="curve" smooth="yes"/>
      <point x="821" y="1340"/>
      <point x="963" y="1140"/>
      <point x="963" y="710" type="curve" smooth="yes"/>
      <point x="963" y="270"/>
      <point x="821" y="80"/>
    </contour>
  </outline>
</glyph>
<glyph name="one" format="2">
  <advance width="1250"/>
  <unicode hex="0031"/>
  <guideline x="472" y="1539" angle="219.2437"/>
  <anchor x="685" y="-110" name="LL"/>
  <anchor x="685" y="1745" name="LU"/>
  <outline>
    <contour>
      <point x="606" y="1289" type="line"/>
      <point x="606" y="140" type="line"/>
      <point x="259" y="75" type="line"/>
      <point x="259" y="0" type="line"/>
      <point x="1111" y="0" type="line"/>
      <point x="1111" y="75" type="line"/>
      <point x="764" y="140" type="line"/>
      <point x="764" y="1450" type="line"/>
      <point x="627" y="1450" type="line"/>
      <point x="199" y="1078" type="line"/>
      <point x="199" y="981" type="line"/>
      <point x="656" y="1270" type="line"/>
    </contour>
  </outline>
</glyph>
<glyph name="two" format="2">
  <advance width="1175"/>
  <unicode hex="0032"/>
  <guideline x="343" y="1105" angle="270"/>
  <guideline x="683" y="1145" angle="90"/>
  <anchor x="563" y="-101" name="LL"/>
  <anchor x="563" y="1605" name="LU"/>
  <outline>
    <contour>
      <point x="525" y="1427" type="curve" smooth="yes"/>
      <point x="719" y="1427"/>
      <point x="816" y="1315"/>
      <point x="816" y="1128" type="curve" smooth="yes"/>
      <point x="816" y="839"/>
      <point x="384" y="364"/>
      <point x="134" y="126" type="curve"/>
      <point x="134" y="0" type="line"/>
      <point x="1036" y="0" type="line"/>
      <point x="1036" y="345" type="line"/>
      <point x="961" y="345" type="line"/>
      <point x="928" y="145" type="line"/>
      <point x="318" y="145" type="line"/>
      <point x="318" y="165" type="line"/>
      <point x="514" y="330"/>
      <point x="993" y="801"/>
      <point x="993" y="1149" type="curve" smooth="yes"/>
      <point x="993" y="1396"/>
      <point x="780" y="1527"/>
      <point x="536" y="1527" type="curve" smooth="yes"/>
      <point x="298" y="1527"/>
      <point x="119" y="1397"/>
      <point x="119" y="1237" type="curve" smooth="yes"/>
      <point x="119" y="1138"/>
      <point x="180" y="1094"/>
      <point x="241" y="1094" type="curve" smooth="yes"/>
      <point x="295" y="1094"/>
      <point x="349" y="1132"/>
      <point x="349" y="1201" type="curve" smooth="yes"/>
      <point x="349" y="1250"/>
      <point x="316" y="1297"/>
      <point x="254" y="1297" type="curve" smooth="yes"/>
      <point x="236" y="1297"/>
      <point x="217" y="1293"/>
      <point x="197" y="1280" type="curve"/>
      <point x="229" y="1268" type="line"/>
      <point x="242" y="1345"/>
      <point x="339" y="1427"/>
    </contour>
  </outline>
</glyph>
<glyph name="three" format="2">
  <advance width="1250"/>
  <unicode hex="0033"/>
  <guideline x="803" y="1145" angle="90"/>
  <guideline x="393" y="1105" angle="270"/>
  <anchor x="605" y="-110" name="LL"/>
  <anchor x="605" y="1745" name="LU"/>
  <outline>
    <contour>
      <point x="566" y="-20" type="curve" smooth="yes"/>
      <point x="943" y="-20"/>
      <point x="1102" y="200"/>
      <point x="1102" y="411" type="curve" smooth="yes"/>
      <point x="1102" y="690"/>
      <point x="842" y="827"/>
      <point x="655" y="817" type="curve"/>
      <point x="578" y="748" type="line"/>
      <point x="760" y="776"/>
      <point x="1025" y="895"/>
      <point x="1025" y="1117" type="curve" smooth="yes"/>
      <point x="1025" y="1320"/>
      <point x="853" y="1440"/>
      <point x="589" y="1440" type="curve" smooth="yes"/>
      <point x="346" y="1440"/>
      <point x="178" y="1287"/>
      <point x="178" y="1133" type="curve" smooth="yes"/>
      <point x="178" y="1026"/>
      <point x="243" y="978"/>
      <point x="307" y="978" type="curve" smooth="yes"/>
      <point x="365" y="978"/>
      <point x="422" y="1019"/>
      <point x="422" y="1094" type="curve" smooth="yes"/>
      <point x="422" y="1147"/>
      <point x="387" y="1199"/>
      <point x="321" y="1199" type="curve" smooth="yes"/>
      <point x="302" y="1199"/>
      <point x="282" y="1194"/>
      <point x="261" y="1180" type="curve"/>
      <point x="295" y="1167" type="line"/>
      <point x="311" y="1276"/>
      <point x="452" y="1341"/>
      <point x="588" y="1341" type="curve" smooth="yes"/>
      <point x="725" y="1341"/>
      <point x="865" y="1275"/>
      <point x="865" y="1123" type="curve" smooth="yes"/>
      <point x="865" y="931"/>
      <point x="631" y="810"/>
      <point x="437" y="778" type="curve"/>
      <point x="437" y="698" type="line"/>
      <point x="800" y="698"/>
      <point x="942" y="629"/>
      <point x="942" y="397" type="curve" smooth="yes"/>
      <point x="942" y="202"/>
      <point x="794" y="80"/>
      <point x="567" y="80" type="curve" smooth="yes"/>
      <point x="360" y="80"/>
      <point x="257" y="169"/>
      <point x="245" y="253" type="curve"/>
      <point x="211" y="240" type="line"/>
      <point x="232" y="226"/>
      <point x="252" y="221"/>
      <point x="271" y="221" type="curve" smooth="yes"/>
      <point x="337" y="221"/>
      <point x="372" y="273"/>
      <point x="372" y="326" type="curve" smooth="yes"/>
      <point x="372" y="401"/>
      <point x="315" y="442"/>
      <point x="257" y="442" type="curve" smooth="yes"/>
      <point x="193" y="442"/>
      <point x="128" y="394"/>
      <point x="128" y="287" type="curve" smooth="yes"/>
      <point x="128" y="123"/>
      <point x="283" y="-20"/>
    </contour>
  </outline>
</glyph>
<glyph name="four" format="2">
  <advance width="1250"/>
  <unicode hex="0034"/>
  <guideline x="634" y="970" angle="234.5125"/>
  <guideline x="244" y="1105" angle="270"/>
  <guideline x="496" y="1245" angle="55.5349"/>
  <anchor x="615" y="-110" name="LL"/>
  <anchor x="615" y="1745" name="LU"/>
  <outline>
    <contour>
      <point x="212" y="477" type="line"/>
      <point x="793" y="1273" type="line"/>
      <point x="787" y="1320" type="line"/>
      <point x="787" y="110" type="line"/>
      <point x="597" y="75" type="line"/>
      <point x="597" y="0" type="line"/>
      <point x="1125" y="0" type="line"/>
      <point x="1125" y="75" type="line"/>
      <point x="945" y="110" type="line"/>
      <point x="945" y="1455" type="line"/>
      <point x="771" y="1455" type="line"/>
      <point x="111" y="550" type="line"/>
      <point x="111" y="414" type="line"/>
      <point x="1129" y="414" type="line"/>
      <point x="1129" y="520" type="line"/>
      <point x="197" y="520" type="line"/>
    </contour>
  </outline>
</glyph>
<glyph name="five" format="2">
  <advance width="1250"/>
  <unicode hex="0035"/>
  <guideline x="873" y="1145" angle="90"/>
  <anchor x="632" y="-110" name="LL"/>
  <anchor x="632" y="1745" name="LU"/>
  <outline>
    <contour>
      <point x="587" y="-20" type="curve" smooth="yes"/>
      <point x="878" y="-20"/>
      <point x="1106" y="105"/>
      <point x="1106" y="457" type="curve" smooth="yes"/>
      <point x="1106" y="757"/>
      <point x="910" y="901"/>
      <point x="615" y="901" type="curve" smooth="yes"/>
      <point x="506" y="901"/>
      <point x="370" y="870"/>
      <point x="323" y="856" type="curve"/>
      <point x="323" y="1282" type="line"/>
      <point x="941" y="1282" type="line"/>
      <point x="976" y="1082" type="line"/>
      <point x="1051" y="1082" type="line"/>
      <point x="1051" y="1440" type="line"/>
      <point x="217" y="1440" type="line"/>
      <point x="217" y="710" type="line"/>
      <point x="308" y="752"/>
      <point x="418" y="798"/>
      <point x="582" y="798" type="curve" smooth="yes"/>
      <point x="896" y="798"/>
      <point x="933" y="613"/>
      <point x="933" y="434" type="curve" smooth="yes"/>
      <point x="933" y="192"/>
      <point x="806" y="80"/>
      <point x="589" y="80" type="curve" smooth="yes"/>
      <point x="382" y="80"/>
      <point x="278" y="149"/>
      <point x="266" y="233" type="curve"/>
      <point x="232" y="220" type="line"/>
      <point x="253" y="206"/>
      <point x="273" y="201"/>
      <point x="292" y="201" type="curve" smooth="yes"/>
      <point x="358" y="201"/>
      <point x="393" y="253"/>
      <point x="393" y="306" type="curve" smooth="yes"/>
      <point x="393" y="381"/>
      <point x="336" y="422"/>
      <point x="278" y="422" type="curve" smooth="yes"/>
      <point x="214" y="422"/>
      <point x="149" y="374"/>
      <point x="149" y="267" type="curve" smooth="yes"/>
      <point x="149" y="103"/>
      <point x="304" y="-20"/>
    </contour>
  </outline>
</glyph>
<glyph name="six" format="2">
  <advance width="1250"/>
  <unicode hex="0036"/>
  <guideline x="843" y="1145" angle="90"/>
  <guideline x="363" y="1105" angle="270"/>
  <anchor x="628" y="-110" name="LL"/>
  <anchor x="583" y="1745" name="LU"/>
  <outline>
    <contour>
      <point x="312" y="810" type="curve" smooth="yes"/>
      <point x="312" y="1282"/>
      <point x="403" y="1555"/>
      <point x="691" y="1555" type="curve" smooth="yes"/>
      <point x="838" y="1555"/>
      <point x="908" y="1497"/>
      <point x="920" y="1422" type="curve"/>
      <point x="954" y="1435" type="line"/>
      <point x="866" y="1493"/>
      <point x="796" y="1408"/>
      <point x="796" y="1347" type="curve" smooth="yes"/>
      <point x="796" y="1292"/>
      <point x="838" y="1233"/>
      <point x="912" y="1233" type="curve" smooth="yes"/>
      <point x="982" y="1233"/>
      <point x="1037" y="1290"/>
      <point x="1037" y="1388" type="curve" smooth="yes"/>
      <point x="1037" y="1562"/>
      <point x="867" y="1655"/>
      <point x="664" y="1655" type="curve" smooth="yes"/>
      <point x="288" y="1655"/>
      <point x="144" y="1313"/>
      <point x="144" y="829" type="curve" smooth="yes"/>
      <point x="144" y="420"/>
      <point x="175" y="-20"/>
      <point x="662" y="-20" type="curve" smooth="yes"/>
      <point x="999" y="-20"/>
      <point x="1121" y="231"/>
      <point x="1121" y="544" type="curve" smooth="yes"/>
      <point x="1121" y="829"/>
      <point x="954" y="1023"/>
      <point x="682" y="1023" type="curve" smooth="yes"/>
      <point x="502" y="1023"/>
      <point x="272" y="890"/>
      <point x="272" y="710" type="curve"/>
      <point x="319" y="582" type="line"/>
      <point x="299" y="746"/>
      <point x="497" y="923"/>
      <point x="672" y="923" type="curve" smooth="yes"/>
      <point x="836" y="923"/>
      <point x="950" y="813"/>
      <point x="950" y="544" type="curve" smooth="yes"/>
      <point x="950" y="314"/>
      <point x="906" y="90"/>
      <point x="652" y="90" type="curve" smooth="yes"/>
      <point x="414" y="90"/>
      <point x="312" y="277"/>
    </contour>
  </outline>
</glyph>
<glyph name="seven" format="2">
  <advance width="1250"/>
  <unicode hex="0037"/>
  <guideline x="948" y="1145" angle="90"/>
  <guideline x="740" y="837" angle="69.2689"/>
  <anchor x="589" y="-110" name="LL"/>
  <anchor x="589" y="1745" name="LU"/>
  <outline>
    <contour>
      <point x="651" y="0" type="line"/>
      <point x="651" y="90" type="line"/>
      <point x="1122" y="1361" type="line"/>
      <point x="1122" y="1440" type="line"/>
      <point x="161" y="1440" type="line"/>
      <point x="161" y="1082" type="line"/>
      <point x="236" y="1082" type="line"/>
      <point x="271" y="1282" type="line"/>
      <point x="1005" y="1282" type="line"/>
      <point x="1008" y="1403" type="line"/>
      <point x="473" y="0" type="line"/>
    </contour>
  </outline>
</glyph>
<glyph name="eight" format="2">
  <advance width="1080"/>
  <unicode hex="0038"/>
  <outline>
    <contour>
      <point x="521" y="1474" type="curve" smooth="yes"/>
      <point x="315" y="1474"/>
      <point x="146" y="1320"/>
      <point x="146" y="1132" type="curve" smooth="yes"/>
      <point x="146" y="971"/>
      <point x="221" y="881"/>
      <point x="412" y="727" type="curve"/>
      <point x="236" y="611"/>
      <point x="127" y="502"/>
      <point x="127" y="319" type="curve" smooth="yes"/>
      <point x="127" y="120"/>
      <point x="300" y="-34"/>
      <point x="547" y="-34" type="curve" smooth="yes"/>
      <point x="776" y="-34"/>
      <point x="967" y="139"/>
      <point x="967" y="349" type="curve" smooth="yes"/>
      <point x="967" y="465"/>
      <point x="855" y="656"/>
      <point x="630" y="799" type="curve"/>
      <point x="780" y="862"/>
      <point x="930" y="1031"/>
      <point x="930" y="1151" type="curve" smooth="yes"/>
      <point x="930" y="1335"/>
      <point x="761" y="1474"/>
    </contour>
    <contour>
      <point x="581" y="840" type="curve"/>
      <point x="454" y="934"/>
      <point x="304" y="1050"/>
      <point x="304" y="1192" type="curve" smooth="yes"/>
      <point x="304" y="1297"/>
      <point x="397" y="1402"/>
      <point x="529" y="1402" type="curve" smooth="yes"/>
      <point x="679" y="1402"/>
      <point x="772" y="1312"/>
      <point x="772" y="1200" type="curve" smooth="yes"/>
      <point x="772" y="1050"/>
      <point x="694" y="941"/>
    </contour>
    <contour>
      <point x="461" y="690" type="curve"/>
      <point x="675" y="506" type="line" smooth="yes"/>
      <point x="747" y="444"/>
      <point x="814" y="330"/>
      <point x="814" y="247" type="curve" smooth="yes"/>
      <point x="814" y="131"/>
      <point x="694" y="37"/>
      <point x="551" y="37" type="curve" smooth="yes"/>
      <point x="409" y="37"/>
      <point x="292" y="172"/>
      <point x="292" y="337" type="curve" smooth="yes"/>
      <point x="292" y="435"/>
      <point x="337" y="581"/>
    </contour>
  </outline>
</glyph>
<glyph name="nine" format="2">
  <advance width="1250"/>
  <unicode hex="0039"/>
  <guideline x="849" y="1145" angle="90"/>
  <guideline x="344" y="1105" angle="270"/>
  <anchor x="629" y="-110" name="LL"/>
  <anchor x="574" y="1745" name="LU"/>
  <outline>
    <contour>
      <point x="588" y="1644" type="curve" smooth="yes"/>
      <point x="251" y="1644"/>
      <point x="129" y="1393"/>
      <point x="129" y="1080" type="curve" smooth="yes"/>
      <point x="129" y="795"/>
      <point x="296" y="601"/>
      <point x="568" y="601" type="curve" smooth="yes"/>
      <point x="748" y="601"/>
      <point x="978" y="734"/>
      <point x="978" y="914" type="curve"/>
      <point x="931" y="1042" type="line"/>
      <point x="951" y="878"/>
      <point x="753" y="701"/>
      <point x="578" y="701" type="curve" smooth="yes"/>
      <point x="414" y="701"/>
      <point x="300" y="811"/>
      <point x="300" y="1080" type="curve" smooth="yes"/>
      <point x="300" y="1310"/>
      <point x="344" y="1534"/>
      <point x="598" y="1534" type="curve" smooth="yes"/>
      <point x="836" y="1534"/>
      <point x="938" y="1347"/>
      <point x="938" y="814" type="curve" smooth="yes"/>
      <point x="938" y="342"/>
      <point x="854" y="69"/>
      <point x="559" y="69" type="curve" smooth="yes"/>
      <point x="372" y="69"/>
      <point x="312" y="139"/>
      <point x="300" y="214" type="curve"/>
      <point x="266" y="201" type="line"/>
      <point x="287" y="187"/>
      <point x="307" y="182"/>
      <point x="326" y="182" type="curve" smooth="yes"/>
      <point x="392" y="182"/>
      <point x="427" y="234"/>
      <point x="427" y="287" type="curve" smooth="yes"/>
      <point x="427" y="362"/>
      <point x="370" y="403"/>
      <point x="312" y="403" type="curve" smooth="yes"/>
      <point x="248" y="403"/>
      <point x="183" y="355"/>
      <point x="183" y="248" type="curve" smooth="yes"/>
      <point x="183" y="74"/>
      <point x="344" y="-31"/>
      <point x="591" y="-31" type="curve" smooth="yes"/>
      <point x="957" y="-31"/>
      <point x="1106" y="311"/>
      <point x="1106" y="795" type="curve" smooth="yes"/>
      <point x="1106" y="1204"/>
      <point x="1075" y="1644"/>
    </contour>
  </outline>
</glyph>
<glyph name="colon" format="2">
  <advance width="589"/>
  <unicode hex="003A"/>
  <outline>
    <contour>
      <point x="140" y="802" type="curve" smooth="yes"/>
      <point x="140" y="730"/>
      <point x="198" y="672"/>
      <point x="270" y="672" type="curve" smooth="yes"/>
      <point x="342" y="672"/>
      <point x="400" y="730"/>
      <point x="400" y="802" type="curve" smooth="yes"/>
      <point x="400" y="874"/>
      <point x="342" y="932"/>
      <point x="270" y="932" type="curve" smooth="yes"/>
      <point x="198" y="932"/>
      <point x="140" y="874"/>
    </contour>
    <contour>
      <point x="140" y="120" type="curve" smooth="yes"/>
      <point x="140" y="48"/>
      <point x="198" y="-10"/>
      <point x="270" y="-10" type="curve" smooth="yes"/>
      <point x="342" y="-10"/>
      <point x="400" y="48"/>
      <point x="400" y="120" type="curve" smooth="yes"/>
      <point x="400" y="192"/>
      <point x="342" y="250"/>
      <point x="270" y="250" type="curve" smooth="yes"/>
      <point x="198" y="250"/>
      <point x="140" y="192"/>
    </contour>
  </outline>
</glyph>
<glyph name="semicolon" format="2">
  <advance width="560"/>
  <unicode hex="003B"/>
  <outline>
    <contour>
      <point x="295" y="917" type="curve" smooth="yes"/>
      <point x="229" y="917"/>
      <point x="176" y="866"/>
      <point x="176" y="799" type="curve" smooth="yes"/>
      <point x="176" y="737"/>
      <point x="229" y="685"/>
      <point x="295" y="685" type="curve" smooth="yes"/>
      <point x="358" y="685"/>
      <point x="410" y="737"/>
      <point x="410" y="799" type="curve" smooth="yes"/>
      <point x="410" y="866"/>
      <point x="358" y="917"/>
    </contour>
    <contour>
      <point x="137" y="-351" type="line"/>
      <point x="313" y="-336"/>
      <point x="469" y="-199"/>
      <point x="469" y="-8" type="curve" smooth="yes"/>
      <point x="469" y="118"/>
      <point x="383" y="218"/>
      <point x="281" y="218" type="curve" smooth="yes"/>
      <point x="199" y="218"/>
      <point x="137" y="159"/>
      <point x="137" y="89" type="curve" smooth="yes"/>
      <point x="137" y="19"/>
      <point x="184" y="-33"/>
      <point x="239" y="-33" type="curve" smooth="yes"/>
      <point x="295" y="-33"/>
      <point x="298" y="0"/>
      <point x="336" y="0" type="curve" smooth="yes"/>
      <point x="355" y="0"/>
      <point x="368" y="-27"/>
      <point x="368" y="-59" type="curve" smooth="yes"/>
      <point x="368" y="-162"/>
      <point x="266" y="-266"/>
      <point x="137" y="-298" type="curve"/>
    </contour>
  </outline>
</glyph>
<glyph name="less" format="2">
  <advance width="1199"/>
  <unicode hex="003C"/>
  <outline>
    <contour>
      <point x="1079" y="414" type="line"/>
      <point x="1079" y="529" type="line"/>
      <point x="315" y="857" type="line"/>
      <point x="315" y="839" type="line"/>
      <point x="1079" y="1167" type="line"/>
      <point x="1079" y="1282" type="line"/>
      <point x="120" y="876" type="line"/>
      <point x="120" y="820" type="line"/>
    </contour>
  </outline>
</glyph>
<glyph name="equal" format="2">
  <advance width="1114"/>
  <unicode hex="003D"/>
  <outline>
    <contour>
      <point x="120" y="698" type="line"/>
      <point x="120" y="590" type="line"/>
      <point x="994" y="590" type="line"/>
      <point x="994" y="698" type="line"/>
    </contour>
    <contour>
      <point x="120" y="990" type="line"/>
      <point x="120" y="882" type="line"/>
      <point x="994" y="882" type="line"/>
      <point x="994" y="990" type="line"/>
    </contour>
  </outline>
</glyph>
<glyph name="greater" format="2">
  <advance width="1269"/>
  <unicode hex="003E"/>
  <outline>
    <contour>
      <point x="1168" y="759" type="line"/>
      <point x="79" y="1231" type="line"/>
      <point x="79" y="1134" type="line"/>
      <point x="1000" y="730" type="line"/>
      <point x="79" y="348" type="line"/>
      <point x="79" y="247" type="line"/>
      <point x="1168" y="700" type="line"/>
    </contour>
  </outline>
</glyph>
<glyph name="question" format="2">
  <advance width="1306"/>
  <unicode hex="003F"/>
  <guideline x="600" y="1660" angle="270"/>
  <outline>
    <component base="period" xOffset="268"/>
    <contour>
      <point x="513" y="428" type="curve"/>
      <point x="615" y="428" type="line"/>
      <point x="615" y="921"/>
      <point x="1071" y="899"/>
      <point x="1071" y="1296" type="curve" smooth="yes"/>
      <point x="1071" y="1568"/>
      <point x="857" y="1660"/>
      <point x="600" y="1660" type="curve" smooth="yes"/>
      <point x="346" y="1660"/>
      <point x="203" y="1505"/>
      <point x="203" y="1378" type="curve" smooth="yes"/>
      <point x="203" y="1294"/>
      <point x="247" y="1233"/>
      <point x="331" y="1233" type="curve" smooth="yes"/>
      <point x="405" y="1233"/>
      <point x="447" y="1282"/>
      <point x="447" y="1337" type="curve" smooth="yes"/>
      <point x="447" y="1429"/>
      <point x="344" y="1472"/>
      <point x="272" y="1425" type="curve"/>
      <point x="335" y="1407" type="line"/>
      <point x="340" y="1477"/>
      <point x="439" y="1555"/>
      <point x="589" y="1555" type="curve" smooth="yes"/>
      <point x="728" y="1555"/>
      <point x="893" y="1491"/>
      <point x="893" y="1288" type="curve" smooth="yes"/>
      <point x="893" y="1005"/>
      <point x="513" y="1002"/>
    </contour>
  </outline>
</glyph>
<glyph name="at" format="2">
  <advance width="2048"/>
  <unicode hex="0040"/>
  <outline>
    <contour>
      <point x="1283" y="813" type="line"/>
      <point x="1273" y="898"/>
      <point x="1216" y="992"/>
      <point x="1127" y="992" type="curve" smooth="yes"/>
      <point x="819" y="992"/>
      <point x="532" y="509"/>
      <point x="532" y="217" type="curve" smooth="yes"/>
      <point x="532" y="90"/>
      <point x="591" y="-33"/>
      <point x="726" y="-33" type="curve" smooth="yes"/>
      <point x="876" y="-33"/>
      <point x="1027" y="150"/>
      <point x="1131" y="273" type="curve"/>
      <point x="1115" y="214"/>
      <point x="1112" y="164"/>
      <point x="1112" y="127" type="curve" smooth="yes"/>
      <point x="1112" y="4"/>
      <point x="1206" y="-33"/>
      <point x="1325" y="-33" type="curve" smooth="yes"/>
      <point x="1599" y="-33"/>
      <point x="1857" y="322"/>
      <point x="1857" y="722" type="curve" smooth="yes"/>
      <point x="1857" y="1171"/>
      <point x="1553" y="1471"/>
      <point x="1134" y="1471" type="curve" smooth="yes"/>
      <point x="554" y="1471"/>
      <point x="127" y="1056"/>
      <point x="127" y="501" type="curve" smooth="yes"/>
      <point x="127" y="-30"/>
      <point x="476" y="-449"/>
      <point x="1052" y="-449" type="curve" smooth="yes"/>
      <point x="1524" y="-449"/>
      <point x="1786" y="-198"/>
      <point x="1961" y="198" type="curve"/>
      <point x="1898" y="198" type="line"/>
      <point x="1767" y="-120"/>
      <point x="1512" y="-385"/>
      <point x="1063" y="-385" type="curve" smooth="yes"/>
      <point x="557" y="-385"/>
      <point x="221" y="27"/>
      <point x="221" y="479" type="curve" smooth="yes"/>
      <point x="221" y="992"/>
      <point x="591" y="1411"/>
      <point x="1138" y="1411" type="curve" smooth="yes"/>
      <point x="1482" y="1411"/>
      <point x="1786" y="1119"/>
      <point x="1786" y="730" type="curve" smooth="yes"/>
      <point x="1786" y="378"/>
      <point x="1564" y="37"/>
      <point x="1351" y="37" type="curve" smooth="yes"/>
      <point x="1295" y="37"/>
      <point x="1276" y="86"/>
      <point x="1276" y="142" type="curve" smooth="yes"/>
      <point x="1276" y="198"/>
      <point x="1287" y="258"/>
      <point x="1302" y="299" type="curve"/>
      <point x="1501" y="969" type="line"/>
      <point x="1329" y="950" type="line"/>
    </contour>
    <contour>
      <point x="794" y="101" type="curve" smooth="yes"/>
      <point x="696" y="101"/>
      <point x="678" y="191"/>
      <point x="678" y="251" type="curve" smooth="yes"/>
      <point x="678" y="476"/>
      <point x="865" y="936"/>
      <point x="1100" y="936" type="curve" smooth="yes"/>
      <point x="1156" y="936"/>
      <point x="1235" y="861"/>
      <point x="1235" y="778" type="curve" smooth="yes"/>
      <point x="1235" y="535"/>
      <point x="1003" y="101"/>
    </contour>
  </outline>
</glyph>
<glyph name="A" format="2">
  <advance width="1587"/>
  <unicode hex="0041"/>
  <anchor x="734" y="-110" name="LL"/>
  <anchor x="734" y="1745" name="LU"/>
  <outline>
    <contour>
      <point x="34" y="0" type="line"/>
      <point x="467" y="0" type="line"/>
      <point x="467" y="75" type="line"/>
      <point x="214" y="127" type="line"/>
      <point x="271" y="39" type="line"/>
      <point x="791" y="1650" type="line"/>
      <point x="677" y="1650" type="line"/>
      <point x="158" y="45" type="line"/>
      <point x="246" y="137" type="line"/>
      <point x="34" y="75" type="line"/>
    </contour>
    <contour>
      <point x="422" y="658" type="line"/>
      <point x="402" y="558" type="line"/>
      <point x="1111" y="558" type="line"/>
      <point x="1089" y="658" type="line"/>
    </contour>
    <contour>
      <point x="1001" y="0" type="line"/>
      <point x="1504" y="0" type="line"/>
      <point x="1504" y="75" type="line"/>
      <point x="1282" y="137" type="line"/>
      <point x="1380" y="44" type="line"/>
      <point x="862" y="1650" type="line"/>
      <point x="702" y="1650" type="line"/>
      <point x="1222" y="39" type="line"/>
      <point x="1259" y="127" type="line"/>
      <point x="1001" y="75" type="line"/>
    </contour>
  </outline>
</glyph>
<glyph name="B" format="2">
  <advance width="1461"/>
  <unicode hex="0042"/>
  <anchor x="748" y="-110" name="LL"/>
  <anchor x="723" y="1745" name="LU"/>
  <outline>
    <contour>
      <point x="437" y="0" type="line"/>
      <point x="437" y="1650" type="line"/>
      <point x="125" y="1650" type="line"/>
      <point x="125" y="1575" type="line"/>
      <point x="275" y="1540" type="line"/>
      <point x="275" y="110" type="line"/>
      <point x="125" y="75" type="line"/>
      <point x="125" y="0" type="line"/>
    </contour>
    <contour>
      <point x="769" y="0" type="line"/>
      <point x="1139" y="0"/>
      <point x="1325" y="142"/>
      <point x="1325" y="466" type="curve" smooth="yes"/>
      <point x="1325" y="770"/>
      <point x="1026" y="926"/>
      <point x="739" y="926" type="curve" smooth="yes"/>
      <point x="292" y="926" type="line"/>
      <point x="292" y="821" type="line"/>
      <point x="751" y="821" type="line" smooth="yes"/>
      <point x="972" y="821"/>
      <point x="1154" y="720"/>
      <point x="1154" y="459" type="curve" smooth="yes"/>
      <point x="1154" y="258"/>
      <point x="1012" y="112"/>
      <point x="781" y="112" type="curve" smooth="yes"/>
      <point x="344" y="112" type="line"/>
      <point x="344" y="0" type="line"/>
    </contour>
    <contour>
      <point x="312" y="821" type="line"/>
      <point x="683" y="821" type="line" smooth="yes"/>
      <point x="1023" y="821"/>
      <point x="1258" y="965"/>
      <point x="1258" y="1265" type="curve" smooth="yes"/>
      <point x="1258" y="1565"/>
      <point x="1003" y="1650"/>
      <point x="653" y="1650" type="curve" smooth="yes"/>
      <point x="372" y="1650" type="line"/>
      <point x="372" y="1539" type="line"/>
      <point x="665" y="1539" type="line" smooth="yes"/>
      <point x="926" y="1539"/>
      <point x="1087" y="1485"/>
      <point x="1087" y="1258" type="curve" smooth="yes"/>
      <point x="1087" y="1045"/>
      <point x="891" y="930"/>
      <point x="655" y="930" type="curve" smooth="yes"/>
      <point x="312" y="930" type="line"/>
    </contour>
  </outline>
</glyph>
<glyph name="C" format="2">
  <advance width="1449"/>
  <unicode hex="0043"/>
  <outline>
    <contour>
      <point x="1306" y="1471" type="line"/>
      <point x="1269" y="1471" type="line"/>
      <point x="1262" y="1418"/>
      <point x="1224" y="1374"/>
      <point x="1190" y="1374" type="curve" smooth="yes"/>
      <point x="1131" y="1374"/>
      <point x="1078" y="1471"/>
      <point x="823" y="1471" type="curve" smooth="yes"/>
      <point x="416" y="1471"/>
      <point x="67" y="1127"/>
      <point x="67" y="700" type="curve" smooth="yes"/>
      <point x="67" y="295"/>
      <point x="382" y="-33"/>
      <point x="816" y="-33" type="curve" smooth="yes"/>
      <point x="1067" y="-33"/>
      <point x="1269" y="142"/>
      <point x="1377" y="337" type="curve"/>
      <point x="1343" y="356" type="line"/>
      <point x="1235" y="191"/>
      <point x="1075" y="48"/>
      <point x="890" y="48" type="curve" smooth="yes"/>
      <point x="576" y="48"/>
      <point x="326" y="289"/>
      <point x="326" y="692" type="curve" smooth="yes"/>
      <point x="326" y="887"/>
      <point x="374" y="1071"/>
      <point x="468" y="1198" type="curve" smooth="yes"/>
      <point x="565" y="1329"/>
      <point x="711" y="1400"/>
      <point x="857" y="1400" type="curve" smooth="yes"/>
      <point x="1071" y="1400"/>
      <point x="1265" y="1212"/>
      <point x="1291" y="984" type="curve"/>
      <point x="1343" y="984" type="line"/>
    </contour>
  </outline>
</glyph>
<glyph name="D" format="2">
  <advance width="1493"/>
  <unicode hex="0044"/>
  <guideline x="1079" y="-110" angle="270"/>
  <anchor x="767" y="-110" name="LL"/>
  <anchor x="767" y="1745" name="LU"/>
  <outline>
    <contour>
      <point x="768" y="0" type="line"/>
      <point x="1138" y="0"/>
      <point x="1358" y="226"/>
      <point x="1358" y="832" type="curve" smooth="yes"/>
      <point x="1358" y="1476"/>
      <point x="1138" y="1650"/>
      <point x="768" y="1650" type="curve" smooth="yes"/>
      <point x="377" y="1650" type="line"/>
      <point x="377" y="1539" type="line"/>
      <point x="770" y="1539" type="line" smooth="yes"/>
      <point x="1041" y="1539"/>
      <point x="1185" y="1352"/>
      <point x="1185" y="825" type="curve" smooth="yes"/>
      <point x="1185" y="334"/>
      <point x="1041" y="111"/>
      <point x="770" y="111" type="curve" smooth="yes"/>
      <point x="363" y="111" type="line"/>
      <point x="357" y="0" type="line"/>
    </contour>
    <contour>
      <point x="437" y="0" type="line"/>
      <point x="437" y="1650" type="line"/>
      <point x="125" y="1650" type="line"/>
      <point x="125" y="1575" type="line"/>
      <point x="275" y="1540" type="line"/>
      <point x="275" y="110" type="line"/>
      <point x="125" y="75" type="line"/>
      <point x="125" y="0" type="line"/>
    </contour>
  </outline>
</glyph>
<glyph name="E" format="2">
  <advance width="1336"/>
  <unicode hex="0045"/>
  <anchor x="776" y="-110" name="LL"/>
  <anchor x="776" y="1745" name="LU"/>
  <outline>
    <contour>
      <point x="955" y="944" type="line"/>
      <point x="381" y="944" type="line"/>
      <point x="381" y="834" type="line"/>
      <point x="955" y="834" type="line"/>
      <point x="990" y="674" type="line"/>
      <point x="1065" y="674" type="line"/>
      <point x="1065" y="1104" type="line"/>
      <point x="990" y="1104" type="line"/>
    </contour>
    <contour>
      <point x="1116" y="1540" type="line"/>
      <point x="1151" y="1350" type="line"/>
      <point x="1226" y="1350" type="line"/>
      <point x="1226" y="1650" type="line"/>
      <point x="377" y="1650" type="line"/>
      <point x="377" y="1540" type="line"/>
    </contour>
    <contour>
      <point x="1116" y="110" type="line"/>
      <point x="382" y="110" type="line"/>
      <point x="377" y="0" type="line"/>
      <point x="1226" y="0" type="line"/>
      <point x="1226" y="300" type="line"/>
      <point x="1151" y="300" type="line"/>
    </contour>
    <contour>
      <point x="437" y="0" type="line"/>
      <point x="437" y="1650" type="line"/>
      <point x="125" y="1650" type="line"/>
      <point x="125" y="1575" type="line"/>
      <point x="275" y="1540" type="line"/>
      <point x="275" y="110" type="line"/>
      <point x="125" y="75" type="line"/>
      <point x="125" y="0" type="line"/>
    </contour>
  </outline>
</glyph>
<glyph name="F" format="2">
  <advance width="1168"/>
  <unicode hex="0046"/>
  <outline>
    <contour>
      <point x="41" y="1437" type="line"/>
      <point x="41" y="1400" type="line"/>
      <point x="191" y="1400"/>
      <point x="247" y="1362"/>
      <point x="247" y="1209" type="curve" smooth="yes"/>
      <point x="247" y="229" type="line" smooth="yes"/>
      <point x="247" y="75"/>
      <point x="191" y="37"/>
      <point x="41" y="37" type="curve"/>
      <point x="41" y="0" type="line"/>
      <point x="666" y="0" type="line"/>
      <point x="666" y="37" type="line"/>
      <point x="520" y="37"/>
      <point x="464" y="75"/>
      <point x="464" y="229" type="curve" smooth="yes"/>
      <point x="464" y="749" type="line"/>
      <point x="688" y="749" type="line" smooth="yes"/>
      <point x="805" y="749"/>
      <point x="898" y="692"/>
      <point x="898" y="520" type="curve"/>
      <point x="936" y="520" type="line"/>
      <point x="936" y="1007" type="line"/>
      <point x="898" y="1007" type="line"/>
      <point x="898" y="869"/>
      <point x="801" y="819"/>
      <point x="682" y="819" type="curve" smooth="yes"/>
      <point x="464" y="819" type="line"/>
      <point x="464" y="1366" type="line"/>
      <point x="790" y="1366" type="line" smooth="yes"/>
      <point x="977" y="1366"/>
      <point x="1052" y="1269"/>
      <point x="1085" y="1096" type="curve"/>
      <point x="1123" y="1096" type="line"/>
      <point x="1108" y="1437" type="line"/>
    </contour>
  </outline>
</glyph>
<glyph name="G" format="2">
  <advance width="1459"/>
  <unicode hex="0047"/>
  <anchor x="744" y="-110" name="LL"/>
  <anchor x="744" y="1745" name="LU"/>
  <outline>
    <contour>
      <point x="787" y="1559" type="curve" smooth="yes"/>
      <point x="954" y="1559"/>
      <point x="1087" y="1493"/>
      <point x="1109" y="1420" type="curve"/>
      <point x="1143" y="1433" type="line"/>
      <point x="1122" y="1447"/>
      <point x="1103" y="1452"/>
      <point x="1085" y="1452" type="curve" smooth="yes"/>
      <point x="1026" y="1452"/>
      <point x="985" y="1392"/>
      <point x="985" y="1345" type="curve" smooth="yes"/>
      <point x="985" y="1290"/>
      <point x="1027" y="1231"/>
      <point x="1101" y="1231" type="curve" smooth="yes"/>
      <point x="1171" y="1231"/>
      <point x="1236" y="1288"/>
      <point x="1236" y="1386" type="curve" smooth="yes"/>
      <point x="1236" y="1528"/>
      <point x="1078" y="1665"/>
      <point x="799" y="1665" type="curve" smooth="yes"/>
      <point x="407" y="1665"/>
      <point x="135" y="1497"/>
      <point x="135" y="840" type="curve" smooth="yes"/>
      <point x="135" y="218"/>
      <point x="341" y="-20"/>
      <point x="758" y="-20" type="curve" smooth="yes"/>
      <point x="933" y="-20"/>
      <point x="1204" y="81"/>
      <point x="1204" y="181" type="curve" smooth="yes"/>
      <point x="1204" y="604" type="line"/>
      <point x="1354" y="639" type="line"/>
      <point x="1354" y="714" type="line"/>
      <point x="872" y="714" type="line"/>
      <point x="872" y="639" type="line"/>
      <point x="1042" y="604" type="line"/>
      <point x="1042" y="247" type="line" smooth="yes"/>
      <point x="1042" y="165"/>
      <point x="921" y="86"/>
      <point x="760" y="86" type="curve" smooth="yes"/>
      <point x="449" y="86"/>
      <point x="306" y="347"/>
      <point x="306" y="833" type="curve" smooth="yes"/>
      <point x="306" y="1332"/>
      <point x="441" y="1559"/>
    </contour>
  </outline>
</glyph>
<glyph name="H" format="2">
  <advance width="1611"/>
  <unicode hex="0048"/>
  <anchor x="805" y="-110" name="LL"/>
  <anchor x="805" y="1745" name="LU"/>
  <outline>
    <contour>
      <point x="343" y="819" type="line"/>
      <point x="1269" y="819" type="line"/>
      <point x="1269" y="921" type="line"/>
      <point x="343" y="921" type="line"/>
    </contour>
    <contour>
      <point x="437" y="1540" type="line"/>
      <point x="607" y="1575" type="line"/>
      <point x="607" y="1650" type="line"/>
      <point x="125" y="1650" type="line"/>
      <point x="125" y="1575" type="line"/>
      <point x="275" y="1540" type="line"/>
      <point x="275" y="110" type="line"/>
      <point x="125" y="75" type="line"/>
      <point x="125" y="0" type="line"/>
      <point x="607" y="0" type="line"/>
      <point x="607" y="75" type="line"/>
      <point x="437" y="110" type="line"/>
    </contour>
    <contour>
      <point x="1174" y="1540" type="line"/>
      <point x="1174" y="110" type="line"/>
      <point x="1004" y="75" type="line"/>
      <point x="1004" y="0" type="line"/>
      <point x="1486" y="0" type="line"/>
      <point x="1486" y="75" type="line"/>
      <point x="1336" y="110" type="line"/>
      <point x="1336" y="1540" type="line"/>
      <point x="1486" y="1575" type="line"/>
      <point x="1486" y="1650" type="line"/>
      <point x="1004" y="1650" type="line"/>
      <point x="1004" y="1575" type="line"/>
    </contour>
  </outline>
</glyph>
<glyph name="I" format="2">
  <advance width="792"/>
  <unicode hex="0049"/>
  <anchor x="391" y="-110" name="LL"/>
  <anchor x="391" y="1745" name="LU"/>
  <outline>
    <contour>
      <point x="472" y="1540" type="line"/>
      <point x="662" y="1575" type="line"/>
      <point x="662" y="1650" type="line"/>
      <point x="130" y="1650" type="line"/>
      <point x="130" y="1575" type="line"/>
      <point x="310" y="1540" type="line"/>
      <point x="310" y="110" type="line"/>
      <point x="130" y="75" type="line"/>
      <point x="130" y="0" type="line"/>
      <point x="652" y="0" type="line"/>
      <point x="652" y="75" type="line"/>
      <point x="472" y="110" type="line"/>
    </contour>
  </outline>
</glyph>
<glyph name="J" format="2">
  <advance width="1163"/>
  <unicode hex="004A"/>
  <anchor x="476" y="-110" name="LL"/>
  <anchor x="812" y="1745" name="LU"/>
  <outline>
    <contour>
      <point x="419" y="-7" type="curve" smooth="yes"/>
      <point x="674" y="-7"/>
      <point x="893" y="92"/>
      <point x="893" y="427" type="curve" smooth="yes"/>
      <point x="893" y="1540" type="line"/>
      <point x="1043" y="1575" type="line"/>
      <point x="1043" y="1650" type="line"/>
      <point x="561" y="1650" type="line"/>
      <point x="561" y="1575" type="line"/>
      <point x="731" y="1540" type="line"/>
      <point x="731" y="408" type="line" smooth="yes"/>
      <point x="731" y="257"/>
      <point x="637" y="103"/>
      <point x="437" y="103" type="curve" smooth="yes"/>
      <point x="279" y="103"/>
      <point x="196" y="158"/>
      <point x="173" y="226" type="curve" smooth="yes"/>
      <point x="171" y="230"/>
      <point x="173" y="237"/>
      <point x="172" y="241" type="curve"/>
      <point x="135" y="225" type="line"/>
      <point x="155" y="212"/>
      <point x="174" y="206"/>
      <point x="192" y="206" type="curve" smooth="yes"/>
      <point x="251" y="205"/>
      <point x="293" y="266"/>
      <point x="293" y="313" type="curve" smooth="yes"/>
      <point x="293" y="368"/>
      <point x="251" y="427"/>
      <point x="177" y="427" type="curve" smooth="yes"/>
      <point x="107" y="427"/>
      <point x="42" y="370"/>
      <point x="42" y="272" type="curve" smooth="yes"/>
      <point x="42" y="110"/>
      <point x="209" y="-7"/>
    </contour>
  </outline>
</glyph>
<glyph name="K" format="2">
  <advance width="1594"/>
  <unicode hex="004B"/>
  <outline>
    <contour>
      <point x="247" y="229" type="line" smooth="yes"/>
      <point x="247" y="75"/>
      <point x="191" y="37"/>
      <point x="41" y="37" type="curve"/>
      <point x="41" y="0" type="line"/>
      <point x="667" y="0" type="line"/>
      <point x="667" y="37" type="line"/>
      <point x="521" y="37"/>
      <point x="465" y="75"/>
      <point x="465" y="229" type="curve" smooth="yes"/>
      <point x="465" y="731" type="line"/>
      <point x="960" y="232" type="line" smooth="yes"/>
      <point x="1012" y="180"/>
      <point x="1042" y="135"/>
      <point x="1042" y="112" type="curve" smooth="yes"/>
      <point x="1042" y="75"/>
      <point x="1020" y="37"/>
      <point x="941" y="37" type="curve"/>
      <point x="941" y="0" type="line"/>
      <point x="1612" y="0" type="line"/>
      <point x="1612" y="37" type="line"/>
      <point x="1462" y="37"/>
      <point x="1425" y="57"/>
      <point x="1230" y="251" type="curve" smooth="yes"/>
      <point x="645" y="832" type="line"/>
      <point x="1072" y="1234" type="line" smooth="yes"/>
      <point x="1203" y="1357"/>
      <point x="1290" y="1399"/>
      <point x="1421" y="1399" type="curve"/>
      <point x="1421" y="1440" type="line"/>
      <point x="889" y="1440" type="line"/>
      <point x="889" y="1402" type="line"/>
      <point x="1001" y="1402"/>
      <point x="1024" y="1372"/>
      <point x="1024" y="1350" type="curve" smooth="yes"/>
      <point x="1024" y="1309"/>
      <point x="962" y="1251"/>
      <point x="926" y="1219" type="curve" smooth="yes"/>
      <point x="465" y="802" type="line"/>
      <point x="465" y="1211" type="line" smooth="yes"/>
      <point x="465" y="1365"/>
      <point x="521" y="1402"/>
      <point x="667" y="1402" type="curve"/>
      <point x="667" y="1440" type="line"/>
      <point x="41" y="1440" type="line"/>
      <point x="41" y="1402" type="line"/>
      <point x="191" y="1402"/>
      <point x="247" y="1365"/>
      <point x="247" y="1211" type="curve" smooth="yes"/>
    </contour>
  </outline>
</glyph>
<glyph name="L" format="2">
  <advance width="1324"/>
  <unicode hex="004C"/>
  <anchor x="803" y="-110" name="LL"/>
  <anchor x="356" y="1745" name="LU"/>
  <outline>
    <contour>
      <point x="385" y="0" type="line"/>
      <point x="1244" y="0" type="line"/>
      <point x="1244" y="306" type="line"/>
      <point x="1159" y="306" type="line"/>
      <point x="1124" y="116" type="line"/>
      <point x="390" y="116" type="line"/>
    </contour>
    <contour>
      <point x="437" y="0" type="line"/>
      <point x="437" y="1540" type="line"/>
      <point x="607" y="1575" type="line"/>
      <point x="607" y="1650" type="line"/>
      <point x="125" y="1650" type="line"/>
      <point x="125" y="1575" type="line"/>
      <point x="275" y="1540" type="line"/>
      <point x="275" y="110" type="line"/>
      <point x="125" y="75" type="line"/>
      <point x="125" y="0" type="line"/>
    </contour>
  </outline>
</glyph>
<glyph name="M" format="2">
  <advance width="1926"/>
  <unicode hex="004D"/>
  <guideline x="1306" y="867" angle="69.5585"/>
  <anchor x="966" y="-110" name="LL"/>
  <anchor x="964" y="1745" name="LU"/>
  <outline>
    <contour>
      <point x="1489" y="110" type="line"/>
      <point x="1319" y="75" type="line"/>
      <point x="1319" y="0" type="line"/>
      <point x="1801" y="0" type="line"/>
      <point x="1801" y="75" type="line"/>
      <point x="1651" y="110" type="line"/>
      <point x="1651" y="1540" type="line"/>
      <point x="1801" y="1575" type="line"/>
      <point x="1801" y="1650" type="line"/>
      <point x="1489" y="1650" type="line"/>
    </contour>
    <contour>
      <point x="270" y="1650" type="line"/>
      <point x="872" y="0" type="line"/>
      <point x="908" y="0" type="line"/>
      <point x="976" y="161" type="line"/>
      <point x="435" y="1650" type="line"/>
    </contour>
    <contour>
      <point x="1498" y="1650" type="line"/>
      <point x="883" y="0" type="line"/>
      <point x="1010" y="0" type="line"/>
      <point x="1547" y="1436" type="line"/>
      <point x="1540" y="1650" type="line"/>
    </contour>
    <contour>
      <point x="395" y="110" type="line"/>
      <point x="395" y="1650" type="line"/>
      <point x="125" y="1650" type="line"/>
      <point x="125" y="1575" type="line"/>
      <point x="275" y="1540" type="line"/>
      <point x="275" y="110" type="line"/>
      <point x="125" y="75" type="line"/>
      <point x="125" y="0" type="line"/>
      <point x="555" y="0" type="line"/>
      <point x="555" y="75" type="line"/>
    </contour>
  </outline>
</glyph>
<glyph name="N" format="2">
  <advance width="1594"/>
  <unicode hex="004E"/>
  <anchor x="804" y="-110" name="LL"/>
  <anchor x="804" y="1745" name="LU"/>
  <outline>
    <contour>
      <point x="390" y="110" type="line"/>
      <point x="390" y="1650" type="line"/>
      <point x="120" y="1650" type="line"/>
      <point x="120" y="1575" type="line"/>
      <point x="270" y="1540" type="line"/>
      <point x="270" y="110" type="line"/>
      <point x="120" y="75" type="line"/>
      <point x="120" y="0" type="line"/>
      <point x="560" y="0" type="line"/>
      <point x="560" y="75" type="line"/>
    </contour>
    <contour>
      <point x="1336" y="1540" type="line"/>
      <point x="1486" y="1575" type="line"/>
      <point x="1486" y="1650" type="line"/>
      <point x="1046" y="1650" type="line"/>
      <point x="1046" y="1575" type="line"/>
      <point x="1216" y="1540" type="line"/>
      <point x="1216" y="0" type="line"/>
      <point x="1336" y="0" type="line"/>
    </contour>
    <contour>
      <point x="260" y="1650" type="line"/>
      <point x="1136" y="0" type="line"/>
      <point x="1262" y="0" type="line"/>
      <point x="1262" y="92" type="line"/>
      <point x="435" y="1650" type="line"/>
    </contour>
  </outline>
</glyph>
<glyph name="O" format="2">
  <advance width="1506"/>
  <unicode hex="004F"/>
  <anchor x="753" y="-110" name="LL"/>
  <anchor x="753" y="1775" name="LU"/>
  <outline>
    <contour>
      <point x="753" y="-20" type="curve" smooth="yes"/>
      <point x="1178" y="-20"/>
      <point x="1371" y="207"/>
      <point x="1371" y="823" type="curve" smooth="yes"/>
      <point x="1371" y="1439"/>
      <point x="1178" y="1666"/>
      <point x="753" y="1666" type="curve" smooth="yes"/>
      <point x="328" y="1666"/>
      <point x="135" y="1439"/>
      <point x="135" y="823" type="curve" smooth="yes"/>
      <point x="135" y="207"/>
      <point x="328" y="-20"/>
    </contour>
    <contour>
      <point x="753" y="96" type="curve" smooth="yes"/>
      <point x="427" y="96"/>
      <point x="306" y="338"/>
      <point x="306" y="823" type="curve" smooth="yes"/>
      <point x="306" y="1308"/>
      <point x="427" y="1550"/>
      <point x="753" y="1550" type="curve" smooth="yes"/>
      <point x="1079" y="1550"/>
      <point x="1200" y="1308"/>
      <point x="1200" y="823" type="curve" smooth="yes"/>
      <point x="1200" y="338"/>
      <point x="1079" y="96"/>
    </contour>
  </outline>
</glyph>
<glyph name="P" format="2">
  <advance width="1388"/>
  <unicode hex="0050"/>
  <guideline x="1003" y="-110" angle="270"/>
  <anchor x="729" y="-110" name="LL"/>
  <anchor x="729" y="1745" name="LU"/>
  <outline>
    <contour>
      <point x="607" y="0" type="line"/>
      <point x="607" y="75" type="line"/>
      <point x="437" y="110" type="line"/>
      <point x="437" y="1650" type="line"/>
      <point x="125" y="1650" type="line"/>
      <point x="125" y="1575" type="line"/>
      <point x="275" y="1540" type="line"/>
      <point x="275" y="110" type="line"/>
      <point x="125" y="75" type="line"/>
      <point x="125" y="0" type="line"/>
    </contour>
    <contour>
      <point x="280" y="785" type="line"/>
      <point x="668" y="785" type="line" smooth="yes"/>
      <point x="998" y="785"/>
      <point x="1263" y="883"/>
      <point x="1263" y="1223" type="curve" smooth="yes"/>
      <point x="1263" y="1577"/>
      <point x="1008" y="1650"/>
      <point x="668" y="1650" type="curve" smooth="yes"/>
      <point x="377" y="1650" type="line"/>
      <point x="377" y="1549" type="line"/>
      <point x="690" y="1549" type="line" smooth="yes"/>
      <point x="951" y="1549"/>
      <point x="1092" y="1483"/>
      <point x="1092" y="1216" type="curve" smooth="yes"/>
      <point x="1092" y="973"/>
      <point x="946" y="886"/>
      <point x="700" y="886" type="curve" smooth="yes"/>
      <point x="280" y="886" type="line"/>
    </contour>
  </outline>
</glyph>
<glyph name="Q" format="2">
  <advance width="1545"/>
  <unicode hex="0051"/>
  <anchor x="753" y="-110" name="LL"/>
  <anchor x="753" y="1775" name="LU"/>
  <outline>
    <component base="O"/>
    <contour>
      <point x="1347" y="-356" type="curve" smooth="yes"/>
      <point x="1448" y="-356"/>
      <point x="1553" y="-278"/>
      <point x="1553" y="-151" type="curve" smooth="yes"/>
      <point x="1553" y="-58"/>
      <point x="1486" y="4"/>
      <point x="1410" y="4" type="curve" smooth="yes"/>
      <point x="1353" y="4"/>
      <point x="1291" y="-42"/>
      <point x="1291" y="-121" type="curve" smooth="yes"/>
      <point x="1291" y="-174"/>
      <point x="1322" y="-230"/>
      <point x="1395" y="-230" type="curve"/>
      <point x="1365" y="-196" type="line"/>
      <point x="1352" y="-187"/>
      <point x="1321" y="-232"/>
      <point x="1283" y="-232" type="curve" smooth="yes"/>
      <point x="1242" y="-232"/>
      <point x="1193" y="-158"/>
      <point x="1152" y="-102" type="curve" smooth="yes"/>
      <point x="1070" y="9"/>
      <point x="986" y="60"/>
      <point x="791" y="60" type="curve"/>
      <point x="801" y="-16" type="line"/>
      <point x="909" y="-16"/>
      <point x="993" y="-62"/>
      <point x="1071" y="-168" type="curve" smooth="yes"/>
      <point x="1156" y="-284"/>
      <point x="1233" y="-356"/>
    </contour>
  </outline>
</glyph>
<glyph name="R" format="2">
  <advance width="1481"/>
  <unicode hex="0052"/>
  <guideline x="1003" y="-110" angle="270"/>
  <guideline x="1130" y="454" angle="303.3749"/>
  <guideline x="1552" y="125" angle="0"/>
  <anchor x="722" y="-110" name="LL"/>
  <anchor x="722" y="1745" name="LU"/>
  <outline>
    <contour>
      <point x="1221" y="133" type="line"/>
      <point x="981" y="75" type="line"/>
      <point x="981" y="0" type="line"/>
      <point x="1487" y="0" type="line"/>
      <point x="1487" y="75" type="line"/>
      <point x="1248" y="145" type="line"/>
      <point x="1373" y="63" type="line"/>
      <point x="843" y="859" type="line"/>
      <point x="658" y="854" type="line"/>
      <point x="1185" y="54" type="line"/>
    </contour>
    <contour>
      <point x="607" y="0" type="line"/>
      <point x="607" y="75" type="line"/>
      <point x="437" y="110" type="line"/>
      <point x="437" y="1650" type="line"/>
      <point x="125" y="1650" type="line"/>
      <point x="125" y="1575" type="line"/>
      <point x="275" y="1540" type="line"/>
      <point x="275" y="110" type="line"/>
      <point x="125" y="75" type="line"/>
      <point x="125" y="0" type="line"/>
    </contour>
    <contour>
      <point x="317" y="823" type="line"/>
      <point x="658" y="823" type="line" smooth="yes"/>
      <point x="968" y="823"/>
      <point x="1263" y="925"/>
      <point x="1263" y="1245" type="curve" smooth="yes"/>
      <point x="1263" y="1565"/>
      <point x="1008" y="1650"/>
      <point x="648" y="1650" type="curve" smooth="yes"/>
      <point x="377" y="1650" type="line"/>
      <point x="377" y="1544" type="line"/>
      <point x="680" y="1544" type="line" smooth="yes"/>
      <point x="951" y="1544"/>
      <point x="1092" y="1485"/>
      <point x="1092" y="1238" type="curve" smooth="yes"/>
      <point x="1092" y="1005"/>
      <point x="916" y="929"/>
      <point x="700" y="929" type="curve" smooth="yes"/>
      <point x="317" y="929" type="line"/>
    </contour>
  </outline>
</glyph>
<glyph name="S" format="2">
  <advance width="1371"/>
  <unicode hex="0053"/>
  <anchor x="686" y="-110" name="LL"/>
  <anchor x="686" y="1745" name="LU"/>
  <outline>
    <contour>
      <point x="637" y="-20" type="curve" smooth="yes"/>
      <point x="1044" y="-20"/>
      <point x="1241" y="184"/>
      <point x="1241" y="430" type="curve" smooth="yes"/>
      <point x="1241" y="901"/>
      <point x="326" y="904"/>
      <point x="326" y="1291" type="curve" smooth="yes"/>
      <point x="326" y="1409"/>
      <point x="466" y="1559"/>
      <point x="739" y="1559" type="curve" smooth="yes"/>
      <point x="906" y="1559"/>
      <point x="1039" y="1493"/>
      <point x="1061" y="1420" type="curve"/>
      <point x="1095" y="1433" type="line"/>
      <point x="1074" y="1447"/>
      <point x="1055" y="1452"/>
      <point x="1036" y="1452" type="curve" smooth="yes"/>
      <point x="978" y="1452"/>
      <point x="937" y="1392"/>
      <point x="937" y="1345" type="curve" smooth="yes"/>
      <point x="937" y="1290"/>
      <point x="979" y="1231"/>
      <point x="1053" y="1231" type="curve" smooth="yes"/>
      <point x="1123" y="1231"/>
      <point x="1188" y="1288"/>
      <point x="1188" y="1386" type="curve" smooth="yes"/>
      <point x="1188" y="1528"/>
      <point x="1030" y="1665"/>
      <point x="751" y="1665" type="curve" smooth="yes"/>
      <point x="394" y="1665"/>
      <point x="173" y="1496"/>
      <point x="173" y="1270" type="curve" smooth="yes"/>
      <point x="173" y="758"/>
      <point x="1086" y="781"/>
      <point x="1086" y="395" type="curve" smooth="yes"/>
      <point x="1086" y="250"/>
      <point x="944" y="86"/>
      <point x="641" y="86" type="curve" smooth="yes"/>
      <point x="444" y="86"/>
      <point x="262" y="176"/>
      <point x="262" y="235" type="curve"/>
      <point x="223" y="222" type="line"/>
      <point x="248" y="206"/>
      <point x="261" y="203"/>
      <point x="282" y="203" type="curve" smooth="yes"/>
      <point x="335" y="203"/>
      <point x="381" y="266"/>
      <point x="381" y="310" type="curve" smooth="yes"/>
      <point x="381" y="365"/>
      <point x="339" y="424"/>
      <point x="265" y="424" type="curve" smooth="yes"/>
      <point x="195" y="424"/>
      <point x="130" y="367"/>
      <point x="130" y="269" type="curve" smooth="yes"/>
      <point x="130" y="127"/>
      <point x="298" y="-20"/>
    </contour>
  </outline>
</glyph>
<glyph name="T" format="2">
  <advance width="1249"/>
  <unicode hex="0054"/>
  <outline>
    <contour>
      <point x="37" y="1440" type="line"/>
      <point x="22" y="1099" type="line"/>
      <point x="60" y="1099" type="line"/>
      <point x="94" y="1271"/>
      <point x="169" y="1369"/>
      <point x="356" y="1369" type="curve" smooth="yes"/>
      <point x="514" y="1369" type="line"/>
      <point x="514" y="229" type="line" smooth="yes"/>
      <point x="514" y="75"/>
      <point x="457" y="37"/>
      <point x="307" y="37" type="curve"/>
      <point x="307" y="0" type="line"/>
      <point x="937" y="0" type="line"/>
      <point x="937" y="37" type="line"/>
      <point x="787" y="37"/>
      <point x="731" y="75"/>
      <point x="731" y="229" type="curve" smooth="yes"/>
      <point x="731" y="1369" type="line"/>
      <point x="889" y="1369" type="line" smooth="yes"/>
      <point x="1076" y="1369"/>
      <point x="1151" y="1271"/>
      <point x="1185" y="1099" type="curve"/>
      <point x="1222" y="1099" type="line"/>
      <point x="1207" y="1440" type="line"/>
    </contour>
  </outline>
</glyph>
<glyph name="U" format="2">
  <advance width="1657"/>
  <unicode hex="0055"/>
  <anchor x="857" y="-110" name="LL"/>
  <anchor x="857" y="1745" name="LU"/>
  <outline>
    <contour>
      <point x="1271" y="1540" type="line"/>
      <point x="1271" y="611" type="line" smooth="yes"/>
      <point x="1271" y="227"/>
      <point x="1110" y="96"/>
      <point x="857" y="96" type="curve" smooth="yes"/>
      <point x="566" y="96"/>
      <point x="430" y="227"/>
      <point x="430" y="611" type="curve" smooth="yes"/>
      <point x="430" y="1540" type="line"/>
      <point x="600" y="1575" type="line"/>
      <point x="600" y="1650" type="line"/>
      <point x="120" y="1650" type="line"/>
      <point x="120" y="1575" type="line"/>
      <point x="270" y="1540" type="line"/>
      <point x="270" y="615" type="line" smooth="yes"/>
      <point x="270" y="117"/>
      <point x="451" y="-20"/>
      <point x="851" y="-20" type="curve" smooth="yes"/>
      <point x="1163" y="-20"/>
      <point x="1387" y="117"/>
      <point x="1387" y="615" type="curve" smooth="yes"/>
      <point x="1387" y="1540" type="line"/>
      <point x="1537" y="1575" type="line"/>
      <point x="1537" y="1650" type="line"/>
      <point x="1101" y="1650" type="line"/>
      <point x="1101" y="1575" type="line"/>
    </contour>
  </outline>
</glyph>
<glyph name="V" format="2">
  <advance width="1509"/>
  <unicode hex="0056"/>
  <guideline x="785" y="2085" angle="270"/>
  <anchor x="785" y="-110" name="LL"/>
  <anchor x="785" y="1745" name="LU"/>
  <outline>
    <contour>
      <point x="1220" y="1530" type="line"/>
      <point x="727" y="0" type="line"/>
      <point x="859" y="0" type="line"/>
      <point x="1359" y="1525" type="line"/>
      <point x="1509" y="1565" type="line"/>
      <point x="1509" y="1650" type="line"/>
      <point x="1050" y="1650" type="line"/>
      <point x="1050" y="1565" type="line"/>
    </contour>
    <contour>
      <point x="350" y="1530" type="line"/>
      <point x="520" y="1565" type="line"/>
      <point x="520" y="1650" type="line"/>
      <point x="0" y="1650" type="line"/>
      <point x="0" y="1565" type="line"/>
      <point x="150" y="1525" type="line"/>
      <point x="648" y="0" type="line"/>
      <point x="845" y="0" type="line"/>
    </contour>
  </outline>
</glyph>
<glyph name="W" format="2">
  <advance width="2382"/>
  <unicode hex="0057"/>
  <guideline x="1193" y="2085" angle="270"/>
  <anchor x="1188" y="-110" name="LL"/>
  <anchor x="1141" y="1745" name="LU"/>
  <outline>
    <contour>
      <point x="495" y="1650" type="line"/>
      <point x="10" y="1650" type="line"/>
      <point x="10" y="1575" type="line"/>
      <point x="240" y="1514" type="line"/>
      <point x="134" y="1604" type="line"/>
      <point x="655" y="0" type="line"/>
      <point x="814" y="0" type="line"/>
      <point x="300" y="1609" type="line"/>
      <point x="244" y="1523" type="line"/>
      <point x="495" y="1575" type="line"/>
    </contour>
    <contour>
      <point x="2373" y="1650" type="line"/>
      <point x="1927" y="1650" type="line"/>
      <point x="1927" y="1575" type="line"/>
      <point x="2184" y="1523" type="line"/>
      <point x="2122" y="1609" type="line"/>
      <point x="1603" y="0" type="line"/>
      <point x="1727" y="0" type="line"/>
      <point x="2249" y="1609" type="line"/>
      <point x="2136" y="1521" type="line"/>
      <point x="2373" y="1575" type="line"/>
    </contour>
    <contour>
      <point x="1383" y="1650" type="line"/>
      <point x="879" y="1650" type="line"/>
      <point x="879" y="1575" type="line"/>
      <point x="1130" y="1516" type="line"/>
      <point x="1023" y="1604" type="line"/>
      <point x="1547" y="0" type="line"/>
      <point x="1705" y="0" type="line"/>
      <point x="1188" y="1609" type="line"/>
      <point x="1132" y="1523" type="line"/>
      <point x="1383" y="1575" type="line"/>
    </contour>
    <contour>
      <point x="1168" y="1391" type="line"/>
      <point x="712" y="0" type="line"/>
      <point x="840" y="0" type="line"/>
      <point x="1240" y="1231" type="line"/>
    </contour>
  </outline>
</glyph>
<glyph name="X" format="2">
  <advance width="1425"/>
  <unicode hex="0058"/>
  <guideline x="676" y="2085" angle="270"/>
  <guideline x="373" y="1072" angle="57.8227"/>
  <guideline x="1053" y="697" angle="0"/>
  <anchor x="676" y="-110" name="LL"/>
  <anchor x="726" y="1745" name="LU"/>
  <outline>
    <contour>
      <point x="1144" y="129" type="line"/>
      <point x="912" y="75" type="line"/>
      <point x="912" y="0" type="line"/>
      <point x="1407" y="0" type="line"/>
      <point x="1407" y="75" type="line"/>
      <point x="1164" y="135" type="line"/>
      <point x="1291" y="53" type="line"/>
      <point x="317" y="1602" type="line"/>
      <point x="280" y="1519" type="line"/>
      <point x="502" y="1575" type="line"/>
      <point x="502" y="1650" type="line"/>
      <point x="18" y="1650" type="line"/>
      <point x="18" y="1575" type="line"/>
      <point x="260" y="1514" type="line"/>
      <point x="133" y="1597" type="line"/>
      <point x="1107" y="48" type="line"/>
    </contour>
    <contour>
      <point x="752" y="771" type="line"/>
      <point x="1279" y="1597" type="line"/>
      <point x="1152" y="1514" type="line"/>
      <point x="1394" y="1575" type="line"/>
      <point x="1394" y="1650" type="line"/>
      <point x="953" y="1650" type="line"/>
      <point x="953" y="1575" type="line"/>
      <point x="1185" y="1513" type="line"/>
      <point x="1148" y="1597" type="line"/>
      <point x="694" y="887" type="line"/>
      <point x="648" y="867" type="line"/>
      <point x="125" y="48" type="line"/>
      <point x="243" y="128" type="line"/>
      <point x="0" y="75" type="line"/>
      <point x="0" y="0" type="line"/>
      <point x="460" y="0" type="line"/>
      <point x="460" y="75" type="line"/>
      <point x="228" y="129" type="line"/>
      <point x="255" y="48" type="line"/>
      <point x="713" y="761" type="line"/>
    </contour>
  </outline>
</glyph>
<glyph name="Y" format="2">
  <advance width="1449"/>
  <unicode hex="0059"/>
  <guideline x="750" y="2085" angle="270"/>
  <guideline x="915" y="637" angle="0"/>
  <anchor x="727" y="-110" name="LL"/>
  <anchor x="750" y="1745" name="LU"/>
  <outline>
    <contour>
      <point x="1452" y="1650" type="line"/>
      <point x="978" y="1650" type="line"/>
      <point x="978" y="1575" type="line"/>
      <point x="1229" y="1523" type="line"/>
      <point x="1197" y="1603" type="line"/>
      <point x="654" y="595" type="line"/>
      <point x="790" y="595" type="line"/>
      <point x="1331" y="1598" type="line"/>
      <point x="1222" y="1514" type="line"/>
      <point x="1452" y="1575" type="line"/>
    </contour>
    <contour>
      <point x="530" y="1650" type="line"/>
      <point x="-3" y="1650" type="line"/>
      <point x="-3" y="1575" type="line"/>
      <point x="227" y="1514" type="line"/>
      <point x="126" y="1598" type="line"/>
      <point x="679" y="576" type="line"/>
      <point x="770" y="739" type="line"/>
      <point x="303" y="1603" type="line"/>
      <point x="279" y="1523" type="line"/>
      <point x="530" y="1575" type="line"/>
    </contour>
    <contour>
      <point x="808" y="110" type="line"/>
      <point x="808" y="684" type="line"/>
      <point x="646" y="684" type="line"/>
      <point x="646" y="110" type="line"/>
      <point x="476" y="75" type="line"/>
      <point x="476" y="0" type="line"/>
      <point x="978" y="0" type="line"/>
      <point x="978" y="75" type="line"/>
    </contour>
  </outline>
</glyph>
<glyph name="Z" format="2">
  <advance width="1316"/>
  <unicode hex="005A"/>
  <guideline x="547" y="807" angle="60.1462"/>
  <anchor x="658" y="-110" name="LL"/>
  <anchor x="658" y="1745" name="LU"/>
  <outline>
    <contour>
      <point x="288" y="43" type="line"/>
      <point x="1185" y="1604" type="line"/>
      <point x="1185" y="1650" type="line"/>
      <point x="124" y="1650" type="line"/>
      <point x="124" y="1334" type="line"/>
      <point x="209" y="1334" type="line"/>
      <point x="244" y="1534" type="line"/>
      <point x="1029" y="1534" type="line"/>
      <point x="1006" y="1607" type="line"/>
      <point x="115" y="54" type="line"/>
      <point x="110" y="0" type="line"/>
      <point x="1206" y="0" type="line"/>
      <point x="1206" y="318" type="line"/>
      <point x="1121" y="318" type="line"/>
      <point x="1086" y="116" type="line"/>
      <point x="265" y="116" type="line"/>
    </contour>
  </outline>
</glyph>
<glyph name="bracketleft" format="2">
  <advance width="645"/>
  <unicode hex="005B"/>
  <outline>
    <contour>
      <point x="150" y="-398" type="line"/>
      <point x="620" y="-398" type="line"/>
      <point x="620" y="-300" type="line"/>
      <point x="320" y="-300" type="line"/>
      <point x="320" y="1740" type="line"/>
      <point x="620" y="1740" type="line"/>
      <point x="620" y="1838" type="line"/>
      <point x="150" y="1838" type="line"/>
    </contour>
  </outline>
</glyph>
<glyph name="backslash" format="2">
  <advance width="1059"/>
  <unicode hex="005C"/>
  <outline>
    <contour>
      <point x="994" y="-150" type="line"/>
      <point x="183" y="1870" type="line"/>
      <point x="64" y="1870" type="line"/>
      <point x="875" y="-150" type="line"/>
    </contour>
  </outline>
</glyph>
<glyph name="bracketright" format="2">
  <advance width="655"/>
  <unicode hex="005D"/>
  <outline>
    <contour>
      <point x="507" y="-392" type="line"/>
      <point x="507" y="1810" type="line"/>
      <point x="25" y="1810" type="line"/>
      <point x="25" y="1714" type="line"/>
      <point x="319" y="1714" type="line"/>
      <point x="319" y="-295" type="line"/>
      <point x="25" y="-295" type="line"/>
      <point x="25" y="-392" type="line"/>
    </contour>
  </outline>
</glyph>
<glyph name="asciicircum" format="2">
  <advance width="1048"/>
  <unicode hex="005E"/>
  <outline>
    <contour>
      <point x="146" y="982" type="line"/>
      <point x="555" y="1673" type="line"/>
      <point x="493" y="1673" type="line"/>
      <point x="906" y="982" type="line"/>
      <point x="1021" y="982" type="line"/>
      <point x="557" y="1761" type="line"/>
      <point x="491" y="1761" type="line"/>
      <point x="27" y="982" type="line"/>
    </contour>
  </outline>
</glyph>
<glyph name="underscore" format="2">
  <advance width="1225"/>
  <unicode hex="005F"/>
  <outline>
    <contour>
      <point x="0" y="-37" type="line"/>
      <point x="0" y="-154" type="line"/>
      <point x="1225" y="-154" type="line"/>
      <point x="1225" y="-37" type="line"/>
    </contour>
  </outline>
</glyph>
<glyph name="grave" format="2">
  <advance width="426"/>
  <unicode hex="0060"/>
  <outline>
    <contour>
      <point x="23" y="1471" type="line"/>
      <point x="341" y="1096" type="line"/>
      <point x="401" y="1096" type="line"/>
      <point x="289" y="1471" type="line"/>
    </contour>
  </outline>
</glyph>
<glyph name="a" format="2">
  <advance width="1274"/>
  <unicode hex="0061"/>
  <guideline x="335" y="326" angle="270.3734"/>
  <anchor x="580" y="-110" name="LL"/>
  <anchor x="597" y="1350" name="LU"/>
  <anchor x="510" y="0" name="PB"/>
  <anchor x="520" y="0" name="def"/>
  <outline>
    <contour>
      <point x="447" y="-20" type="curve" smooth="yes"/>
      <point x="715" y="-20"/>
      <point x="896" y="148"/>
      <point x="926" y="226" type="curve"/>
      <point x="882" y="288" type="line"/>
      <point x="800" y="188"/>
      <point x="665" y="87"/>
      <point x="510" y="87" type="curve" smooth="yes"/>
      <point x="376" y="87"/>
      <point x="288" y="190"/>
      <point x="288" y="316" type="curve" smooth="yes"/>
      <point x="288" y="555"/>
      <point x="562" y="601"/>
      <point x="907" y="601" type="curve"/>
      <point x="907" y="701" type="line"/>
      <point x="460" y="701"/>
      <point x="130" y="648"/>
      <point x="130" y="305" type="curve" smooth="yes"/>
      <point x="130" y="99"/>
      <point x="298" y="-20"/>
    </contour>
    <contour>
      <point x="871" y="0" type="line"/>
      <point x="1171" y="0" type="line"/>
      <point x="1171" y="75" type="line"/>
      <point x="1021" y="110" type="line"/>
      <point x="1021" y="960" type="line" smooth="yes"/>
      <point x="1021" y="1171"/>
      <point x="880" y="1255"/>
      <point x="584" y="1255" type="curve" smooth="yes"/>
      <point x="311" y="1255"/>
      <point x="162" y="1140"/>
      <point x="162" y="1013" type="curve" smooth="yes"/>
      <point x="162" y="915"/>
      <point x="217" y="858"/>
      <point x="287" y="858" type="curve" smooth="yes"/>
      <point x="361" y="858"/>
      <point x="403" y="917"/>
      <point x="403" y="972" type="curve" smooth="yes"/>
      <point x="403" y="1033"/>
      <point x="333" y="1118"/>
      <point x="245" y="1060" type="curve"/>
      <point x="279" y="1047" type="line"/>
      <point x="294" y="1100"/>
      <point x="423" y="1155"/>
      <point x="560" y="1155" type="curve" smooth="yes"/>
      <point x="777" y="1155"/>
      <point x="871" y="1091"/>
      <point x="871" y="971" type="curve" smooth="yes"/>
    </contour>
  </outline>
</glyph>
<glyph name="b" format="2">
  <advance width="1282"/>
  <unicode hex="0062"/>
  <anchor x="674" y="-110" name="LL"/>
  <anchor x="674" y="1880" name="LU"/>
  <anchor x="511" y="0" name="PB"/>
  <anchor x="581" y="200" name="def"/>
  <outline>
    <contour>
      <point x="792" y="1255" type="curve" smooth="yes"/>
      <point x="599" y="1255"/>
      <point x="445" y="1170"/>
      <point x="338" y="1091" type="curve"/>
      <point x="368" y="1014" type="line"/>
      <point x="517" y="1110"/>
      <point x="620" y="1146"/>
      <point x="746" y="1146" type="curve" smooth="yes"/>
      <point x="897" y="1146"/>
      <point x="989" y="1058"/>
      <point x="989" y="639" type="curve" smooth="yes"/>
      <point x="989" y="274"/>
      <point x="848" y="76"/>
      <point x="637" y="76" type="curve" smooth="yes"/>
      <point x="486" y="76"/>
      <point x="380" y="163"/>
      <point x="380" y="222" type="curve"/>
      <point x="230" y="184" type="line"/>
      <point x="230" y="97"/>
      <point x="393" y="-20"/>
      <point x="636" y="-20" type="curve" smooth="yes"/>
      <point x="913" y="-20"/>
      <point x="1147" y="149"/>
      <point x="1147" y="639" type="curve" smooth="yes"/>
      <point x="1147" y="1152"/>
      <point x="982" y="1255"/>
    </contour>
    <contour>
      <point x="380" y="71" type="line"/>
      <point x="380" y="1793" type="line"/>
      <point x="80" y="1793" type="line"/>
      <point x="80" y="1718" type="line"/>
      <point x="230" y="1683" type="line"/>
      <point x="230" y="184" type="line"/>
    </contour>
  </outline>
</glyph>
<glyph name="c" format="2">
  <advance width="952"/>
  <unicode hex="0063"/>
  <anchor x="520" y="0" name="PB"/>
  <anchor x="560" y="0" name="def"/>
  <outline>
    <contour>
      <point x="484" y="-23" type="curve" smooth="yes"/>
      <point x="690" y="-23"/>
      <point x="832" y="124"/>
      <point x="892" y="367" type="curve"/>
      <point x="851" y="382" type="line"/>
      <point x="795" y="244"/>
      <point x="716" y="127"/>
      <point x="551" y="127" type="curve" smooth="yes"/>
      <point x="367" y="127"/>
      <point x="244" y="337"/>
      <point x="244" y="585" type="curve" smooth="yes"/>
      <point x="244" y="772"/>
      <point x="337" y="922"/>
      <point x="499" y="922" type="curve" smooth="yes"/>
      <point x="619" y="922"/>
      <point x="649" y="855"/>
      <point x="649" y="761" type="curve" smooth="yes"/>
      <point x="649" y="709"/>
      <point x="690" y="652"/>
      <point x="750" y="652" type="curve" smooth="yes"/>
      <point x="810" y="652"/>
      <point x="870" y="701"/>
      <point x="870" y="761" type="curve" smooth="yes"/>
      <point x="870" y="892"/>
      <point x="727" y="994"/>
      <point x="529" y="994" type="curve" smooth="yes"/>
      <point x="274" y="994"/>
      <point x="67" y="757"/>
      <point x="67" y="461" type="curve" smooth="yes"/>
      <point x="67" y="195"/>
      <point x="255" y="-23"/>
    </contour>
  </outline>
</glyph>
<glyph name="d" format="2">
  <advance width="1282"/>
  <unicode hex="0064"/>
  <anchor x="608" y="-110" name="LL"/>
  <anchor x="608" y="1880" name="LU"/>
  <anchor x="510" y="0" name="PB"/>
  <anchor x="550" y="200" name="def"/>
  <outline>
    <contour>
      <point x="1052" y="1793" type="line"/>
      <point x="732" y="1793" type="line"/>
      <point x="732" y="1718" type="line"/>
      <point x="902" y="1683" type="line"/>
      <point x="902" y="2" type="line"/>
      <point x="1202" y="2" type="line"/>
      <point x="1202" y="77" type="line"/>
      <point x="1052" y="112" type="line"/>
    </contour>
    <contour>
      <point x="485" y="-20" type="curve" smooth="yes"/>
      <point x="728" y="-20"/>
      <point x="934" y="158"/>
      <point x="964" y="236" type="curve"/>
      <point x="920" y="298" type="line"/>
      <point x="838" y="198"/>
      <point x="679" y="87"/>
      <point x="543" y="87" type="curve" smooth="yes"/>
      <point x="382" y="87"/>
      <point x="293" y="186"/>
      <point x="293" y="605" type="curve" smooth="yes"/>
      <point x="293" y="929"/>
      <point x="383" y="1140"/>
      <point x="574" y="1140" type="curve" smooth="yes"/>
      <point x="685" y="1140"/>
      <point x="860" y="1061"/>
      <point x="909" y="962" type="curve"/>
      <point x="964" y="1047" type="line"/>
      <point x="877" y="1173"/>
      <point x="678" y="1255"/>
      <point x="545" y="1255" type="curve" smooth="yes"/>
      <point x="288" y="1255"/>
      <point x="135" y="1040"/>
      <point x="135" y="605" type="curve" smooth="yes"/>
      <point x="135" y="82"/>
      <point x="295" y="-20"/>
    </contour>
  </outline>
</glyph>
<glyph name="e" format="2">
  <advance width="979"/>
  <unicode hex="0065"/>
  <outline>
    <contour>
      <point x="502" y="-23" type="curve" smooth="yes"/>
      <point x="682" y="-23"/>
      <point x="870" y="142"/>
      <point x="922" y="341" type="curve"/>
      <point x="881" y="349" type="line"/>
      <point x="851" y="225"/>
      <point x="701" y="127"/>
      <point x="551" y="127" type="curve" smooth="yes"/>
      <point x="367" y="127"/>
      <point x="236" y="337"/>
      <point x="236" y="600" type="curve"/>
      <point x="896" y="600" type="line"/>
      <point x="896" y="817"/>
      <point x="735" y="994"/>
      <point x="502" y="994" type="curve" smooth="yes"/>
      <point x="240" y="994"/>
      <point x="67" y="765"/>
      <point x="67" y="450" type="curve" smooth="yes"/>
      <point x="67" y="191"/>
      <point x="262" y="-23"/>
    </contour>
    <contour>
      <point x="236" y="652" type="line"/>
      <point x="247" y="799"/>
      <point x="341" y="922"/>
      <point x="450" y="922" type="curve" smooth="yes"/>
      <point x="577" y="922"/>
      <point x="679" y="799"/>
      <point x="679" y="652" type="curve"/>
    </contour>
  </outline>
</glyph>
<glyph name="f" format="2">
  <advance width="619"/>
  <unicode hex="0066"/>
  <outline>
    <contour>
      <point x="401" y="971" type="line"/>
      <point x="401" y="1219" type="line" smooth="yes"/>
      <point x="401" y="1320"/>
      <point x="472" y="1402"/>
      <point x="547" y="1402" type="curve" smooth="yes"/>
      <point x="690" y="1402"/>
      <point x="649" y="1219"/>
      <point x="780" y="1219" type="curve" smooth="yes"/>
      <point x="829" y="1219"/>
      <point x="866" y="1245"/>
      <point x="866" y="1301" type="curve" smooth="yes"/>
      <point x="866" y="1421"/>
      <point x="731" y="1474"/>
      <point x="555" y="1474" type="curve" smooth="yes"/>
      <point x="371" y="1474"/>
      <point x="225" y="1316"/>
      <point x="225" y="1117" type="curve" smooth="yes"/>
      <point x="225" y="971" type="line"/>
      <point x="37" y="971" type="line"/>
      <point x="37" y="900" type="line"/>
      <point x="225" y="900" type="line"/>
      <point x="225" y="225" type="line" smooth="yes"/>
      <point x="225" y="90"/>
      <point x="202" y="37"/>
      <point x="71" y="37" type="curve"/>
      <point x="71" y="0" type="line"/>
      <point x="551" y="0" type="line"/>
      <point x="551" y="37" type="line"/>
      <point x="427" y="37"/>
      <point x="401" y="90"/>
      <point x="401" y="225" type="curve" smooth="yes"/>
      <point x="401" y="900" type="line"/>
      <point x="637" y="900" type="line"/>
      <point x="637" y="971" type="line"/>
    </contour>
  </outline>
</glyph>
<glyph name="g" format="2">
  <advance width="1320"/>
  <unicode hex="0067"/>
  <anchor x="665" y="-690" name="LL"/>
  <anchor x="650" y="1350" name="LU"/>
  <anchor x="510" y="-200" name="PB"/>
  <anchor x="550" y="0" name="def"/>
  <outline>
    <contour>
      <point x="657" y="-603" type="curve" smooth="yes"/>
      <point x="980" y="-603"/>
      <point x="1195" y="-453"/>
      <point x="1195" y="-178" type="curve" smooth="yes"/>
      <point x="1195" y="41"/>
      <point x="1043" y="147"/>
      <point x="726" y="147" type="curve" smooth="yes"/>
      <point x="545" y="147"/>
      <point x="366" y="152"/>
      <point x="366" y="301" type="curve" smooth="yes"/>
      <point x="366" y="346"/>
      <point x="409" y="400"/>
      <point x="474" y="425" type="curve"/>
      <point x="391" y="480" type="line"/>
      <point x="330" y="456"/>
      <point x="219" y="390"/>
      <point x="219" y="235" type="curve" smooth="yes"/>
      <point x="219" y="54"/>
      <point x="440" y="49"/>
      <point x="686" y="49" type="curve" smooth="yes"/>
      <point x="917" y="49"/>
      <point x="1036" y="9"/>
      <point x="1036" y="-191" type="curve" smooth="yes"/>
      <point x="1036" y="-418"/>
      <point x="881" y="-503"/>
      <point x="681" y="-503" type="curve" smooth="yes"/>
      <point x="499" y="-503"/>
      <point x="294" y="-413"/>
      <point x="294" y="-238" type="curve" smooth="yes"/>
      <point x="294" y="-86"/>
      <point x="386" y="-8"/>
      <point x="509" y="59" type="curve"/>
      <point x="474" y="80"/>
      <point x="450" y="93"/>
      <point x="415" y="102" type="curve"/>
      <point x="242" y="45"/>
      <point x="135" y="-64"/>
      <point x="135" y="-245" type="curve" smooth="yes"/>
      <point x="135" y="-475"/>
      <point x="334" y="-603"/>
    </contour>
    <contour>
      <point x="610" y="398" type="curve" smooth="yes"/>
      <point x="881" y="398"/>
      <point x="1065" y="529"/>
      <point x="1065" y="827" type="curve" smooth="yes"/>
      <point x="1065" y="1125"/>
      <point x="881" y="1255"/>
      <point x="610" y="1255" type="curve" smooth="yes"/>
      <point x="339" y="1255"/>
      <point x="155" y="1125"/>
      <point x="155" y="827" type="curve" smooth="yes"/>
      <point x="155" y="539"/>
      <point x="339" y="398"/>
    </contour>
    <contour>
      <point x="610" y="498" type="curve" smooth="yes"/>
      <point x="452" y="498"/>
      <point x="313" y="602"/>
      <point x="313" y="827" type="curve" smooth="yes"/>
      <point x="313" y="1062"/>
      <point x="452" y="1155"/>
      <point x="610" y="1155" type="curve" smooth="yes"/>
      <point x="768" y="1155"/>
      <point x="907" y="1062"/>
      <point x="907" y="827" type="curve" smooth="yes"/>
      <point x="907" y="592"/>
      <point x="768" y="498"/>
    </contour>
    <contour>
      <point x="1209" y="1140" type="curve" smooth="yes"/>
      <point x="1255" y="1140"/>
      <point x="1301" y="1173"/>
      <point x="1301" y="1243" type="curve" smooth="yes"/>
      <point x="1301" y="1311"/>
      <point x="1243" y="1366"/>
      <point x="1165" y="1366" type="curve" smooth="yes"/>
      <point x="1063" y="1366"/>
      <point x="929" y="1304"/>
      <point x="816" y="1159" type="curve"/>
      <point x="885" y="1121" type="line"/>
      <point x="953" y="1215"/>
      <point x="1101" y="1273"/>
      <point x="1115" y="1259" type="curve"/>
      <point x="1143" y="1311" type="line"/>
      <point x="1117" y="1286"/>
      <point x="1106" y="1256"/>
      <point x="1106" y="1227" type="curve" smooth="yes"/>
      <point x="1106" y="1171"/>
      <point x="1148" y="1140"/>
    </contour>
  </outline>
</glyph>
<glyph name="h" format="2">
  <advance width="1400"/>
  <unicode hex="0068"/>
  <anchor x="683" y="-110" name="LL"/>
  <anchor x="683" y="1880" name="LU"/>
  <anchor x="511" y="0" name="PB"/>
  <anchor x="571" y="200" name="def"/>
  <outline>
    <contour>
      <point x="380" y="110" type="line"/>
      <point x="380" y="1793" type="line"/>
      <point x="80" y="1793" type="line"/>
      <point x="80" y="1718" type="line"/>
      <point x="230" y="1683" type="line"/>
      <point x="230" y="110" type="line"/>
      <point x="80" y="75" type="line"/>
      <point x="80" y="0" type="line"/>
      <point x="530" y="0" type="line"/>
      <point x="530" y="75" type="line"/>
    </contour>
    <contour>
      <point x="837" y="0" type="line"/>
      <point x="1287" y="0" type="line"/>
      <point x="1287" y="75" type="line"/>
      <point x="1137" y="110" type="line"/>
      <point x="1137" y="968" type="line" smooth="yes"/>
      <point x="1137" y="1142"/>
      <point x="1036" y="1255"/>
      <point x="840" y="1255" type="curve" smooth="yes"/>
      <point x="659" y="1255"/>
      <point x="463" y="1164"/>
      <point x="339" y="1076" type="curve"/>
      <point x="369" y="994" type="line"/>
      <point x="518" y="1090"/>
      <point x="683" y="1136"/>
      <point x="790" y="1136" type="curve" smooth="yes"/>
      <point x="891" y="1136"/>
      <point x="987" y="1071"/>
      <point x="987" y="956" type="curve" smooth="yes"/>
      <point x="987" y="110" type="line"/>
      <point x="837" y="75" type="line"/>
    </contour>
  </outline>
</glyph>
<glyph name="i" format="2">
  <advance width="705"/>
  <unicode hex="0069"/>
  <anchor x="362" y="-110" name="LL"/>
  <anchor x="362" y="1809" name="LU"/>
  <anchor x="511" y="0" name="PB"/>
  <anchor x="451" y="200" name="def"/>
  <outline>
    <component base="dotlessi"/>
    <contour>
      <point x="360" y="1503" type="curve" smooth="yes"/>
      <point x="424" y="1503"/>
      <point x="475" y="1554"/>
      <point x="475" y="1618" type="curve" smooth="yes"/>
      <point x="475" y="1682"/>
      <point x="424" y="1733"/>
      <point x="360" y="1733" type="curve" smooth="yes"/>
      <point x="296" y="1733"/>
      <point x="245" y="1682"/>
      <point x="245" y="1618" type="curve" smooth="yes"/>
      <point x="245" y="1554"/>
      <point x="296" y="1503"/>
    </contour>
  </outline>
</glyph>
<glyph name="j" format="2">
  <advance width="645"/>
  <unicode hex="006A"/>
  <anchor x="131" y="-690" name="LL"/>
  <anchor x="361" y="1809" name="LU"/>
  <anchor x="420" y="-200" name="PB"/>
  <anchor x="460" y="200" name="def"/>
  <outline>
    <contour>
      <point x="365" y="1503" type="curve" smooth="yes"/>
      <point x="429" y="1503"/>
      <point x="480" y="1554"/>
      <point x="480" y="1618" type="curve" smooth="yes"/>
      <point x="480" y="1682"/>
      <point x="429" y="1733"/>
      <point x="365" y="1733" type="curve" smooth="yes"/>
      <point x="301" y="1733"/>
      <point x="250" y="1682"/>
      <point x="250" y="1618" type="curve" smooth="yes"/>
      <point x="250" y="1554"/>
      <point x="301" y="1503"/>
    </contour>
    <contour>
      <point x="83" y="-512" type="curve" smooth="yes"/>
      <point x="-3" y="-512"/>
      <point x="-98" y="-452"/>
      <point x="-76" y="-396" type="curve"/>
      <point x="-123" y="-444" type="line"/>
      <point x="-67" y="-449"/>
      <point x="10" y="-403"/>
      <point x="10" y="-332" type="curve" smooth="yes"/>
      <point x="10" y="-260"/>
      <point x="-31" y="-225"/>
      <point x="-102" y="-225" type="curve" smooth="yes"/>
      <point x="-170" y="-225"/>
      <point x="-223" y="-284"/>
      <point x="-223" y="-358" type="curve" smooth="yes"/>
      <point x="-223" y="-487"/>
      <point x="-122" y="-610"/>
      <point x="83" y="-610" type="curve" smooth="yes"/>
      <point x="300" y="-610"/>
      <point x="440" y="-516"/>
      <point x="440" y="-175" type="curve" smooth="yes"/>
      <point x="440" y="1240" type="line"/>
      <point x="120" y="1240" type="line"/>
      <point x="120" y="1165" type="line"/>
      <point x="290" y="1130" type="line"/>
      <point x="290" y="-226" type="line" smooth="yes"/>
      <point x="290" y="-441"/>
      <point x="200" y="-512"/>
    </contour>
  </outline>
</glyph>
<glyph name="k" format="2">
  <advance width="1080"/>
  <unicode hex="006B"/>
  <outline>
    <contour>
      <point x="364" y="1474" type="line"/>
      <point x="311" y="1474" type="line"/>
      <point x="22" y="1346" type="line"/>
      <point x="37" y="1305" type="line"/>
      <point x="75" y="1317"/>
      <point x="101" y="1324"/>
      <point x="124" y="1324" type="curve" smooth="yes"/>
      <point x="187" y="1324"/>
      <point x="187" y="1275"/>
      <point x="187" y="1166" type="curve" smooth="yes"/>
      <point x="187" y="225" type="line" smooth="yes"/>
      <point x="187" y="90"/>
      <point x="161" y="37"/>
      <point x="34" y="37" type="curve"/>
      <point x="34" y="0" type="line"/>
      <point x="514" y="0" type="line"/>
      <point x="514" y="37" type="line"/>
      <point x="386" y="37"/>
      <point x="364" y="90"/>
      <point x="364" y="225" type="curve" smooth="yes"/>
      <point x="364" y="532" type="line"/>
      <point x="615" y="217" type="line" smooth="yes"/>
      <point x="652" y="171"/>
      <point x="694" y="112"/>
      <point x="694" y="86" type="curve" smooth="yes"/>
      <point x="694" y="56"/>
      <point x="682" y="37"/>
      <point x="630" y="37" type="curve"/>
      <point x="630" y="0" type="line"/>
      <point x="1110" y="0" type="line"/>
      <point x="1110" y="37" type="line"/>
      <point x="1012" y="37"/>
      <point x="950" y="78"/>
      <point x="810" y="255" type="curve" smooth="yes"/>
      <point x="521" y="619" type="line"/>
      <point x="701" y="776" type="line" smooth="yes"/>
      <point x="850" y="906"/>
      <point x="907" y="934"/>
      <point x="1039" y="934" type="curve"/>
      <point x="1039" y="971" type="line"/>
      <point x="634" y="971" type="line"/>
      <point x="634" y="934" type="line"/>
      <point x="697" y="934"/>
      <point x="712" y="926"/>
      <point x="712" y="900" type="curve" smooth="yes"/>
      <point x="712" y="866"/>
      <point x="651" y="816"/>
      <point x="596" y="765" type="curve" smooth="yes"/>
      <point x="364" y="551" type="line"/>
    </contour>
  </outline>
</glyph>
<glyph name="l" format="2">
  <advance width="670"/>
  <unicode hex="006C"/>
  <anchor x="352" y="-110" name="LL"/>
  <anchor x="352" y="1880" name="LU"/>
  <anchor x="530" y="0" name="PB"/>
  <anchor x="450" y="200" name="def"/>
  <outline>
    <contour>
      <point x="260" y="1693" type="line"/>
      <point x="260" y="100" type="line"/>
      <point x="100" y="65" type="line"/>
      <point x="100" y="0" type="line"/>
      <point x="570" y="0" type="line"/>
      <point x="570" y="65" type="line"/>
      <point x="410" y="100" type="line"/>
      <point x="410" y="1793" type="line"/>
      <point x="100" y="1793" type="line"/>
      <point x="100" y="1728" type="line"/>
    </contour>
  </outline>
</glyph>
<glyph name="m" format="2">
  <advance width="2073"/>
  <unicode hex="006D"/>
  <anchor x="1046" y="-110" name="LL"/>
  <anchor x="1046" y="1350" name="LU"/>
  <anchor x="511" y="0" name="PB"/>
  <anchor x="751" y="0" name="def"/>
  <outline>
    <contour>
      <point x="422" y="110" type="line"/>
      <point x="422" y="1240" type="line"/>
      <point x="122" y="1240" type="line"/>
      <point x="122" y="1165" type="line"/>
      <point x="272" y="1130" type="line"/>
      <point x="272" y="110" type="line"/>
      <point x="122" y="75" type="line"/>
      <point x="122" y="0" type="line"/>
      <point x="572" y="0" type="line"/>
      <point x="572" y="75" type="line"/>
    </contour>
    <contour>
      <point x="821" y="0" type="line"/>
      <point x="1271" y="0" type="line"/>
      <point x="1271" y="75" type="line"/>
      <point x="1121" y="110" type="line"/>
      <point x="1121" y="968" type="line" smooth="yes"/>
      <point x="1121" y="1142"/>
      <point x="1030" y="1255"/>
      <point x="834" y="1255" type="curve" smooth="yes"/>
      <point x="653" y="1255"/>
      <point x="495" y="1174"/>
      <point x="371" y="1086" type="curve"/>
      <point x="401" y="1004" type="line"/>
      <point x="550" y="1100"/>
      <point x="677" y="1136"/>
      <point x="784" y="1136" type="curve" smooth="yes"/>
      <point x="885" y="1136"/>
      <point x="971" y="1071"/>
      <point x="971" y="956" type="curve" smooth="yes"/>
      <point x="971" y="110" type="line"/>
      <point x="821" y="75" type="line"/>
    </contour>
    <contour>
      <point x="1520" y="0" type="line"/>
      <point x="1970" y="0" type="line"/>
      <point x="1970" y="75" type="line"/>
      <point x="1820" y="110" type="line"/>
      <point x="1820" y="968" type="line" smooth="yes"/>
      <point x="1820" y="1142"/>
      <point x="1729" y="1255"/>
      <point x="1533" y="1255" type="curve" smooth="yes"/>
      <point x="1352" y="1255"/>
      <point x="1194" y="1174"/>
      <point x="1070" y="1086" type="curve"/>
      <point x="1100" y="1004" type="line"/>
      <point x="1249" y="1100"/>
      <point x="1376" y="1136"/>
      <point x="1483" y="1136" type="curve" smooth="yes"/>
      <point x="1584" y="1136"/>
      <point x="1670" y="1071"/>
      <point x="1670" y="956" type="curve" smooth="yes"/>
      <point x="1670" y="110" type="line"/>
      <point x="1520" y="75" type="line"/>
    </contour>
  </outline>
</glyph>
<glyph name="n" format="2">
  <advance width="1425"/>
  <unicode hex="006E"/>
  <anchor x="692" y="-110" name="LL"/>
  <anchor x="692" y="1350" name="LU"/>
  <anchor x="482" y="0" name="PB"/>
  <anchor x="542" y="0" name="def"/>
  <outline>
    <contour>
      <point x="422" y="110" type="line"/>
      <point x="422" y="1240" type="line"/>
      <point x="122" y="1240" type="line"/>
      <point x="122" y="1165" type="line"/>
      <point x="272" y="1130" type="line"/>
      <point x="272" y="110" type="line"/>
      <point x="122" y="75" type="line"/>
      <point x="122" y="0" type="line"/>
      <point x="572" y="0" type="line"/>
      <point x="572" y="75" type="line"/>
    </contour>
    <contour>
      <point x="879" y="0" type="line"/>
      <point x="1329" y="0" type="line"/>
      <point x="1329" y="75" type="line"/>
      <point x="1179" y="110" type="line"/>
      <point x="1179" y="968" type="line" smooth="yes"/>
      <point x="1179" y="1142"/>
      <point x="1078" y="1255"/>
      <point x="882" y="1255" type="curve" smooth="yes"/>
      <point x="701" y="1255"/>
      <point x="505" y="1164"/>
      <point x="381" y="1076" type="curve"/>
      <point x="411" y="994" type="line"/>
      <point x="560" y="1090"/>
      <point x="725" y="1136"/>
      <point x="832" y="1136" type="curve" smooth="yes"/>
      <point x="933" y="1136"/>
      <point x="1029" y="1071"/>
      <point x="1029" y="956" type="curve" smooth="yes"/>
      <point x="1029" y="110" type="line"/>
      <point x="879" y="75" type="line"/>
    </contour>
  </outline>
</glyph>
<glyph name="o" format="2">
  <advance width="1238"/>
  <unicode hex="006F"/>
  <anchor x="894" y="1010" name="LH"/>
  <anchor x="619" y="-110" name="LL"/>
  <anchor x="619" y="1350" name="LU"/>
  <anchor x="516" y="0" name="PB"/>
  <anchor x="576" y="0" name="def"/>
  <outline>
    <contour>
      <point x="619" y="-20" type="curve" smooth="yes"/>
      <point x="898" y="-20"/>
      <point x="1103" y="103"/>
      <point x="1103" y="618" type="curve" smooth="yes"/>
      <point x="1103" y="1133"/>
      <point x="898" y="1256"/>
      <point x="619" y="1256" type="curve" smooth="yes"/>
      <point x="340" y="1256"/>
      <point x="135" y="1133"/>
      <point x="135" y="618" type="curve" smooth="yes"/>
      <point x="135" y="103"/>
      <point x="340" y="-20"/>
    </contour>
    <contour>
      <point x="619" y="80" type="curve" smooth="yes"/>
      <point x="398" y="80"/>
      <point x="295" y="208"/>
      <point x="295" y="618" type="curve" smooth="yes"/>
      <point x="295" y="1028"/>
      <point x="388" y="1156"/>
      <point x="619" y="1156" type="curve" smooth="yes"/>
      <point x="840" y="1156"/>
      <point x="944" y="1028"/>
      <point x="944" y="618" type="curve" smooth="yes"/>
      <point x="944" y="208"/>
      <point x="840" y="80"/>
    </contour>
  </outline>
</glyph>
<glyph name="p" format="2">
  <advance width="1283"/>
  <unicode hex="0070"/>
  <guideline x="924" y="1350" angle="270"/>
  <anchor x="661" y="-690" name="LL"/>
  <anchor x="661" y="1350" name="LU"/>
  <anchor x="511" y="-200" name="PB"/>
  <anchor x="571" y="0" name="def"/>
  <outline>
    <contour>
      <point x="380" y="-490" type="line"/>
      <point x="380" y="1239" type="line"/>
      <point x="80" y="1239" type="line"/>
      <point x="80" y="1164" type="line"/>
      <point x="230" y="1129" type="line"/>
      <point x="230" y="-490" type="line"/>
      <point x="80" y="-525" type="line"/>
      <point x="80" y="-600" type="line"/>
      <point x="550" y="-600" type="line"/>
      <point x="550" y="-525" type="line"/>
    </contour>
    <contour>
      <point x="1148" y="636" type="curve" smooth="yes"/>
      <point x="1148" y="1149"/>
      <point x="985" y="1255"/>
      <point x="795" y="1255" type="curve" smooth="yes"/>
      <point x="602" y="1255"/>
      <point x="439" y="1170"/>
      <point x="332" y="1091" type="curve"/>
      <point x="362" y="1004" type="line"/>
      <point x="511" y="1100"/>
      <point x="623" y="1136"/>
      <point x="749" y="1136" type="curve" smooth="yes"/>
      <point x="900" y="1136"/>
      <point x="990" y="1045"/>
      <point x="990" y="636" type="curve" smooth="yes"/>
      <point x="990" y="311"/>
      <point x="901" y="101"/>
      <point x="690" y="101" type="curve" smooth="yes"/>
      <point x="579" y="101"/>
      <point x="415" y="170"/>
      <point x="366" y="259" type="curve"/>
      <point x="311" y="168" type="line"/>
      <point x="398" y="52"/>
      <point x="586" y="-20"/>
      <point x="719" y="-20" type="curve" smooth="yes"/>
      <point x="996" y="-20"/>
      <point x="1148" y="196"/>
    </contour>
  </outline>
</glyph>
<glyph name="q" format="2">
  <advance width="1283"/>
  <unicode hex="0071"/>
  <guideline x="978" y="1028" angle="194.0362"/>
  <anchor x="608" y="-690" name="LL"/>
  <anchor x="608" y="1350" name="LU"/>
  <anchor x="510" y="-200" name="PB"/>
  <anchor x="550" y="0" name="def"/>
  <outline>
    <contour>
      <point x="903" y="1138" type="line"/>
      <point x="903" y="-490" type="line"/>
      <point x="733" y="-525" type="line"/>
      <point x="733" y="-600" type="line"/>
      <point x="1203" y="-600" type="line"/>
      <point x="1203" y="-525" type="line"/>
      <point x="1053" y="-490" type="line"/>
      <point x="1053" y="1051" type="line"/>
    </contour>
    <contour>
      <point x="293" y="606" type="curve" smooth="yes"/>
      <point x="293" y="927"/>
      <point x="395" y="1150"/>
      <point x="596" y="1150" type="curve" smooth="yes"/>
      <point x="747" y="1150"/>
      <point x="903" y="1063"/>
      <point x="903" y="1004" type="curve"/>
      <point x="1053" y="1051" type="line"/>
      <point x="1053" y="1138"/>
      <point x="810" y="1255"/>
      <point x="597" y="1255" type="curve" smooth="yes"/>
      <point x="290" y="1255"/>
      <point x="135" y="1046"/>
      <point x="135" y="600" type="curve" smooth="yes"/>
      <point x="135" y="77"/>
      <point x="295" y="-20"/>
      <point x="485" y="-20" type="curve" smooth="yes"/>
      <point x="728" y="-20"/>
      <point x="924" y="153"/>
      <point x="954" y="231" type="curve"/>
      <point x="910" y="298" type="line"/>
      <point x="828" y="198"/>
      <point x="679" y="97"/>
      <point x="543" y="97" type="curve" smooth="yes"/>
      <point x="382" y="97"/>
      <point x="293" y="187"/>
    </contour>
  </outline>
</glyph>
<glyph name="r" format="2">
  <advance width="726"/>
  <unicode hex="0072"/>
  <anchor x="520" y="0" name="PB"/>
  <anchor x="480" y="0" name="def"/>
  <outline>
    <contour>
      <point x="183" y="225" type="line" smooth="yes"/>
      <point x="183" y="90"/>
      <point x="158" y="37"/>
      <point x="30" y="37" type="curve"/>
      <point x="30" y="0" type="line"/>
      <point x="509" y="0" type="line"/>
      <point x="509" y="37" type="line"/>
      <point x="382" y="37"/>
      <point x="356" y="90"/>
      <point x="356" y="225" type="curve" smooth="yes"/>
      <point x="356" y="692" type="line"/>
      <point x="404" y="778"/>
      <point x="453" y="842"/>
      <point x="497" y="842" type="curve" smooth="yes"/>
      <point x="557" y="842"/>
      <point x="565" y="778"/>
      <point x="644" y="778" type="curve" smooth="yes"/>
      <point x="707" y="778"/>
      <point x="745" y="813"/>
      <point x="745" y="876" type="curve" smooth="yes"/>
      <point x="745" y="940"/>
      <point x="685" y="992"/>
      <point x="610" y="992" type="curve" smooth="yes"/>
      <point x="513" y="992"/>
      <point x="426" y="898"/>
      <point x="356" y="790" type="curve"/>
      <point x="356" y="992" type="line"/>
      <point x="307" y="992" type="line"/>
      <point x="19" y="861" type="line"/>
      <point x="30" y="823" type="line"/>
      <point x="71" y="834"/>
      <point x="98" y="842"/>
      <point x="120" y="842" type="curve" smooth="yes"/>
      <point x="183" y="842"/>
      <point x="183" y="794"/>
      <point x="183" y="682" type="curve" smooth="yes"/>
    </contour>
  </outline>
</glyph>
<glyph name="s" format="2">
  <advance width="851"/>
  <unicode hex="0073"/>
  <outline>
    <contour>
      <point x="112" y="0" type="line"/>
      <point x="154" y="0" type="line"/>
      <point x="157" y="15"/>
      <point x="176" y="26"/>
      <point x="199" y="26" type="curve" smooth="yes"/>
      <point x="251" y="26"/>
      <point x="322" y="-23"/>
      <point x="439" y="-23" type="curve" smooth="yes"/>
      <point x="660" y="-23"/>
      <point x="776" y="109"/>
      <point x="776" y="274" type="curve" smooth="yes"/>
      <point x="776" y="600"/>
      <point x="236" y="566"/>
      <point x="236" y="799" type="curve" smooth="yes"/>
      <point x="236" y="870"/>
      <point x="304" y="930"/>
      <point x="409" y="930" type="curve" smooth="yes"/>
      <point x="536" y="930"/>
      <point x="649" y="814"/>
      <point x="656" y="667" type="curve"/>
      <point x="694" y="667" type="line"/>
      <point x="694" y="994" type="line"/>
      <point x="656" y="994" type="line"/>
      <point x="652" y="971"/>
      <point x="630" y="956"/>
      <point x="611" y="956" type="curve" smooth="yes"/>
      <point x="559" y="956"/>
      <point x="499" y="994"/>
      <point x="390" y="994" type="curve" smooth="yes"/>
      <point x="217" y="994"/>
      <point x="105" y="877"/>
      <point x="105" y="724" type="curve" smooth="yes"/>
      <point x="105" y="390"/>
      <point x="604" y="431"/>
      <point x="604" y="191" type="curve" smooth="yes"/>
      <point x="604" y="116"/>
      <point x="532" y="52"/>
      <point x="442" y="52" type="curve" smooth="yes"/>
      <point x="304" y="52"/>
      <point x="176" y="176"/>
      <point x="154" y="337" type="curve"/>
      <point x="112" y="337" type="line"/>
    </contour>
  </outline>
</glyph>
<glyph name="t" format="2">
  <advance width="821"/>
  <unicode hex="0074"/>
  <anchor x="521" y="-110" name="LL"/>
  <anchor x="351" y="1540" name="LU"/>
  <anchor x="530" y="0" name="PB"/>
  <anchor x="450" y="160" name="def"/>
  <outline>
    <contour>
      <point x="562" y="-20" type="curve" smooth="yes"/>
      <point x="634" y="-20"/>
      <point x="690" y="-8"/>
      <point x="747" y="17" type="curve"/>
      <point x="708" y="115" type="line"/>
      <point x="686" y="103"/>
      <point x="664" y="96"/>
      <point x="630" y="96" type="curve" smooth="yes"/>
      <point x="492" y="96"/>
      <point x="426" y="175"/>
      <point x="426" y="267" type="curve" smooth="yes"/>
      <point x="426" y="1460" type="line"/>
      <point x="276" y="1460" type="line"/>
      <point x="276" y="267" type="line" smooth="yes"/>
      <point x="276" y="116"/>
      <point x="365" y="-20"/>
    </contour>
    <contour>
      <point x="120" y="1120" type="line"/>
      <point x="677" y="1120" type="line"/>
      <point x="677" y="1240" type="line"/>
      <point x="120" y="1240" type="line"/>
    </contour>
  </outline>
</glyph>
<glyph name="u" format="2">
  <advance width="1404"/>
  <unicode hex="0075"/>
  <anchor x="702" y="-110" name="LL"/>
  <anchor x="702" y="1350" name="LU"/>
  <anchor x="511" y="0" name="PB"/>
  <anchor x="571" y="0" name="def"/>
  <outline>
    <contour>
      <point x="1151" y="110" type="line"/>
      <point x="1151" y="1240" type="line"/>
      <point x="831" y="1240" type="line"/>
      <point x="831" y="1165" type="line"/>
      <point x="1001" y="1130" type="line"/>
      <point x="1001" y="0" type="line"/>
      <point x="1301" y="0" type="line"/>
      <point x="1301" y="75" type="line"/>
    </contour>
    <contour>
      <point x="606" y="87" type="curve" smooth="yes"/>
      <point x="492" y="87"/>
      <point x="403" y="154"/>
      <point x="403" y="279" type="curve" smooth="yes"/>
      <point x="403" y="1240" type="line"/>
      <point x="103" y="1240" type="line"/>
      <point x="103" y="1165" type="line"/>
      <point x="253" y="1130" type="line"/>
      <point x="253" y="267" type="line" smooth="yes"/>
      <point x="253" y="93"/>
      <point x="364" y="-20"/>
      <point x="555" y="-20" type="curve" smooth="yes"/>
      <point x="830" y="-20"/>
      <point x="1008" y="150"/>
      <point x="1044" y="231" type="curve"/>
      <point x="1000" y="288" type="line"/>
      <point x="918" y="188"/>
      <point x="768" y="87"/>
    </contour>
  </outline>
</glyph>
<glyph name="v" format="2">
  <advance width="1046"/>
  <unicode hex="0076"/>
  <outline>
    <contour>
      <point x="0" y="971" type="line"/>
      <point x="0" y="934" type="line"/>
      <point x="71" y="934"/>
      <point x="102" y="908"/>
      <point x="154" y="787" type="curve" smooth="yes"/>
      <point x="499" y="-23" type="line"/>
      <point x="547" y="-23" type="line"/>
      <point x="892" y="806" type="line" smooth="yes"/>
      <point x="928" y="893"/>
      <point x="960" y="934"/>
      <point x="1027" y="934" type="curve"/>
      <point x="1027" y="971" type="line"/>
      <point x="697" y="971" type="line"/>
      <point x="697" y="934" type="line"/>
      <point x="776" y="934"/>
      <point x="821" y="926"/>
      <point x="821" y="892" type="curve" smooth="yes"/>
      <point x="821" y="866"/>
      <point x="810" y="821"/>
      <point x="791" y="776" type="curve" smooth="yes"/>
      <point x="570" y="236" type="line"/>
      <point x="360" y="754" type="line" smooth="yes"/>
      <point x="341" y="799"/>
      <point x="330" y="832"/>
      <point x="330" y="874" type="curve" smooth="yes"/>
      <point x="330" y="907"/>
      <point x="367" y="934"/>
      <point x="439" y="934" type="curve"/>
      <point x="439" y="971" type="line"/>
    </contour>
  </outline>
</glyph>
<glyph name="w" format="2">
  <advance width="1775"/>
  <unicode hex="0077"/>
  <anchor x="887" y="-110" name="LL"/>
  <anchor x="887" y="1350" name="LU"/>
  <anchor x="492" y="0" name="PB"/>
  <anchor x="474" y="0" name="def"/>
  <outline>
    <contour>
      <point x="639" y="0" type="line"/>
      <point x="935" y="866" type="line"/>
      <point x="878" y="1022" type="line"/>
      <point x="571" y="71" type="line"/>
      <point x="675" y="132" type="line"/>
      <point x="482" y="132" type="line"/>
      <point x="594" y="71" type="line"/>
      <point x="265" y="1201" type="line"/>
      <point x="226" y="1111" type="line"/>
      <point x="439" y="1165" type="line"/>
      <point x="439" y="1240" type="line"/>
      <point x="-19" y="1240" type="line"/>
      <point x="-19" y="1165" type="line"/>
      <point x="194" y="1096" type="line"/>
      <point x="107" y="1191" type="line"/>
      <point x="477" y="0" type="line"/>
    </contour>
    <contour>
      <point x="1338" y="132" type="line"/>
      <point x="1146" y="132" type="line"/>
      <point x="1236" y="70" type="line"/>
      <point x="930" y="1202" type="line"/>
      <point x="889" y="1111" type="line"/>
      <point x="1102" y="1165" type="line"/>
      <point x="1102" y="1240" type="line"/>
      <point x="640" y="1240" type="line"/>
      <point x="640" y="1165" type="line"/>
      <point x="853" y="1111" type="line"/>
      <point x="766" y="1201" type="line"/>
      <point x="1120" y="0" type="line"/>
      <point x="1282" y="0" type="line"/>
      <point x="1666" y="1191" type="line"/>
      <point x="1566" y="1096" type="line"/>
      <point x="1792" y="1165" type="line"/>
      <point x="1792" y="1240" type="line"/>
      <point x="1387" y="1240" type="line"/>
      <point x="1387" y="1165" type="line"/>
      <point x="1612" y="1111" type="line"/>
      <point x="1562" y="1201" type="line"/>
      <point x="1215" y="71" type="line"/>
    </contour>
  </outline>
</glyph>
<glyph name="x" format="2">
  <advance width="1344"/>
  <unicode hex="0078"/>
  <anchor x="641" y="-110" name="LL"/>
  <anchor x="708" y="1350" name="LU"/>
  <anchor x="530" y="0" name="PB"/>
  <anchor x="512" y="0" name="def"/>
  <outline>
    <contour>
      <point x="993" y="130" type="line"/>
      <point x="767" y="75" type="line"/>
      <point x="767" y="0" type="line"/>
      <point x="1284" y="0" type="line"/>
      <point x="1284" y="75" type="line"/>
      <point x="1048" y="144" type="line"/>
      <point x="1154" y="61" type="line"/>
      <point x="358" y="1189" type="line"/>
      <point x="349" y="1110" type="line"/>
      <point x="578" y="1165" type="line"/>
      <point x="578" y="1240" type="line"/>
      <point x="60" y="1240" type="line"/>
      <point x="60" y="1165" type="line"/>
      <point x="294" y="1096" type="line"/>
      <point x="188" y="1179" type="line"/>
      <point x="984" y="51" type="line"/>
    </contour>
    <contour>
      <point x="723" y="591" type="line"/>
      <point x="1154" y="1178" type="line"/>
      <point x="1032" y="1098" type="line"/>
      <point x="1284" y="1165" type="line"/>
      <point x="1284" y="1240" type="line"/>
      <point x="834" y="1240" type="line"/>
      <point x="834" y="1165" type="line"/>
      <point x="1063" y="1110" type="line"/>
      <point x="1041" y="1188" type="line"/>
      <point x="666" y="678" type="line"/>
      <point x="617" y="652" type="line"/>
      <point x="192" y="61" type="line"/>
      <point x="313" y="142" type="line"/>
      <point x="60" y="75" type="line"/>
      <point x="60" y="0" type="line"/>
      <point x="510" y="0" type="line"/>
      <point x="510" y="75" type="line"/>
      <point x="282" y="130" type="line"/>
      <point x="305" y="51" type="line"/>
      <point x="674" y="565" type="line"/>
    </contour>
  </outline>
</glyph>
<glyph name="y" format="2">
  <advance width="1349"/>
  <unicode hex="0079"/>
  <guideline x="476" y="529" angle="290.4799"/>
  <guideline x="749" y="1753" angle="270"/>
  <anchor x="914" y="-350" name="LL"/>
  <anchor x="751" y="1350" name="LU"/>
  <anchor x="519" y="-200" name="PB"/>
  <anchor x="501" y="0" name="def"/>
  <outline>
    <contour>
      <point x="700" y="-71" type="line"/>
      <point x="781" y="108" type="line"/>
      <point x="387" y="1200" type="line"/>
      <point x="333" y="1113" type="line"/>
      <point x="584" y="1165" type="line"/>
      <point x="584" y="1240" type="line"/>
      <point x="88" y="1240" type="line"/>
      <point x="88" y="1165" type="line"/>
      <point x="322" y="1098" type="line"/>
      <point x="229" y="1189" type="line"/>
    </contour>
    <contour>
      <point x="306" y="-513" type="curve" smooth="yes"/>
      <point x="210" y="-513"/>
      <point x="122" y="-465"/>
      <point x="144" y="-409" type="curve"/>
      <point x="97" y="-457" type="line"/>
      <point x="153" y="-462"/>
      <point x="230" y="-416"/>
      <point x="230" y="-345" type="curve" smooth="yes"/>
      <point x="230" y="-271"/>
      <point x="180" y="-237"/>
      <point x="127" y="-237" type="curve" smooth="yes"/>
      <point x="65" y="-237"/>
      <point x="-3" y="-284"/>
      <point x="-3" y="-371" type="curve" smooth="yes"/>
      <point x="-3" y="-500"/>
      <point x="98" y="-610"/>
      <point x="302" y="-610" type="curve" smooth="yes"/>
      <point x="488" y="-610"/>
      <point x="606" y="-461"/>
      <point x="707" y="-192" type="curve" smooth="yes"/>
      <point x="1227" y="1189" type="line"/>
      <point x="1126" y="1096" type="line"/>
      <point x="1349" y="1165" type="line"/>
      <point x="1349" y="1240" type="line"/>
      <point x="929" y="1240" type="line"/>
      <point x="929" y="1165" type="line"/>
      <point x="1170" y="1113" type="line"/>
      <point x="1127" y="1199" type="line"/>
      <point x="598" y="-206" type="line" smooth="yes"/>
      <point x="524" y="-404"/>
      <point x="421" y="-513"/>
    </contour>
  </outline>
</glyph>
<glyph name="z" format="2">
  <advance width="979"/>
  <unicode hex="007A"/>
  <outline>
    <contour>
      <point x="41" y="0" type="line"/>
      <point x="907" y="0" type="line"/>
      <point x="926" y="307" type="line"/>
      <point x="889" y="307" type="line"/>
      <point x="881" y="221"/>
      <point x="855" y="127"/>
      <point x="821" y="105" type="curve"/>
      <point x="795" y="86"/>
      <point x="739" y="71"/>
      <point x="694" y="71" type="curve" smooth="yes"/>
      <point x="281" y="71" type="line"/>
      <point x="930" y="934" type="line"/>
      <point x="930" y="971" type="line"/>
      <point x="124" y="971" type="line"/>
      <point x="124" y="701" type="line"/>
      <point x="161" y="701" type="line"/>
      <point x="161" y="765"/>
      <point x="184" y="836"/>
      <point x="210" y="862" type="curve"/>
      <point x="232" y="881"/>
      <point x="285" y="900"/>
      <point x="334" y="900" type="curve" smooth="yes"/>
      <point x="682" y="900" type="line"/>
      <point x="41" y="52" type="line"/>
    </contour>
  </outline>
</glyph>
<glyph name="braceleft" format="2">
  <advance width="704"/>
  <unicode hex="007B"/>
  <guideline y="1714"/>
  <guideline x="665"/>
  <outline>
    <contour>
      <point x="665" y="1753" type="line"/>
      <point x="435" y="1753"/>
      <point x="247" y="1551"/>
      <point x="247" y="1303" type="curve" smooth="yes"/>
      <point x="247" y="1230"/>
      <point x="281" y="1153"/>
      <point x="281" y="1018" type="curve" smooth="yes"/>
      <point x="281" y="868"/>
      <point x="173" y="747"/>
      <point x="40" y="747" type="curve"/>
      <point x="40" y="688" type="line"/>
      <point x="173" y="688"/>
      <point x="281" y="567"/>
      <point x="281" y="413" type="curve" smooth="yes"/>
      <point x="281" y="295"/>
      <point x="247" y="222"/>
      <point x="247" y="128" type="curve" smooth="yes"/>
      <point x="247" y="-124"/>
      <point x="435" y="-335"/>
      <point x="665" y="-335" type="curve"/>
      <point x="665" y="-295" type="line"/>
      <point x="517" y="-280"/>
      <point x="399" y="-124"/>
      <point x="399" y="58" type="curve" smooth="yes"/>
      <point x="399" y="172"/>
      <point x="432" y="242"/>
      <point x="432" y="340" type="curve" smooth="yes"/>
      <point x="432" y="505"/>
      <point x="306" y="682"/>
      <point x="152" y="721" type="curve"/>
      <point x="306" y="774"/>
      <point x="432" y="946"/>
      <point x="432" y="1091" type="curve" smooth="yes"/>
      <point x="432" y="1177"/>
      <point x="399" y="1254"/>
      <point x="399" y="1372" type="curve" smooth="yes"/>
      <point x="399" y="1546"/>
      <point x="517" y="1698"/>
      <point x="665" y="1714" type="curve"/>
    </contour>
  </outline>
</glyph>
<glyph name="bar" format="2">
  <advance width="547"/>
  <unicode hex="007C"/>
  <outline>
    <contour>
      <point x="214" y="1437" type="line"/>
      <point x="214" y="-487" type="line"/>
      <point x="314" y="-487" type="line"/>
      <point x="314" y="1437" type="line"/>
    </contour>
  </outline>
</glyph>
<glyph name="braceright" format="2">
  <advance width="875"/>
  <unicode hex="007D"/>
  <outline>
    <contour>
      <point x="80" y="2018" type="curve"/>
      <point x="80" y="1979" type="line"/>
      <point x="228" y="1963"/>
      <point x="346" y="1799"/>
      <point x="346" y="1585" type="curve" smooth="yes"/>
      <point x="346" y="1467"/>
      <point x="313" y="1390"/>
      <point x="313" y="1304" type="curve" smooth="yes"/>
      <point x="313" y="1119"/>
      <point x="459" y="945"/>
      <point x="613" y="892" type="curve"/>
      <point x="459" y="853"/>
      <point x="313" y="674"/>
      <point x="313" y="469" type="curve" smooth="yes"/>
      <point x="313" y="371"/>
      <point x="346" y="301"/>
      <point x="346" y="187" type="curve" smooth="yes"/>
      <point x="346" y="-35"/>
      <point x="228" y="-203"/>
      <point x="80" y="-218" type="curve"/>
      <point x="80" y="-258" type="line"/>
      <point x="310" y="-258"/>
      <point x="508" y="-35"/>
      <point x="508" y="257" type="curve" smooth="yes"/>
      <point x="508" y="371"/>
      <point x="474" y="424"/>
      <point x="474" y="542" type="curve" smooth="yes"/>
      <point x="474" y="736"/>
      <point x="572" y="859"/>
      <point x="705" y="859" type="curve"/>
      <point x="705" y="918" type="line"/>
      <point x="572" y="918"/>
      <point x="474" y="1041"/>
      <point x="474" y="1231" type="curve" smooth="yes"/>
      <point x="474" y="1366"/>
      <point x="508" y="1423"/>
      <point x="508" y="1516" type="curve" smooth="yes"/>
      <point x="508" y="1804"/>
      <point x="310" y="2018"/>
    </contour>
  </outline>
</glyph>
<glyph name="asciitilde" format="2">
  <advance width="1283"/>
  <unicode hex="007E"/>
  <anchor x="638" y="927" name="LU"/>
  <outline>
    <contour>
      <point x="188" y="641" type="line"/>
      <point x="207" y="716"/>
      <point x="239" y="812"/>
      <point x="377" y="812" type="curve" smooth="yes"/>
      <point x="561" y="812"/>
      <point x="666" y="648"/>
      <point x="887" y="648" type="curve" smooth="yes"/>
      <point x="1102" y="648"/>
      <point x="1191" y="808"/>
      <point x="1191" y="972" type="curve"/>
      <point x="1087" y="972" type="line"/>
      <point x="1068" y="897"/>
      <point x="1036" y="800"/>
      <point x="898" y="800" type="curve" smooth="yes"/>
      <point x="714" y="800"/>
      <point x="609" y="964"/>
      <point x="388" y="964" type="curve" smooth="yes"/>
      <point x="174" y="964"/>
      <point x="84" y="804"/>
      <point x="84" y="641" type="curve"/>
    </contour>
  </outline>
</glyph>
<glyph name="exclamdown" format="2">
  <advance width="408"/>
  <unicode hex="00A1"/>
  <outline>
    <contour>
      <point x="172" y="1071" type="line"/>
      <point x="161" y="753"/>
      <point x="79" y="408"/>
      <point x="79" y="139" type="curve" smooth="yes"/>
      <point x="79" y="30"/>
      <point x="142" y="-33"/>
      <point x="206" y="-33" type="curve" smooth="yes"/>
      <point x="281" y="-33"/>
      <point x="333" y="30"/>
      <point x="333" y="139" type="curve" smooth="yes"/>
      <point x="333" y="408"/>
      <point x="270" y="753"/>
      <point x="239" y="1071" type="curve"/>
    </contour>
    <contour>
      <point x="206" y="1471" type="curve" smooth="yes"/>
      <point x="142" y="1471"/>
      <point x="90" y="1418"/>
      <point x="90" y="1358" type="curve" smooth="yes"/>
      <point x="90" y="1295"/>
      <point x="142" y="1243"/>
      <point x="206" y="1243" type="curve" smooth="yes"/>
      <point x="273" y="1243"/>
      <point x="326" y="1295"/>
      <point x="326" y="1358" type="curve" smooth="yes"/>
      <point x="326" y="1418"/>
      <point x="273" y="1471"/>
    </contour>
  </outline>
</glyph>
<glyph name="cent" format="2">
  <advance width="1175"/>
  <unicode hex="00A2"/>
  <anchor x="532" y="0" name="PB"/>
  <anchor x="570" y="0" name="def"/>
  <outline>
    <contour>
      <point x="641" y="-184" type="line"/>
      <point x="641" y="1339" type="line"/>
      <point x="546" y="1339" type="line"/>
      <point x="546" y="-184" type="line"/>
    </contour>
    <contour>
      <point x="648" y="18" type="curve" smooth="yes"/>
      <point x="877" y="18"/>
      <point x="996" y="153"/>
      <point x="1015" y="336" type="curve"/>
      <point x="924" y="336" type="line"/>
      <point x="904" y="219"/>
      <point x="839" y="118"/>
      <point x="650" y="118" type="curve" smooth="yes"/>
      <point x="450" y="118"/>
      <point x="298" y="254"/>
      <point x="298" y="577" type="curve" smooth="yes"/>
      <point x="298" y="934"/>
      <point x="437" y="1040"/>
      <point x="649" y="1040" type="curve" smooth="yes"/>
      <point x="773" y="1040"/>
      <point x="872" y="994"/>
      <point x="886" y="945" type="curve"/>
      <point x="918" y="957" type="line"/>
      <point x="899" y="970"/>
      <point x="881" y="974"/>
      <point x="864" y="974" type="curve" smooth="yes"/>
      <point x="799" y="974"/>
      <point x="766" y="926"/>
      <point x="766" y="878" type="curve" smooth="yes"/>
      <point x="766" y="825"/>
      <point x="804" y="771"/>
      <point x="879" y="771" type="curve" smooth="yes"/>
      <point x="945" y="771"/>
      <point x="996" y="823"/>
      <point x="996" y="914" type="curve" smooth="yes"/>
      <point x="996" y="1040"/>
      <point x="869" y="1136"/>
      <point x="626" y="1136" type="curve" smooth="yes"/>
      <point x="352" y="1136"/>
      <point x="140" y="1029"/>
      <point x="140" y="555" type="curve" smooth="yes"/>
      <point x="140" y="118"/>
      <point x="354" y="18"/>
    </contour>
  </outline>
</glyph>
<glyph name="sterling" format="2">
  <advance width="1175"/>
  <unicode hex="00A3"/>
  <outline>
    <contour>
      <point x="122" y="763" type="line"/>
      <point x="724" y="763" type="line"/>
      <point x="724" y="869" type="line"/>
      <point x="122" y="869" type="line"/>
    </contour>
    <contour>
      <point x="679" y="1421" type="curve" smooth="yes"/>
      <point x="762" y="1421"/>
      <point x="824" y="1392"/>
      <point x="843" y="1336" type="curve"/>
      <point x="874" y="1351" type="line"/>
      <point x="860" y="1355"/>
      <point x="847" y="1357"/>
      <point x="834" y="1357" type="curve" smooth="yes"/>
      <point x="769" y="1357"/>
      <point x="736" y="1309"/>
      <point x="736" y="1261" type="curve" smooth="yes"/>
      <point x="736" y="1211"/>
      <point x="771" y="1161"/>
      <point x="840" y="1161" type="curve" smooth="yes"/>
      <point x="898" y="1161"/>
      <point x="958" y="1203"/>
      <point x="958" y="1292" type="curve" smooth="yes"/>
      <point x="958" y="1455"/>
      <point x="838" y="1527"/>
      <point x="674" y="1527" type="curve" smooth="yes"/>
      <point x="384" y="1527"/>
      <point x="276" y="1338"/>
      <point x="276" y="1091" type="curve" smooth="yes"/>
      <point x="276" y="917"/>
      <point x="287" y="657"/>
      <point x="287" y="391" type="curve" smooth="yes"/>
      <point x="287" y="294"/>
      <point x="220" y="145"/>
      <point x="83" y="92" type="curve"/>
      <point x="83" y="0" type="line"/>
      <point x="1079" y="0" type="line"/>
      <point x="1079" y="290" type="line"/>
      <point x="1004" y="290" type="line"/>
      <point x="969" y="104" type="line"/>
      <point x="274" y="104" type="line"/>
      <point x="312" y="87" type="line"/>
      <point x="373" y="122"/>
      <point x="443" y="240"/>
      <point x="443" y="432" type="curve" smooth="yes"/>
      <point x="443" y="744"/>
      <point x="432" y="1001"/>
      <point x="432" y="1176" type="curve" smooth="yes"/>
      <point x="432" y="1322"/>
      <point x="514" y="1421"/>
    </contour>
  </outline>
</glyph>
<glyph name="currency" format="2">
  <advance width="1175"/>
  <unicode hex="00A4"/>
  <outline>
    <contour>
      <point x="589" y="310" type="curve" smooth="yes"/>
      <point x="838" y="310"/>
      <point x="1039" y="511"/>
      <point x="1039" y="760" type="curve" smooth="yes"/>
      <point x="1039" y="1009"/>
      <point x="838" y="1210"/>
      <point x="589" y="1210" type="curve" smooth="yes"/>
      <point x="340" y="1210"/>
      <point x="139" y="1009"/>
      <point x="139" y="760" type="curve" smooth="yes"/>
      <point x="139" y="511"/>
      <point x="340" y="310"/>
    </contour>
    <contour>
      <point x="186" y="274" type="line"/>
      <point x="373" y="453" type="line"/>
      <point x="280" y="547" type="line"/>
      <point x="93" y="367" type="line"/>
    </contour>
    <contour>
      <point x="589" y="415" type="curve" smooth="yes"/>
      <point x="398" y="415"/>
      <point x="244" y="569"/>
      <point x="244" y="760" type="curve" smooth="yes"/>
      <point x="244" y="951"/>
      <point x="398" y="1105"/>
      <point x="589" y="1105" type="curve" smooth="yes"/>
      <point x="780" y="1105"/>
      <point x="934" y="951"/>
      <point x="934" y="760" type="curve" smooth="yes"/>
      <point x="934" y="569"/>
      <point x="780" y="415"/>
    </contour>
    <contour>
      <point x="280" y="967" type="line"/>
      <point x="373" y="1061" type="line"/>
      <point x="186" y="1244" type="line"/>
      <point x="93" y="1151" type="line"/>
    </contour>
    <contour>
      <point x="989" y="274" type="line"/>
      <point x="1082" y="367" type="line"/>
      <point x="899" y="547" type="line"/>
      <point x="805" y="453" type="line"/>
    </contour>
    <contour>
      <point x="898" y="970" type="line"/>
      <point x="1082" y="1151" type="line"/>
      <point x="989" y="1244" type="line"/>
      <point x="804" y="1064" type="line"/>
    </contour>
  </outline>
</glyph>
<glyph name="yen" format="2">
  <advance width="1250"/>
  <unicode hex="00A5"/>
  <guideline x="941" y="1195" angle="62.5874"/>
  <outline>
    <contour>
      <point x="167" y="737" type="line"/>
      <point x="167" y="637" type="line"/>
      <point x="1085" y="637" type="line"/>
      <point x="1085" y="737" type="line"/>
    </contour>
    <contour>
      <point x="167" y="467" type="line"/>
      <point x="167" y="367" type="line"/>
      <point x="1085" y="367" type="line"/>
      <point x="1085" y="467" type="line"/>
    </contour>
    <contour>
      <point x="1016" y="1605" type="line"/>
      <point x="550" y="707" type="line"/>
      <point x="685" y="702" type="line"/>
      <point x="1112" y="1535" type="line"/>
      <point x="1262" y="1575" type="line"/>
      <point x="1262" y="1650" type="line"/>
      <point x="807" y="1650" type="line"/>
      <point x="807" y="1575" type="line"/>
      <point x="1065" y="1523" type="line"/>
    </contour>
    <contour>
      <point x="232" y="1523" type="line"/>
      <point x="485" y="1575" type="line"/>
      <point x="485" y="1650" type="line"/>
      <point x="-15" y="1650" type="line"/>
      <point x="-15" y="1575" type="line"/>
      <point x="135" y="1535" type="line"/>
      <point x="569" y="696" type="line"/>
      <point x="663" y="859" type="line"/>
      <point x="276" y="1605" type="line"/>
    </contour>
    <contour>
      <point x="707" y="110" type="line"/>
      <point x="707" y="821" type="line"/>
      <point x="545" y="821" type="line"/>
      <point x="545" y="110" type="line"/>
      <point x="375" y="75" type="line"/>
      <point x="375" y="0" type="line"/>
      <point x="877" y="0" type="line"/>
      <point x="877" y="75" type="line"/>
    </contour>
  </outline>
</glyph>
<glyph name="brokenbar" format="2">
  <advance width="538"/>
  <unicode hex="00A6"/>
  <outline>
    <contour>
      <point x="324" y="533" type="line"/>
      <point x="214" y="533" type="line"/>
      <point x="214" y="-389" type="line"/>
      <point x="324" y="-389" type="line"/>
    </contour>
    <contour>
      <point x="324" y="2037" type="line"/>
      <point x="214" y="2037" type="line"/>
      <point x="214" y="1115" type="line"/>
      <point x="324" y="1115" type="line"/>
    </contour>
  </outline>
</glyph>
<glyph name="section" format="2">
  <advance width="989"/>
  <unicode hex="00A7"/>
  <outline>
    <contour>
      <point x="600" y="414" type="line"/>
      <point x="754" y="484"/>
      <point x="884" y="652"/>
      <point x="884" y="801" type="curve" smooth="yes"/>
      <point x="884" y="1154"/>
      <point x="317" y="1275"/>
      <point x="317" y="1556" type="curve" smooth="yes"/>
      <point x="317" y="1648"/>
      <point x="405" y="1706"/>
      <point x="509" y="1706" type="curve" smooth="yes"/>
      <point x="614" y="1706"/>
      <point x="677" y="1643"/>
      <point x="672" y="1583" type="curve"/>
      <point x="740" y="1591" type="line"/>
      <point x="701" y="1614"/>
      <point x="670" y="1619"/>
      <point x="644" y="1619" type="curve" smooth="yes"/>
      <point x="595" y="1619"/>
      <point x="570" y="1575"/>
      <point x="570" y="1531" type="curve" smooth="yes"/>
      <point x="570" y="1476"/>
      <point x="617" y="1437"/>
      <point x="663" y="1437" type="curve" smooth="yes"/>
      <point x="726" y="1437"/>
      <point x="763" y="1480"/>
      <point x="763" y="1563" type="curve" smooth="yes"/>
      <point x="763" y="1674"/>
      <point x="702" y="1789"/>
      <point x="496" y="1789" type="curve" smooth="yes"/>
      <point x="323" y="1789"/>
      <point x="214" y="1689"/>
      <point x="214" y="1520" type="curve" smooth="yes"/>
      <point x="214" y="1102"/>
      <point x="759" y="1101"/>
      <point x="759" y="741" type="curve" smooth="yes"/>
      <point x="759" y="633"/>
      <point x="638" y="511"/>
      <point x="552" y="462" type="curve"/>
    </contour>
    <contour>
      <point x="389" y="1226" type="line"/>
      <point x="235" y="1156"/>
      <point x="105" y="988"/>
      <point x="105" y="839" type="curve" smooth="yes"/>
      <point x="105" y="486"/>
      <point x="672" y="365"/>
      <point x="672" y="84" type="curve" smooth="yes"/>
      <point x="672" y="-8"/>
      <point x="584" y="-66"/>
      <point x="480" y="-66" type="curve" smooth="yes"/>
      <point x="375" y="-66"/>
      <point x="312" y="-3"/>
      <point x="317" y="57" type="curve"/>
      <point x="249" y="49" type="line"/>
      <point x="288" y="26"/>
      <point x="319" y="21"/>
      <point x="345" y="21" type="curve" smooth="yes"/>
      <point x="394" y="21"/>
      <point x="419" y="65"/>
      <point x="419" y="109" type="curve" smooth="yes"/>
      <point x="419" y="164"/>
      <point x="372" y="203"/>
      <point x="326" y="203" type="curve" smooth="yes"/>
      <point x="263" y="203"/>
      <point x="226" y="160"/>
      <point x="226" y="77" type="curve" smooth="yes"/>
      <point x="226" y="-34"/>
      <point x="287" y="-149"/>
      <point x="493" y="-149" type="curve" smooth="yes"/>
      <point x="666" y="-149"/>
      <point x="775" y="-49"/>
      <point x="775" y="120" type="curve" smooth="yes"/>
      <point x="775" y="538"/>
      <point x="230" y="539"/>
      <point x="230" y="899" type="curve" smooth="yes"/>
      <point x="230" y="1007"/>
      <point x="351" y="1129"/>
      <point x="437" y="1178" type="curve"/>
    </contour>
  </outline>
</glyph>
<glyph name="copyright" format="2">
  <advance width="1609"/>
  <unicode hex="00A9"/>
  <outline>
    <contour>
      <point x="1151" y="1207" type="line"/>
      <point x="1114" y="1207" type="line"/>
      <point x="1106" y="1185"/>
      <point x="1091" y="1159"/>
      <point x="1057" y="1159" type="curve" smooth="yes"/>
      <point x="1046" y="1159"/>
      <point x="1035" y="1166"/>
      <point x="1020" y="1170" type="curve" smooth="yes"/>
      <point x="945" y="1192"/>
      <point x="904" y="1207"/>
      <point x="829" y="1207" type="curve" smooth="yes"/>
      <point x="529" y="1207"/>
      <point x="315" y="1009"/>
      <point x="315" y="709" type="curve" smooth="yes"/>
      <point x="315" y="439"/>
      <point x="544" y="240"/>
      <point x="806" y="240" type="curve" smooth="yes"/>
      <point x="975" y="240"/>
      <point x="1121" y="315"/>
      <point x="1219" y="457" type="curve"/>
      <point x="1177" y="480" type="line"/>
      <point x="1106" y="367"/>
      <point x="975" y="311"/>
      <point x="847" y="311" type="curve" smooth="yes"/>
      <point x="577" y="311"/>
      <point x="495" y="514"/>
      <point x="495" y="746" type="curve" smooth="yes"/>
      <point x="495" y="964"/>
      <point x="570" y="1159"/>
      <point x="814" y="1159" type="curve" smooth="yes"/>
      <point x="971" y="1159"/>
      <point x="1095" y="1061"/>
      <point x="1136" y="907" type="curve"/>
      <point x="1174" y="907" type="line"/>
    </contour>
    <contour>
      <point x="1560" y="724" type="curve" smooth="yes"/>
      <point x="1560" y="1140"/>
      <point x="1222" y="1474"/>
      <point x="806" y="1474" type="curve" smooth="yes"/>
      <point x="386" y="1474"/>
      <point x="49" y="1140"/>
      <point x="49" y="724" type="curve" smooth="yes"/>
      <point x="49" y="304"/>
      <point x="386" y="-34"/>
      <point x="806" y="-34" type="curve" smooth="yes"/>
      <point x="1222" y="-34"/>
      <point x="1560" y="304"/>
    </contour>
    <contour>
      <point x="1496" y="724" type="curve" smooth="yes"/>
      <point x="1496" y="330"/>
      <point x="1185" y="30"/>
      <point x="806" y="30" type="curve" smooth="yes"/>
      <point x="427" y="30"/>
      <point x="112" y="341"/>
      <point x="112" y="724" type="curve" smooth="yes"/>
      <point x="112" y="1102"/>
      <point x="427" y="1410"/>
      <point x="806" y="1410" type="curve" smooth="yes"/>
      <point x="1185" y="1410"/>
      <point x="1496" y="1102"/>
    </contour>
  </outline>
</glyph>
<glyph name="ordfeminine" format="2">
  <advance width="679"/>
  <unicode hex="00AA"/>
  <outline>
    <contour>
      <point x="562" y="1271" type="line"/>
      <point x="562" y="1361"/>
      <point x="536" y="1474"/>
      <point x="319" y="1474" type="curve" smooth="yes"/>
      <point x="206" y="1474"/>
      <point x="56" y="1444"/>
      <point x="56" y="1320" type="curve" smooth="yes"/>
      <point x="56" y="1286"/>
      <point x="86" y="1256"/>
      <point x="124" y="1256" type="curve" smooth="yes"/>
      <point x="176" y="1256"/>
      <point x="191" y="1305"/>
      <point x="191" y="1346" type="curve" smooth="yes"/>
      <point x="191" y="1402"/>
      <point x="217" y="1432"/>
      <point x="289" y="1432" type="curve" smooth="yes"/>
      <point x="405" y="1432"/>
      <point x="405" y="1339"/>
      <point x="405" y="1252" type="curve"/>
      <point x="266" y="1207"/>
      <point x="26" y="1117"/>
      <point x="26" y="971" type="curve" smooth="yes"/>
      <point x="26" y="892"/>
      <point x="97" y="832"/>
      <point x="169" y="832" type="curve" smooth="yes"/>
      <point x="259" y="832"/>
      <point x="341" y="885"/>
      <point x="405" y="930" type="curve"/>
      <point x="412" y="889"/>
      <point x="435" y="832"/>
      <point x="487" y="832" type="curve" smooth="yes"/>
      <point x="547" y="832"/>
      <point x="600" y="872"/>
      <point x="652" y="911" type="curve"/>
      <point x="652" y="960" type="line"/>
      <point x="637" y="952"/>
      <point x="611" y="926"/>
      <point x="592" y="926" type="curve"/>
      <point x="566" y="926"/>
      <point x="562" y="956"/>
      <point x="562" y="975" type="curve" smooth="yes"/>
    </contour>
    <contour>
      <point x="405" y="982" type="line"/>
      <point x="364" y="960"/>
      <point x="330" y="926"/>
      <point x="277" y="926" type="curve" smooth="yes"/>
      <point x="225" y="926"/>
      <point x="180" y="967"/>
      <point x="180" y="1020" type="curve" smooth="yes"/>
      <point x="180" y="1117"/>
      <point x="315" y="1181"/>
      <point x="405" y="1204" type="curve"/>
    </contour>
  </outline>
</glyph>
<glyph name="logicalnot" format="2">
  <advance width="1294"/>
  <unicode hex="00AC"/>
  <outline>
    <contour>
      <point x="120" y="1004" type="line"/>
      <point x="120" y="896" type="line"/>
      <point x="1066" y="896" type="line"/>
      <point x="1066" y="585" type="line"/>
      <point x="1174" y="585" type="line"/>
      <point x="1174" y="1004" type="line"/>
    </contour>
  </outline>
</glyph>
<glyph name="registered" format="2">
  <advance width="1704"/>
  <unicode hex="00AE"/>
  <outline>
    <contour>
      <point x="534" y="259" type="line"/>
      <point x="812" y="259" type="line"/>
      <point x="812" y="307" type="line"/>
      <point x="715" y="327" type="line"/>
      <point x="715" y="1200" type="line"/>
      <point x="534" y="1200" type="line"/>
      <point x="534" y="1155" type="line"/>
      <point x="619" y="1135" type="line"/>
      <point x="619" y="323" type="line"/>
      <point x="534" y="303" type="line"/>
    </contour>
    <contour>
      <point x="986" y="259" type="line"/>
      <point x="1250" y="259" type="line"/>
      <point x="1252" y="303" type="line"/>
      <point x="1168" y="326" type="line"/>
      <point x="914" y="746" type="line"/>
      <point x="802" y="746" type="line"/>
      <point x="1101" y="256" type="line"/>
      <point x="1159" y="341" type="line"/>
      <point x="986" y="303" type="line"/>
    </contour>
    <contour>
      <point x="643" y="725" type="line"/>
      <point x="826" y="725" type="line" smooth="yes"/>
      <point x="1024" y="725"/>
      <point x="1184" y="798"/>
      <point x="1184" y="969" type="curve" smooth="yes"/>
      <point x="1184" y="1140"/>
      <point x="1036" y="1200"/>
      <point x="838" y="1200" type="curve" smooth="yes"/>
      <point x="677" y="1200" type="line"/>
      <point x="677" y="1136" type="line"/>
      <point x="816" y="1136" type="line" smooth="yes"/>
      <point x="998" y="1136"/>
      <point x="1080" y="1094"/>
      <point x="1080" y="965" type="curve" smooth="yes"/>
      <point x="1080" y="843"/>
      <point x="983" y="788"/>
      <point x="810" y="788" type="curve" smooth="yes"/>
      <point x="643" y="788" type="line"/>
    </contour>
    <contour>
      <point x="852" y="-27" type="curve" smooth="yes"/>
      <point x="1267" y="-27"/>
      <point x="1604" y="310"/>
      <point x="1604" y="725" type="curve" smooth="yes"/>
      <point x="1604" y="1140"/>
      <point x="1267" y="1477"/>
      <point x="852" y="1477" type="curve" smooth="yes"/>
      <point x="437" y="1477"/>
      <point x="100" y="1140"/>
      <point x="100" y="725" type="curve" smooth="yes"/>
      <point x="100" y="310"/>
      <point x="437" y="-27"/>
    </contour>
    <contour>
      <point x="852" y="56" type="curve" smooth="yes"/>
      <point x="480" y="56"/>
      <point x="179" y="357"/>
      <point x="179" y="729" type="curve" smooth="yes"/>
      <point x="179" y="1100"/>
      <point x="480" y="1401"/>
      <point x="852" y="1401" type="curve" smooth="yes"/>
      <point x="1223" y="1401"/>
      <point x="1524" y="1100"/>
      <point x="1524" y="729" type="curve" smooth="yes"/>
      <point x="1524" y="357"/>
      <point x="1223" y="56"/>
    </contour>
  </outline>
</glyph>
<glyph name="macron" format="2">
  <advance width="750"/>
  <unicode hex="00AF"/>
  <outline>
    <contour>
      <point x="727" y="1387" type="line"/>
      <point x="727" y="1252" type="line"/>
      <point x="22" y="1252" type="line"/>
      <point x="22" y="1387" type="line"/>
    </contour>
  </outline>
</glyph>
<glyph name="degree" format="2">
  <advance width="840"/>
  <unicode hex="00B0"/>
  <outline>
    <contour>
      <point x="420" y="900" type="curve" smooth="yes"/>
      <point x="594" y="900"/>
      <point x="735" y="1041"/>
      <point x="735" y="1215" type="curve" smooth="yes"/>
      <point x="735" y="1389"/>
      <point x="594" y="1530"/>
      <point x="420" y="1530" type="curve" smooth="yes"/>
      <point x="246" y="1530"/>
      <point x="105" y="1389"/>
      <point x="105" y="1215" type="curve" smooth="yes"/>
      <point x="105" y="1041"/>
      <point x="246" y="900"/>
    </contour>
    <contour>
      <point x="420" y="1005" type="curve" smooth="yes"/>
      <point x="304" y="1005"/>
      <point x="210" y="1099"/>
      <point x="210" y="1215" type="curve" smooth="yes"/>
      <point x="210" y="1331"/>
      <point x="304" y="1425"/>
      <point x="420" y="1425" type="curve" smooth="yes"/>
      <point x="536" y="1425"/>
      <point x="630" y="1331"/>
      <point x="630" y="1215" type="curve" smooth="yes"/>
      <point x="630" y="1099"/>
      <point x="536" y="1005"/>
    </contour>
  </outline>
</glyph>
<glyph name="plusminus" format="2">
  <advance width="1084"/>
  <unicode hex="00B1"/>
  <outline>
    <contour>
      <point x="120" y="532" type="line"/>
      <point x="120" y="424" type="line"/>
      <point x="964" y="424" type="line"/>
      <point x="964" y="532" type="line"/>
    </contour>
    <contour>
      <point x="120" y="1114" type="line"/>
      <point x="120" y="1006" type="line"/>
      <point x="488" y="1006" type="line"/>
      <point x="488" y="638" type="line"/>
      <point x="596" y="638" type="line"/>
      <point x="596" y="1006" type="line"/>
      <point x="964" y="1006" type="line"/>
      <point x="964" y="1114" type="line"/>
      <point x="596" y="1114" type="line"/>
      <point x="596" y="1482" type="line"/>
      <point x="488" y="1482" type="line"/>
      <point x="488" y="1114" type="line"/>
    </contour>
  </outline>
</glyph>
<glyph name="acute" format="2">
  <advance width="426"/>
  <unicode hex="00B4"/>
  <outline>
    <contour>
      <point x="401" y="1471" type="line"/>
      <point x="135" y="1471" type="line"/>
      <point x="23" y="1096" type="line"/>
      <point x="79" y="1096" type="line"/>
    </contour>
  </outline>
</glyph>
<glyph name="uni00B5" format="2">
  <advance width="1333"/>
  <unicode hex="00B5"/>
  <anchor x="377" y="0" name="PB"/>
  <anchor x="437" y="0" name="def"/>
  <outline>
    <contour>
      <point x="431" y="-20" type="curve" smooth="yes"/>
      <point x="706" y="-20"/>
      <point x="880" y="148"/>
      <point x="910" y="226" type="curve"/>
      <point x="866" y="288" type="line"/>
      <point x="784" y="188"/>
      <point x="644" y="87"/>
      <point x="482" y="87" type="curve" smooth="yes"/>
      <point x="368" y="87"/>
      <point x="268" y="164"/>
      <point x="268" y="279" type="curve" smooth="yes"/>
      <point x="268" y="1240" type="line"/>
      <point x="118" y="1240" type="line"/>
      <point x="118" y="267" type="line" smooth="yes"/>
      <point x="118" y="95"/>
      <point x="240" y="-20"/>
    </contour>
    <contour>
      <point x="118" y="-330" type="line"/>
      <point x="268" y="-330" type="line"/>
      <point x="268" y="296" type="line"/>
      <point x="118" y="296" type="line"/>
    </contour>
    <contour>
      <point x="118" y="-308" type="line"/>
      <point x="118" y="-439" type="line"/>
      <point x="205" y="-378" type="line"/>
      <point x="176" y="-372"/>
      <point x="150" y="-369"/>
      <point x="126" y="-369" type="curve" smooth="yes"/>
      <point x="58" y="-369"/>
      <point x="-11" y="-403"/>
      <point x="-11" y="-478" type="curve" smooth="yes"/>
      <point x="-11" y="-562"/>
      <point x="64" y="-585"/>
      <point x="139" y="-585" type="curve" smooth="yes"/>
      <point x="214" y="-585"/>
      <point x="268" y="-529"/>
      <point x="268" y="-459" type="curve" smooth="yes"/>
      <point x="268" y="-308" type="line"/>
    </contour>
    <contour>
      <point x="1047" y="-24" type="curve" smooth="yes"/>
      <point x="1174" y="-24"/>
      <point x="1273" y="118"/>
      <point x="1273" y="270" type="curve"/>
      <point x="1203" y="270" type="line"/>
      <point x="1203" y="162"/>
      <point x="1139" y="60"/>
      <point x="1076" y="60" type="curve" smooth="yes"/>
      <point x="1009" y="60"/>
      <point x="979" y="107"/>
      <point x="979" y="247" type="curve" smooth="yes"/>
      <point x="979" y="1242" type="line"/>
      <point x="829" y="1242" type="line"/>
      <point x="829" y="248" type="line"/>
      <point x="829" y="129"/>
      <point x="862" y="-24"/>
    </contour>
  </outline>
</glyph>
<glyph name="paragraph" format="2">
  <advance width="1140"/>
  <unicode hex="00B6"/>
  <outline>
    <contour>
      <point x="937" y="1414" type="line"/>
      <point x="1084" y="1414" type="line"/>
      <point x="1084" y="1474" type="line"/>
      <point x="532" y="1474" type="line" smooth="yes"/>
      <point x="217" y="1474"/>
      <point x="64" y="1320"/>
      <point x="64" y="1065" type="curve" smooth="yes"/>
      <point x="64" y="772"/>
      <point x="270" y="667"/>
      <point x="566" y="667" type="curve"/>
      <point x="566" y="-413" type="line"/>
      <point x="649" y="-413" type="line"/>
      <point x="649" y="1414" type="line"/>
      <point x="855" y="1414" type="line"/>
      <point x="855" y="-413" type="line"/>
      <point x="937" y="-413" type="line"/>
    </contour>
  </outline>
</glyph>
<glyph name="cedilla" format="2">
  <advance width="949"/>
  <unicode hex="00B8"/>
  <outline>
    <contour>
      <point x="469" y="0" type="line"/>
      <point x="420" y="-19"/>
      <point x="341" y="-120"/>
      <point x="307" y="-188" type="curve"/>
      <point x="367" y="-191"/>
      <point x="427" y="-225"/>
      <point x="427" y="-281" type="curve" smooth="yes"/>
      <point x="427" y="-326"/>
      <point x="367" y="-379"/>
      <point x="319" y="-379" type="curve" smooth="yes"/>
      <point x="270" y="-379"/>
      <point x="240" y="-368"/>
      <point x="221" y="-353" type="curve"/>
      <point x="199" y="-386" type="line"/>
      <point x="221" y="-413"/>
      <point x="296" y="-443"/>
      <point x="345" y="-443" type="curve" smooth="yes"/>
      <point x="544" y="-443"/>
      <point x="581" y="-330"/>
      <point x="581" y="-248" type="curve" smooth="yes"/>
      <point x="581" y="-180"/>
      <point x="480" y="-131"/>
      <point x="427" y="-128" type="curve"/>
      <point x="450" y="-86"/>
      <point x="525" y="-15"/>
      <point x="577" y="0" type="curve"/>
    </contour>
  </outline>
</glyph>
<glyph name="ordmasculine" format="2">
  <advance width="767"/>
  <unicode hex="00BA"/>
  <anchor x="306" y="950" name="PB"/>
  <anchor x="342" y="950" name="def"/>
  <outline>
    <component base="o" xScale="0.55" yScale="0.55" xOffset="41" yOffset="1112"/>
    <contour>
      <point x="130" y="895" type="line"/>
      <point x="645" y="895" type="line"/>
      <point x="645" y="958" type="line"/>
      <point x="130" y="958" type="line"/>
    </contour>
  </outline>
</glyph>
<glyph name="onequarter" format="2">
  <advance width="1736"/>
  <unicode hex="00BC"/>
  <outline>
    <contour>
      <point x="1535" y="0" type="line"/>
      <point x="1535" y="191" type="line"/>
      <point x="1655" y="191" type="line"/>
      <point x="1655" y="273" type="line"/>
      <point x="1535" y="273" type="line"/>
      <point x="1535" y="763" type="line"/>
      <point x="1433" y="763" type="line"/>
      <point x="1018" y="273" type="line"/>
      <point x="1018" y="191" type="line"/>
      <point x="1396" y="191" type="line"/>
      <point x="1396" y="0" type="line"/>
    </contour>
    <contour>
      <point x="1396" y="273" type="line"/>
      <point x="1108" y="273" type="line"/>
      <point x="1393" y="614" type="line"/>
      <point x="1396" y="614" type="line"/>
    </contour>
    <contour>
      <point x="150" y="707" type="line"/>
      <point x="513" y="707" type="line"/>
      <point x="513" y="745" type="line"/>
      <point x="416" y="745"/>
      <point x="397" y="759"/>
      <point x="397" y="827" type="curve" smooth="yes"/>
      <point x="397" y="1471" type="line"/>
      <point x="352" y="1471" type="line"/>
      <point x="127" y="1377" type="line"/>
      <point x="150" y="1343" type="line"/>
      <point x="168" y="1355"/>
      <point x="198" y="1366"/>
      <point x="221" y="1366" type="curve" smooth="yes"/>
      <point x="254" y="1366"/>
      <point x="258" y="1347"/>
      <point x="258" y="1254" type="curve" smooth="yes"/>
      <point x="258" y="827" type="line" smooth="yes"/>
      <point x="258" y="759"/>
      <point x="247" y="745"/>
      <point x="150" y="745" type="curve"/>
    </contour>
    <contour>
      <point x="1396" y="1471" type="line"/>
      <point x="1299" y="1471" type="line"/>
      <point x="270" y="-52" type="line"/>
      <point x="366" y="-52" type="line"/>
    </contour>
  </outline>
</glyph>
<glyph name="threequarters" format="2">
  <advance width="1740"/>
  <unicode hex="00BE"/>
  <outline>
    <contour>
      <point x="202" y="1067" type="line"/>
      <point x="341" y="1067"/>
      <point x="453" y="1021"/>
      <point x="453" y="890" type="curve" smooth="yes"/>
      <point x="453" y="813"/>
      <point x="385" y="745"/>
      <point x="307" y="745" type="curve" smooth="yes"/>
      <point x="232" y="745"/>
      <point x="176" y="801"/>
      <point x="120" y="801" type="curve" smooth="yes"/>
      <point x="90" y="801"/>
      <point x="60" y="790"/>
      <point x="60" y="759" type="curve" smooth="yes"/>
      <point x="60" y="700"/>
      <point x="179" y="685"/>
      <point x="221" y="685" type="curve" smooth="yes"/>
      <point x="389" y="685"/>
      <point x="569" y="763"/>
      <point x="569" y="954" type="curve" smooth="yes"/>
      <point x="569" y="1056"/>
      <point x="516" y="1115"/>
      <point x="426" y="1149" type="curve"/>
      <point x="479" y="1187"/>
      <point x="524" y="1250"/>
      <point x="524" y="1314" type="curve" smooth="yes"/>
      <point x="524" y="1422"/>
      <point x="420" y="1471"/>
      <point x="322" y="1471" type="curve" smooth="yes"/>
      <point x="202" y="1471"/>
      <point x="112" y="1407"/>
      <point x="67" y="1306" type="curve"/>
      <point x="108" y="1287" type="line"/>
      <point x="142" y="1340"/>
      <point x="202" y="1381"/>
      <point x="270" y="1381" type="curve" smooth="yes"/>
      <point x="348" y="1381"/>
      <point x="397" y="1343"/>
      <point x="397" y="1265" type="curve" smooth="yes"/>
      <point x="397" y="1164"/>
      <point x="299" y="1104"/>
      <point x="202" y="1104" type="curve"/>
    </contour>
    <contour>
      <point x="1418" y="1471" type="line"/>
      <point x="1321" y="1471" type="line"/>
      <point x="292" y="-52" type="line"/>
      <point x="389" y="-52" type="line"/>
    </contour>
    <contour>
      <point x="1557" y="0" type="line"/>
      <point x="1557" y="191" type="line"/>
      <point x="1676" y="191" type="line"/>
      <point x="1676" y="273" type="line"/>
      <point x="1557" y="273" type="line"/>
      <point x="1557" y="763" type="line"/>
      <point x="1456" y="763" type="line"/>
      <point x="1040" y="273" type="line"/>
      <point x="1040" y="191" type="line"/>
      <point x="1418" y="191" type="line"/>
      <point x="1418" y="0" type="line"/>
    </contour>
    <contour>
      <point x="1418" y="273" type="line"/>
      <point x="1131" y="273" type="line"/>
      <point x="1414" y="614" type="line"/>
      <point x="1418" y="614" type="line"/>
    </contour>
  </outline>
</glyph>
<glyph name="questiondown" format="2">
  <advance width="911"/>
  <unicode hex="00BF"/>
  <outline>
    <contour>
      <point x="472" y="1102" type="line"/>
      <point x="472" y="780"/>
      <point x="67" y="622"/>
      <point x="67" y="307" type="curve"/>
      <point x="67" y="94"/>
      <point x="236" y="-34"/>
      <point x="472" y="-34" type="curve" smooth="yes"/>
      <point x="645" y="-34"/>
      <point x="859" y="67"/>
      <point x="859" y="289" type="curve" smooth="yes"/>
      <point x="859" y="382"/>
      <point x="806" y="435"/>
      <point x="739" y="435" type="curve" smooth="yes"/>
      <point x="694" y="435"/>
      <point x="656" y="405"/>
      <point x="656" y="349" type="curve" smooth="yes"/>
      <point x="656" y="281"/>
      <point x="724" y="232"/>
      <point x="724" y="165" type="curve"/>
      <point x="724" y="94"/>
      <point x="630" y="45"/>
      <point x="525" y="45" type="curve" smooth="yes"/>
      <point x="382" y="45"/>
      <point x="285" y="139"/>
      <point x="285" y="322" type="curve" smooth="yes"/>
      <point x="285" y="626"/>
      <point x="521" y="724"/>
      <point x="521" y="1102" type="curve"/>
    </contour>
    <contour>
      <point x="495" y="1474" type="curve" smooth="yes"/>
      <point x="431" y="1474"/>
      <point x="379" y="1421"/>
      <point x="379" y="1361" type="curve"/>
      <point x="379" y="1297"/>
      <point x="431" y="1245"/>
      <point x="495" y="1245" type="curve" smooth="yes"/>
      <point x="562" y="1245"/>
      <point x="615" y="1297"/>
      <point x="615" y="1361" type="curve" smooth="yes"/>
      <point x="615" y="1421"/>
      <point x="562" y="1474"/>
    </contour>
  </outline>
</glyph>
<glyph name="Aacute" format="2">
  <advance width="1587"/>
  <unicode hex="00C1"/>
  <outline>
    <contour>
      <point x="753" y="1471" type="line"/>
      <point x="217" y="225" type="line" smooth="yes"/>
      <point x="168" y="112"/>
      <point x="116" y="37"/>
      <point x="11" y="37" type="curve"/>
      <point x="11" y="0" type="line"/>
      <point x="472" y="0" type="line"/>
      <point x="472" y="37" type="line"/>
      <point x="346" y="37"/>
      <point x="305" y="76"/>
      <point x="305" y="133" type="curve" smooth="yes"/>
      <point x="305" y="160"/>
      <point x="315" y="192"/>
      <point x="329" y="225" type="curve" smooth="yes"/>
      <point x="438" y="479" type="line"/>
      <point x="1000" y="479" type="line"/>
      <point x="1108" y="225" type="line" smooth="yes"/>
      <point x="1124" y="188"/>
      <point x="1132" y="156"/>
      <point x="1132" y="130" type="curve" smooth="yes"/>
      <point x="1132" y="68"/>
      <point x="1085" y="37"/>
      <point x="977" y="37" type="curve"/>
      <point x="977" y="0" type="line"/>
      <point x="1568" y="0" type="line"/>
      <point x="1568" y="37" type="line"/>
      <point x="1430" y="37"/>
      <point x="1384" y="94"/>
      <point x="1329" y="225" type="curve"/>
      <point x="805" y="1471" type="line"/>
    </contour>
    <contour>
      <point x="722" y="1138" type="line"/>
      <point x="958" y="561" type="line"/>
      <point x="472" y="561" type="line"/>
    </contour>
    <contour>
      <point x="1098" y="1857" type="line"/>
      <point x="832" y="1857" type="line"/>
      <point x="645" y="1558" type="line"/>
      <point x="701" y="1558" type="line"/>
    </contour>
  </outline>
</glyph>
<glyph name="Atilde" format="2">
  <advance width="1587"/>
  <unicode hex="00C3"/>
  <outline>
    <contour>
      <point x="505" y="1508" type="line"/>
      <point x="516" y="1568"/>
      <point x="539" y="1620"/>
      <point x="614" y="1620" type="curve" smooth="yes"/>
      <point x="659" y="1620"/>
      <point x="715" y="1602"/>
      <point x="775" y="1564" type="curve" smooth="yes"/>
      <point x="834" y="1527"/>
      <point x="898" y="1508"/>
      <point x="969" y="1508" type="curve" smooth="yes"/>
      <point x="1127" y="1508"/>
      <point x="1179" y="1620"/>
      <point x="1179" y="1751" type="curve"/>
      <point x="1149" y="1751" type="line"/>
      <point x="1138" y="1692"/>
      <point x="1115" y="1643"/>
      <point x="1040" y="1643" type="curve" smooth="yes"/>
      <point x="996" y="1643"/>
      <point x="940" y="1658"/>
      <point x="880" y="1695" type="curve" smooth="yes"/>
      <point x="819" y="1733"/>
      <point x="756" y="1751"/>
      <point x="685" y="1751" type="curve" smooth="yes"/>
      <point x="528" y="1751"/>
      <point x="472" y="1643"/>
      <point x="472" y="1508" type="curve"/>
    </contour>
    <contour>
      <point x="753" y="1471" type="line"/>
      <point x="217" y="225" type="line" smooth="yes"/>
      <point x="168" y="112"/>
      <point x="116" y="37"/>
      <point x="11" y="37" type="curve"/>
      <point x="11" y="0" type="line"/>
      <point x="472" y="0" type="line"/>
      <point x="472" y="37" type="line"/>
      <point x="346" y="37"/>
      <point x="305" y="76"/>
      <point x="305" y="133" type="curve" smooth="yes"/>
      <point x="305" y="160"/>
      <point x="315" y="192"/>
      <point x="329" y="225" type="curve" smooth="yes"/>
      <point x="438" y="479" type="line"/>
      <point x="1000" y="479" type="line"/>
      <point x="1108" y="225" type="line" smooth="yes"/>
      <point x="1124" y="188"/>
      <point x="1132" y="156"/>
      <point x="1132" y="130" type="curve" smooth="yes"/>
      <point x="1132" y="68"/>
      <point x="1085" y="37"/>
      <point x="977" y="37" type="curve"/>
      <point x="977" y="0" type="line"/>
      <point x="1568" y="0" type="line"/>
      <point x="1568" y="37" type="line"/>
      <point x="1430" y="37"/>
      <point x="1384" y="94"/>
      <point x="1329" y="225" type="curve"/>
      <point x="805" y="1471" type="line"/>
    </contour>
    <contour>
      <point x="722" y="1138" type="line"/>
      <point x="958" y="561" type="line"/>
      <point x="472" y="561" type="line"/>
    </contour>
  </outline>
</glyph>
<glyph name="Adieresis" format="2">
  <advance width="1587"/>
  <unicode hex="00C4"/>
  <outline>
    <contour>
      <point x="468" y="1711" type="curve" smooth="yes"/>
      <point x="468" y="1655"/>
      <point x="516" y="1605"/>
      <point x="572" y="1605" type="curve" smooth="yes"/>
      <point x="628" y="1605"/>
      <point x="678" y="1655"/>
      <point x="678" y="1711" type="curve" smooth="yes"/>
      <point x="678" y="1767"/>
      <point x="628" y="1815"/>
      <point x="572" y="1815" type="curve" smooth="yes"/>
      <point x="516" y="1815"/>
      <point x="468" y="1767"/>
    </contour>
    <contour>
      <point x="880" y="1711" type="curve" smooth="yes"/>
      <point x="880" y="1655"/>
      <point x="928" y="1605"/>
      <point x="984" y="1605" type="curve" smooth="yes"/>
      <point x="1040" y="1605"/>
      <point x="1089" y="1655"/>
      <point x="1089" y="1711" type="curve" smooth="yes"/>
      <point x="1089" y="1767"/>
      <point x="1040" y="1815"/>
      <point x="984" y="1815" type="curve" smooth="yes"/>
      <point x="928" y="1815"/>
      <point x="880" y="1767"/>
    </contour>
    <contour>
      <point x="753" y="1471" type="line"/>
      <point x="217" y="225" type="line" smooth="yes"/>
      <point x="168" y="112"/>
      <point x="116" y="37"/>
      <point x="11" y="37" type="curve"/>
      <point x="11" y="0" type="line"/>
      <point x="472" y="0" type="line"/>
      <point x="472" y="37" type="line"/>
      <point x="346" y="37"/>
      <point x="305" y="76"/>
      <point x="305" y="133" type="curve" smooth="yes"/>
      <point x="305" y="160"/>
      <point x="315" y="192"/>
      <point x="329" y="225" type="curve" smooth="yes"/>
      <point x="438" y="479" type="line"/>
      <point x="1000" y="479" type="line"/>
      <point x="1108" y="225" type="line" smooth="yes"/>
      <point x="1124" y="188"/>
      <point x="1132" y="156"/>
      <point x="1132" y="130" type="curve" smooth="yes"/>
      <point x="1132" y="68"/>
      <point x="1085" y="37"/>
      <point x="977" y="37" type="curve"/>
      <point x="977" y="0" type="line"/>
      <point x="1568" y="0" type="line"/>
      <point x="1568" y="37" type="line"/>
      <point x="1430" y="37"/>
      <point x="1384" y="94"/>
      <point x="1329" y="225" type="curve"/>
      <point x="805" y="1471" type="line"/>
    </contour>
    <contour>
      <point x="722" y="1138" type="line"/>
      <point x="958" y="561" type="line"/>
      <point x="472" y="561" type="line"/>
    </contour>
  </outline>
</glyph>
<glyph name="AE" format="2">
  <advance width="2009"/>
  <unicode hex="00C6"/>
  <guideline x="584" y="755" angle="61.5642"/>
  <anchor x="1039" y="-110" name="LL"/>
  <anchor x="1039" y="1745" name="LU"/>
  <outline>
    <contour>
      <point x="245" y="110" type="line"/>
      <point x="955" y="1422" type="line"/>
      <point x="955" y="1650" type="line"/>
      <point x="120" y="110" type="line"/>
      <point x="-30" y="75" type="line"/>
      <point x="-30" y="0" type="line"/>
      <point x="415" y="0" type="line"/>
      <point x="415" y="75" type="line"/>
    </contour>
    <contour>
      <point x="503" y="658" type="line"/>
      <point x="444" y="548" type="line"/>
      <point x="1109" y="548" type="line"/>
      <point x="1109" y="658" type="line"/>
    </contour>
    <contour>
      <point x="1113" y="0" type="line"/>
      <point x="1113" y="1650" type="line"/>
      <point x="955" y="1650" type="line"/>
      <point x="955" y="110" type="line"/>
      <point x="805" y="75" type="line"/>
      <point x="805" y="0" type="line"/>
    </contour>
    <contour>
      <point x="1779" y="1544" type="line"/>
      <point x="1814" y="1354" type="line"/>
      <point x="1899" y="1354" type="line"/>
      <point x="1899" y="1650" type="line"/>
      <point x="1050" y="1650" type="line"/>
      <point x="1050" y="1544" type="line"/>
    </contour>
    <contour>
      <point x="1618" y="942" type="line"/>
      <point x="1076" y="942" type="line"/>
      <point x="1076" y="836" type="line"/>
      <point x="1618" y="836" type="line"/>
      <point x="1653" y="676" type="line"/>
      <point x="1738" y="676" type="line"/>
      <point x="1738" y="1102" type="line"/>
      <point x="1653" y="1102" type="line"/>
    </contour>
    <contour>
      <point x="1779" y="106" type="line"/>
      <point x="1055" y="106" type="line"/>
      <point x="1050" y="0" type="line"/>
      <point x="1899" y="0" type="line"/>
      <point x="1899" y="296" type="line"/>
      <point x="1814" y="296" type="line"/>
    </contour>
  </outline>
</glyph>
<glyph name="Edieresis" format="2">
  <advance width="1324"/>
  <unicode hex="00CB"/>
  <outline>
    <contour>
      <point x="41" y="1440" type="line"/>
      <point x="41" y="1402" type="line"/>
      <point x="191" y="1402"/>
      <point x="247" y="1365"/>
      <point x="247" y="1211" type="curve" smooth="yes"/>
      <point x="247" y="229" type="line" smooth="yes"/>
      <point x="247" y="75"/>
      <point x="191" y="37"/>
      <point x="41" y="37" type="curve"/>
      <point x="41" y="0" type="line"/>
      <point x="1155" y="0" type="line"/>
      <point x="1286" y="405" type="line"/>
      <point x="1234" y="405" type="line"/>
      <point x="1177" y="221"/>
      <point x="1054" y="71"/>
      <point x="851" y="71" type="curve" smooth="yes"/>
      <point x="551" y="71" type="line" smooth="yes"/>
      <point x="502" y="71"/>
      <point x="469" y="112"/>
      <point x="465" y="161" type="curve"/>
      <point x="465" y="750" type="line"/>
      <point x="780" y="750" type="line" smooth="yes"/>
      <point x="896" y="750"/>
      <point x="994" y="694"/>
      <point x="994" y="521" type="curve"/>
      <point x="1031" y="521" type="line"/>
      <point x="1031" y="1009" type="line"/>
      <point x="994" y="1009" type="line"/>
      <point x="994" y="870"/>
      <point x="896" y="821"/>
      <point x="776" y="821" type="curve" smooth="yes"/>
      <point x="465" y="821" type="line"/>
      <point x="465" y="1369" type="line"/>
      <point x="829" y="1369" type="line" smooth="yes"/>
      <point x="1020" y="1369"/>
      <point x="1091" y="1271"/>
      <point x="1125" y="1099" type="curve"/>
      <point x="1166" y="1099" type="line"/>
      <point x="1147" y="1440" type="line"/>
    </contour>
    <contour>
      <point x="356" y="1714" type="curve" smooth="yes"/>
      <point x="356" y="1657"/>
      <point x="405" y="1609"/>
      <point x="461" y="1609" type="curve" smooth="yes"/>
      <point x="517" y="1609"/>
      <point x="566" y="1657"/>
      <point x="566" y="1714" type="curve" smooth="yes"/>
      <point x="566" y="1770"/>
      <point x="517" y="1819"/>
      <point x="461" y="1819" type="curve" smooth="yes"/>
      <point x="405" y="1819"/>
      <point x="356" y="1770"/>
    </contour>
    <contour>
      <point x="769" y="1714" type="curve" smooth="yes"/>
      <point x="769" y="1657"/>
      <point x="817" y="1609"/>
      <point x="874" y="1609" type="curve" smooth="yes"/>
      <point x="930" y="1609"/>
      <point x="979" y="1657"/>
      <point x="979" y="1714" type="curve" smooth="yes"/>
      <point x="979" y="1770"/>
      <point x="930" y="1819"/>
      <point x="874" y="1819" type="curve" smooth="yes"/>
      <point x="817" y="1819"/>
      <point x="769" y="1770"/>
    </contour>
  </outline>
</glyph>
<glyph name="Iacute" format="2">
  <advance width="724"/>
  <unicode hex="00CD"/>
  <outline>
    <contour>
      <point x="251" y="229" type="line" smooth="yes"/>
      <point x="251" y="75"/>
      <point x="199" y="37"/>
      <point x="49" y="37" type="curve"/>
      <point x="49" y="0" type="line"/>
      <point x="675" y="0" type="line"/>
      <point x="675" y="37" type="line"/>
      <point x="529" y="37"/>
      <point x="472" y="75"/>
      <point x="472" y="229" type="curve" smooth="yes"/>
      <point x="472" y="1211" type="line" smooth="yes"/>
      <point x="472" y="1365"/>
      <point x="529" y="1402"/>
      <point x="675" y="1402" type="curve"/>
      <point x="675" y="1440" type="line"/>
      <point x="49" y="1440" type="line"/>
      <point x="49" y="1402" type="line"/>
      <point x="199" y="1402"/>
      <point x="251" y="1365"/>
      <point x="251" y="1211" type="curve" smooth="yes"/>
    </contour>
    <contour>
      <point x="637" y="1811" type="line"/>
      <point x="371" y="1811" type="line"/>
      <point x="184" y="1511" type="line"/>
      <point x="240" y="1511" type="line"/>
    </contour>
  </outline>
</glyph>
<glyph name="Icircumflex" format="2">
  <advance width="724"/>
  <unicode hex="00CE"/>
  <outline>
    <contour>
      <point x="251" y="229" type="line" smooth="yes"/>
      <point x="251" y="75"/>
      <point x="199" y="37"/>
      <point x="49" y="37" type="curve"/>
      <point x="49" y="0" type="line"/>
      <point x="675" y="0" type="line"/>
      <point x="675" y="37" type="line"/>
      <point x="529" y="37"/>
      <point x="472" y="75"/>
      <point x="472" y="229" type="curve" smooth="yes"/>
      <point x="472" y="1211" type="line" smooth="yes"/>
      <point x="472" y="1365"/>
      <point x="529" y="1402"/>
      <point x="675" y="1402" type="curve"/>
      <point x="675" y="1440" type="line"/>
      <point x="49" y="1440" type="line"/>
      <point x="49" y="1402" type="line"/>
      <point x="199" y="1402"/>
      <point x="251" y="1365"/>
      <point x="251" y="1211" type="curve" smooth="yes"/>
    </contour>
    <contour>
      <point x="259" y="1781" type="line"/>
      <point x="49" y="1504" type="line"/>
      <point x="82" y="1504" type="line"/>
      <point x="360" y="1654" type="line"/>
      <point x="637" y="1504" type="line"/>
      <point x="675" y="1504" type="line"/>
      <point x="461" y="1781" type="line"/>
    </contour>
  </outline>
</glyph>
<glyph name="Eth" format="2">
  <advance width="1503"/>
  <unicode hex="00D0"/>
  <anchor x="785" y="-110" name="LL"/>
  <anchor x="785" y="1745" name="LU"/>
  <outline>
    <component base="D" xOffset="10"/>
    <contour>
      <point x="125" y="923" type="line"/>
      <point x="125" y="817" type="line"/>
      <point x="766" y="817" type="line"/>
      <point x="766" y="923" type="line"/>
    </contour>
  </outline>
</glyph>
<glyph name="Ntilde" format="2">
  <advance width="1564"/>
  <unicode hex="00D1"/>
  <outline>
    <contour>
      <point x="240" y="229" type="line" smooth="yes"/>
      <point x="240" y="75"/>
      <point x="184" y="37"/>
      <point x="37" y="37" type="curve"/>
      <point x="37" y="0" type="line"/>
      <point x="540" y="0" type="line"/>
      <point x="540" y="37" type="line"/>
      <point x="390" y="37"/>
      <point x="337" y="75"/>
      <point x="337" y="229" type="curve" smooth="yes"/>
      <point x="337" y="1136" type="line"/>
      <point x="345" y="1136" type="line"/>
      <point x="1275" y="-34" type="line"/>
      <point x="1327" y="-34" type="line"/>
      <point x="1327" y="1211" type="line" smooth="yes"/>
      <point x="1327" y="1365"/>
      <point x="1380" y="1402"/>
      <point x="1530" y="1402" type="curve"/>
      <point x="1530" y="1440" type="line"/>
      <point x="1024" y="1440" type="line"/>
      <point x="1024" y="1402" type="line"/>
      <point x="1174" y="1402"/>
      <point x="1230" y="1365"/>
      <point x="1230" y="1211" type="curve" smooth="yes"/>
      <point x="1230" y="386" type="line"/>
      <point x="1219" y="386" type="line"/>
      <point x="364" y="1440" type="line"/>
      <point x="0" y="1440" type="line"/>
      <point x="0" y="1402" type="line"/>
      <point x="131" y="1402"/>
      <point x="240" y="1320"/>
      <point x="240" y="1200" type="curve" smooth="yes"/>
    </contour>
    <contour>
      <point x="469" y="1511" type="line"/>
      <point x="480" y="1571"/>
      <point x="502" y="1624"/>
      <point x="577" y="1624" type="curve" smooth="yes"/>
      <point x="622" y="1624"/>
      <point x="679" y="1605"/>
      <point x="739" y="1567" type="curve" smooth="yes"/>
      <point x="799" y="1530"/>
      <point x="862" y="1511"/>
      <point x="934" y="1511" type="curve" smooth="yes"/>
      <point x="1091" y="1511"/>
      <point x="1144" y="1624"/>
      <point x="1144" y="1755" type="curve"/>
      <point x="1114" y="1755" type="line"/>
      <point x="1102" y="1695"/>
      <point x="1080" y="1646"/>
      <point x="1005" y="1646" type="curve" smooth="yes"/>
      <point x="960" y="1646"/>
      <point x="904" y="1661"/>
      <point x="844" y="1699" type="curve" smooth="yes"/>
      <point x="784" y="1736"/>
      <point x="720" y="1755"/>
      <point x="649" y="1755" type="curve" smooth="yes"/>
      <point x="491" y="1755"/>
      <point x="435" y="1646"/>
      <point x="435" y="1511" type="curve"/>
    </contour>
  </outline>
</glyph>
<glyph name="Oacute" format="2">
  <advance width="1576"/>
  <unicode hex="00D3"/>
  <outline>
    <contour>
      <point x="790" y="-33" type="curve" smooth="yes"/>
      <point x="1194" y="-33"/>
      <point x="1508" y="307"/>
      <point x="1508" y="726" type="curve" smooth="yes"/>
      <point x="1508" y="1138"/>
      <point x="1194" y="1471"/>
      <point x="790" y="1471" type="curve" smooth="yes"/>
      <point x="382" y="1471"/>
      <point x="67" y="1138"/>
      <point x="67" y="726" type="curve" smooth="yes"/>
      <point x="67" y="307"/>
      <point x="382" y="-33"/>
    </contour>
    <contour>
      <point x="790" y="37" type="curve" smooth="yes"/>
      <point x="483" y="37"/>
      <point x="326" y="329"/>
      <point x="326" y="726" type="curve" smooth="yes"/>
      <point x="326" y="1123"/>
      <point x="483" y="1400"/>
      <point x="790" y="1400" type="curve" smooth="yes"/>
      <point x="1085" y="1400"/>
      <point x="1250" y="1123"/>
      <point x="1250" y="726" type="curve" smooth="yes"/>
      <point x="1250" y="329"/>
      <point x="1085" y="37"/>
    </contour>
    <contour>
      <point x="1198" y="1857" type="line"/>
      <point x="932" y="1857" type="line"/>
      <point x="745" y="1558" type="line"/>
      <point x="801" y="1558" type="line"/>
    </contour>
  </outline>
</glyph>
<glyph name="Odieresis" format="2">
  <advance width="1576"/>
  <unicode hex="00D6"/>
  <outline>
    <contour>
      <point x="790" y="-33" type="curve" smooth="yes"/>
      <point x="1194" y="-33"/>
      <point x="1508" y="307"/>
      <point x="1508" y="726" type="curve" smooth="yes"/>
      <point x="1508" y="1138"/>
      <point x="1194" y="1471"/>
      <point x="790" y="1471" type="curve" smooth="yes"/>
      <point x="382" y="1471"/>
      <point x="67" y="1138"/>
      <point x="67" y="726" type="curve" smooth="yes"/>
      <point x="67" y="307"/>
      <point x="382" y="-33"/>
    </contour>
    <contour>
      <point x="790" y="37" type="curve" smooth="yes"/>
      <point x="483" y="37"/>
      <point x="326" y="329"/>
      <point x="326" y="726" type="curve" smooth="yes"/>
      <point x="326" y="1123"/>
      <point x="483" y="1400"/>
      <point x="790" y="1400" type="curve" smooth="yes"/>
      <point x="1085" y="1400"/>
      <point x="1250" y="1123"/>
      <point x="1250" y="726" type="curve" smooth="yes"/>
      <point x="1250" y="329"/>
      <point x="1085" y="37"/>
    </contour>
    <contour>
      <point x="487" y="1711" type="curve" smooth="yes"/>
      <point x="487" y="1655"/>
      <point x="535" y="1605"/>
      <point x="591" y="1605" type="curve" smooth="yes"/>
      <point x="647" y="1605"/>
      <point x="696" y="1655"/>
      <point x="696" y="1711" type="curve" smooth="yes"/>
      <point x="696" y="1767"/>
      <point x="647" y="1815"/>
      <point x="591" y="1815" type="curve" smooth="yes"/>
      <point x="535" y="1815"/>
      <point x="487" y="1767"/>
    </contour>
    <contour>
      <point x="898" y="1711" type="curve" smooth="yes"/>
      <point x="898" y="1655"/>
      <point x="947" y="1605"/>
      <point x="1003" y="1605" type="curve" smooth="yes"/>
      <point x="1059" y="1605"/>
      <point x="1108" y="1655"/>
      <point x="1108" y="1711" type="curve" smooth="yes"/>
      <point x="1108" y="1767"/>
      <point x="1059" y="1815"/>
      <point x="1003" y="1815" type="curve" smooth="yes"/>
      <point x="947" y="1815"/>
      <point x="898" y="1767"/>
    </contour>
  </outline>
</glyph>
<glyph name="multiply" format="2">
  <advance width="1056"/>
  <unicode hex="00D7"/>
  <outline>
    <contour>
      <point x="227" y="469" type="line"/>
      <point x="150" y="546" type="line"/>
      <point x="829" y="1225" type="line"/>
      <point x="906" y="1148" type="line"/>
    </contour>
    <contour>
      <point x="829" y="469" type="line"/>
      <point x="150" y="1148" type="line"/>
      <point x="227" y="1225" type="line"/>
      <point x="906" y="546" type="line"/>
    </contour>
  </outline>
</glyph>
<glyph name="Oslash" format="2">
  <advance width="1576"/>
  <unicode hex="00D8"/>
  <outline>
    <contour>
      <point x="168" y="23" type="line"/>
      <point x="300" y="164" type="line"/>
      <point x="428" y="42"/>
      <point x="598" y="-33"/>
      <point x="790" y="-33" type="curve" smooth="yes"/>
      <point x="1194" y="-33"/>
      <point x="1508" y="307"/>
      <point x="1508" y="726" type="curve" smooth="yes"/>
      <point x="1508" y="926"/>
      <point x="1433" y="1108"/>
      <point x="1310" y="1242" type="curve"/>
      <point x="1441" y="1381" type="line"/>
      <point x="1389" y="1437" type="line"/>
      <point x="1256" y="1295" type="line"/>
      <point x="1132" y="1405"/>
      <point x="970" y="1471"/>
      <point x="790" y="1471" type="curve" smooth="yes"/>
      <point x="382" y="1471"/>
      <point x="67" y="1138"/>
      <point x="67" y="726" type="curve" smooth="yes"/>
      <point x="67" y="531"/>
      <point x="135" y="354"/>
      <point x="248" y="220" type="curve"/>
      <point x="116" y="79" type="line"/>
    </contour>
    <contour>
      <point x="790" y="37" type="curve" smooth="yes"/>
      <point x="616" y="37"/>
      <point x="490" y="131"/>
      <point x="413" y="285" type="curve"/>
      <point x="1184" y="1107" type="line"/>
      <point x="1227" y="1001"/>
      <point x="1250" y="872"/>
      <point x="1250" y="726" type="curve" smooth="yes"/>
      <point x="1250" y="329"/>
      <point x="1085" y="37"/>
    </contour>
    <contour>
      <point x="326" y="726" type="curve" smooth="yes"/>
      <point x="326" y="1123"/>
      <point x="483" y="1400"/>
      <point x="790" y="1400" type="curve" smooth="yes"/>
      <point x="949" y="1400"/>
      <point x="1071" y="1318"/>
      <point x="1149" y="1181" type="curve"/>
      <point x="381" y="362" type="line"/>
      <point x="345" y="466"/>
      <point x="326" y="589"/>
    </contour>
  </outline>
</glyph>
<glyph name="Ugrave" format="2">
  <advance width="1591"/>
  <unicode hex="00D9"/>
  <outline>
    <contour>
      <point x="239" y="509" type="line" smooth="yes"/>
      <point x="239" y="210"/>
      <point x="434" y="-33"/>
      <point x="794" y="-33" type="curve" smooth="yes"/>
      <point x="1202" y="-33"/>
      <point x="1366" y="210"/>
      <point x="1366" y="505" type="curve" smooth="yes"/>
      <point x="1366" y="1209" type="line" smooth="yes"/>
      <point x="1366" y="1362"/>
      <point x="1422" y="1400"/>
      <point x="1572" y="1400" type="curve"/>
      <point x="1572" y="1437" type="line"/>
      <point x="1067" y="1437" type="line"/>
      <point x="1067" y="1400" type="line"/>
      <point x="1216" y="1400"/>
      <point x="1269" y="1362"/>
      <point x="1269" y="1209" type="curve" smooth="yes"/>
      <point x="1269" y="505" type="line" smooth="yes"/>
      <point x="1269" y="258"/>
      <point x="1115" y="60"/>
      <point x="865" y="60" type="curve" smooth="yes"/>
      <point x="618" y="60"/>
      <point x="460" y="258"/>
      <point x="460" y="505" type="curve" smooth="yes"/>
      <point x="460" y="1209" type="line" smooth="yes"/>
      <point x="460" y="1362"/>
      <point x="513" y="1400"/>
      <point x="663" y="1400" type="curve"/>
      <point x="663" y="1437" type="line"/>
      <point x="37" y="1437" type="line"/>
      <point x="37" y="1400" type="line"/>
      <point x="183" y="1400"/>
      <point x="239" y="1362"/>
      <point x="239" y="1209" type="curve" smooth="yes"/>
    </contour>
    <contour>
      <point x="502" y="1857" type="line"/>
      <point x="895" y="1558" type="line"/>
      <point x="955" y="1558" type="line"/>
      <point x="768" y="1857" type="line"/>
    </contour>
  </outline>
</glyph>
<glyph name="Ucircumflex" format="2">
  <advance width="1591"/>
  <unicode hex="00DB"/>
  <outline>
    <contour>
      <point x="239" y="509" type="line" smooth="yes"/>
      <point x="239" y="210"/>
      <point x="434" y="-33"/>
      <point x="794" y="-33" type="curve" smooth="yes"/>
      <point x="1202" y="-33"/>
      <point x="1366" y="210"/>
      <point x="1366" y="505" type="curve" smooth="yes"/>
      <point x="1366" y="1209" type="line" smooth="yes"/>
      <point x="1366" y="1362"/>
      <point x="1422" y="1400"/>
      <point x="1572" y="1400" type="curve"/>
      <point x="1572" y="1437" type="line"/>
      <point x="1067" y="1437" type="line"/>
      <point x="1067" y="1400" type="line"/>
      <point x="1216" y="1400"/>
      <point x="1269" y="1362"/>
      <point x="1269" y="1209" type="curve" smooth="yes"/>
      <point x="1269" y="505" type="line" smooth="yes"/>
      <point x="1269" y="258"/>
      <point x="1115" y="60"/>
      <point x="865" y="60" type="curve" smooth="yes"/>
      <point x="618" y="60"/>
      <point x="460" y="258"/>
      <point x="460" y="505" type="curve" smooth="yes"/>
      <point x="460" y="1209" type="line" smooth="yes"/>
      <point x="460" y="1362"/>
      <point x="513" y="1400"/>
      <point x="663" y="1400" type="curve"/>
      <point x="663" y="1437" type="line"/>
      <point x="37" y="1437" type="line"/>
      <point x="37" y="1400" type="line"/>
      <point x="183" y="1400"/>
      <point x="239" y="1362"/>
      <point x="239" y="1209" type="curve" smooth="yes"/>
    </contour>
    <contour>
      <point x="756" y="1778" type="line"/>
      <point x="547" y="1501" type="line"/>
      <point x="580" y="1501" type="line"/>
      <point x="857" y="1651" type="line"/>
      <point x="1134" y="1501" type="line"/>
      <point x="1171" y="1501" type="line"/>
      <point x="958" y="1778" type="line"/>
    </contour>
  </outline>
</glyph>
<glyph name="Udieresis" format="2">
  <advance width="1591"/>
  <unicode hex="00DC"/>
  <outline>
    <contour>
      <point x="239" y="509" type="line" smooth="yes"/>
      <point x="239" y="210"/>
      <point x="434" y="-33"/>
      <point x="794" y="-33" type="curve" smooth="yes"/>
      <point x="1202" y="-33"/>
      <point x="1366" y="210"/>
      <point x="1366" y="505" type="curve" smooth="yes"/>
      <point x="1366" y="1209" type="line" smooth="yes"/>
      <point x="1366" y="1362"/>
      <point x="1422" y="1400"/>
      <point x="1572" y="1400" type="curve"/>
      <point x="1572" y="1437" type="line"/>
      <point x="1067" y="1437" type="line"/>
      <point x="1067" y="1400" type="line"/>
      <point x="1216" y="1400"/>
      <point x="1269" y="1362"/>
      <point x="1269" y="1209" type="curve" smooth="yes"/>
      <point x="1269" y="505" type="line" smooth="yes"/>
      <point x="1269" y="258"/>
      <point x="1115" y="60"/>
      <point x="865" y="60" type="curve" smooth="yes"/>
      <point x="618" y="60"/>
      <point x="460" y="258"/>
      <point x="460" y="505" type="curve" smooth="yes"/>
      <point x="460" y="1209" type="line" smooth="yes"/>
      <point x="460" y="1362"/>
      <point x="513" y="1400"/>
      <point x="663" y="1400" type="curve"/>
      <point x="663" y="1437" type="line"/>
      <point x="37" y="1437" type="line"/>
      <point x="37" y="1400" type="line"/>
      <point x="183" y="1400"/>
      <point x="239" y="1362"/>
      <point x="239" y="1209" type="curve" smooth="yes"/>
    </contour>
    <contour>
      <point x="561" y="1711" type="curve" smooth="yes"/>
      <point x="561" y="1655"/>
      <point x="610" y="1605"/>
      <point x="666" y="1605" type="curve" smooth="yes"/>
      <point x="722" y="1605"/>
      <point x="771" y="1655"/>
      <point x="771" y="1711" type="curve" smooth="yes"/>
      <point x="771" y="1767"/>
      <point x="722" y="1815"/>
      <point x="666" y="1815" type="curve" smooth="yes"/>
      <point x="610" y="1815"/>
      <point x="561" y="1767"/>
    </contour>
    <contour>
      <point x="973" y="1711" type="curve" smooth="yes"/>
      <point x="973" y="1655"/>
      <point x="1021" y="1605"/>
      <point x="1078" y="1605" type="curve" smooth="yes"/>
      <point x="1134" y="1605"/>
      <point x="1183" y="1655"/>
      <point x="1183" y="1711" type="curve" smooth="yes"/>
      <point x="1183" y="1767"/>
      <point x="1134" y="1815"/>
      <point x="1078" y="1815" type="curve" smooth="yes"/>
      <point x="1021" y="1815"/>
      <point x="973" y="1767"/>
    </contour>
  </outline>
</glyph>
<glyph name="Yacute" format="2">
  <advance width="1468"/>
  <unicode hex="00DD"/>
  <outline>
    <contour>
      <point x="-33" y="1437" type="line"/>
      <point x="-33" y="1400" type="line"/>
      <point x="76" y="1400"/>
      <point x="121" y="1328"/>
      <point x="183" y="1235" type="curve" smooth="yes"/>
      <point x="607" y="599" type="line"/>
      <point x="607" y="229" type="line" smooth="yes"/>
      <point x="607" y="75"/>
      <point x="551" y="37"/>
      <point x="404" y="37" type="curve"/>
      <point x="404" y="0" type="line"/>
      <point x="1029" y="0" type="line"/>
      <point x="1029" y="37" type="line"/>
      <point x="880" y="37"/>
      <point x="827" y="75"/>
      <point x="827" y="229" type="curve" smooth="yes"/>
      <point x="827" y="622" type="line"/>
      <point x="1202" y="1220" type="line"/>
      <point x="1282" y="1348"/>
      <point x="1343" y="1400"/>
      <point x="1468" y="1400" type="curve"/>
      <point x="1468" y="1437" type="line"/>
      <point x="965" y="1437" type="line"/>
      <point x="965" y="1400" type="line"/>
      <point x="1067" y="1400"/>
      <point x="1115" y="1362"/>
      <point x="1115" y="1295" type="curve" smooth="yes"/>
      <point x="1115" y="1276"/>
      <point x="1108" y="1250"/>
      <point x="1093" y="1220" type="curve"/>
      <point x="771" y="700" type="line"/>
      <point x="460" y="1202" type="line"/>
      <point x="430" y="1243"/>
      <point x="420" y="1273"/>
      <point x="420" y="1299" type="curve" smooth="yes"/>
      <point x="420" y="1362"/>
      <point x="472" y="1400"/>
      <point x="591" y="1400" type="curve"/>
      <point x="591" y="1437" type="line"/>
    </contour>
    <contour>
      <point x="1123" y="1807" type="line"/>
      <point x="857" y="1807" type="line"/>
      <point x="670" y="1508" type="line"/>
      <point x="726" y="1508" type="line"/>
    </contour>
  </outline>
</glyph>
<glyph name="Thorn" format="2">
  <advance width="1402"/>
  <unicode hex="00DE"/>
  <anchor x="737" y="-110" name="LL"/>
  <anchor x="738" y="1745" name="LU"/>
  <outline>
    <contour>
      <point x="442" y="1540" type="line"/>
      <point x="612" y="1575" type="line"/>
      <point x="612" y="1650" type="line"/>
      <point x="130" y="1650" type="line"/>
      <point x="130" y="1575" type="line"/>
      <point x="280" y="1540" type="line"/>
      <point x="280" y="110" type="line"/>
      <point x="130" y="75" type="line"/>
      <point x="130" y="0" type="line"/>
      <point x="612" y="0" type="line"/>
      <point x="612" y="75" type="line"/>
      <point x="442" y="110" type="line"/>
    </contour>
    <contour>
      <point x="285" y="438" type="line"/>
      <point x="671" y="438" type="line" smooth="yes"/>
      <point x="1001" y="438"/>
      <point x="1269" y="533"/>
      <point x="1269" y="853" type="curve" smooth="yes"/>
      <point x="1269" y="1187"/>
      <point x="1011" y="1250"/>
      <point x="671" y="1250" type="curve" smooth="yes"/>
      <point x="380" y="1250" type="line"/>
      <point x="380" y="1150" type="line"/>
      <point x="693" y="1150" type="line" smooth="yes"/>
      <point x="964" y="1150"/>
      <point x="1097" y="1093"/>
      <point x="1097" y="846" type="curve" smooth="yes"/>
      <point x="1097" y="623"/>
      <point x="959" y="538"/>
      <point x="703" y="538" type="curve" smooth="yes"/>
      <point x="285" y="538" type="line"/>
    </contour>
  </outline>
</glyph>
